<svg xmlns="http://www.w3.org/2000/svg" viewBox="0 0 341 354">
  <g fill="#64c3bf">
    <path d="M57 58l-2 1 36 41 7-15-41-27zM68 53l32 29 5-11-33-21a33 33 0 0 1-4 3z" />
    <path d="M341 242c-2-51-10-70-10-70a154 154 0 0 0-42-82c-12-12-28-26-60-30s-46 7-46 7 27 13 38 25a85 85 0 1 1-136 20 10 10 0 0 0 1-2l5-10c-7-6-30-20-49-35L0 83l13 25s39-13 38-8l-9 23a155 155 0 0 0 261 167s17 24 20 38l6 21s15-56 12-107z" />
    <path d="M106 68l9-18c12-28 16-32 16-32L108 0S94 29 78 45zM57 58l-2 1 36 41 7-15-41-27zM68 53l32 29 5-11-33-21a33 33 0 0 1-4 3z" />
    <path d="M341 242c-2-51-10-70-10-70a154 154 0 0 0-42-82c-12-12-28-26-60-30s-46 7-46 7 27 13 38 25a85 85 0 1 1-136 20 10 10 0 0 0 1-2l5-10c-7-6-30-20-49-35L0 83l13 25s39-13 38-8l-9 23a155 155 0 0 0 261 167s17 24 20 38l6 21s15-56 12-107z" />
    <path d="M106 68l9-18c12-28 16-32 16-32L108 0S94 29 78 45z" />
  </g>
</svg>
