<svg viewBox="0 0 60 60" xmlns="http://www.w3.org/2000/svg">
  <path d="M30 60C13.4314575 60 0 46.5685425 0 30S13.4314575 0 30 0s30 13.4314575 30 30-13.4314575 30-30 30zm12.988156-28.9026305c.2107081-.1149318.3838726-.2880962.4988043-.4988043.3305784-.6060605.1072561-1.3653563-.4988043-1.6959347L24.4788521 18.8066466c-.1468886-.080121-.3115331-.1221044-.4788521-.1221044-.5522847 0-1 .4477152-1 1v20.6309156c0 .167319.0419834.3319635.1221044.4788521.2644628.4848484.8718994.6635062 1.3567477.3990435L42.988156 31.0973695z" fill="#FFF" fill-rule="evenodd"/>
</svg>
