<?xml version="1.0" encoding="UTF-8"?>
<svg width="50px" height="50px" viewBox="0 0 50 50" version="1.1" xmlns="http://www.w3.org/2000/svg" xmlns:xlink="http://www.w3.org/1999/xlink">
    <!-- Generator: Sketch 52.5 (67469) - http://www.bohemiancoding.com/sketch -->
    <title>icon-linked=in</title>
    <desc>Created with Sketch.</desc>
    <g id="Page-1" stroke="none" stroke-width="1" fill="none" fill-rule="evenodd">
        <g id="icon-play-large" transform="translate(-78.000000, -44.000000)" fill="#FFFFFE">
            <path d="M120.763158,86.7631579 L113.383784,86.7631579 L113.383784,75.2124954 C113.383784,72.4582396 113.333307,68.9152761 109.546814,68.9152761 C105.704312,68.9152761 105.114487,71.9156142 105.114487,75.0134176 L105.114487,86.7631579 L97.7368421,86.7631579 L97.7368421,63.0113737 L104.819229,63.0113737 L104.819229,66.2567574 L104.91811,66.2567574 C105.904147,64.3897113 108.312539,62.4210526 111.905074,62.4210526 C119.382637,62.4210526 120.763158,67.3406256 120.763158,73.7353102 L120.763158,86.7631579 Z M88.8568174,59.1315789 C86.492695,59.1315789 84.5789474,57.2153005 84.5789474,54.8542271 C84.5789474,52.4952258 86.492695,50.5789474 88.8568174,50.5789474 C91.2150683,50.5789474 93.1315789,52.4952258 93.1315789,54.8542271 C93.1315789,57.2153005 91.2150683,59.1315789 88.8568174,59.1315789 Z M85.2368421,86.7631579 L92.4736842,86.7631579 L92.4736842,63.0789474 L85.2368421,63.0789474 L85.2368421,86.7631579 Z M124.299061,44 L81.6905225,44 C79.6544679,44 78,45.6138889 78,47.6027778 L78,90.3923611 C78,92.3836806 79.6544679,94 81.6905225,94 L124.299061,94 C126.338588,94 128,92.3836806 128,90.3923611 L128,47.6027778 C128,45.6138889 126.338588,44 124.299061,44 Z" id="icon-linked=in"></path>
        </g>
    </g>
</svg>