<svg version="1" xmlns="http://www.w3.org/2000/svg" viewBox="0 0 512 512">
  <g fill="#ffffff">
    <path d="M114 512a114 114 0 0 1-81-195l112-112a115 115 0 0 1 143-15c7 4 13 9 19 15a26 26 0 0 1-37 37 62 62 0 0 0-87 0L70 354a62 62 0 1 0 87 87l67-66c19 8 39 11 60 11h3l-92 93c-21 21-50 33-81 33z" />
    <path d="M284 342h-6a109 109 0 0 1-22-3l-5-1-5-2-5-2-5-2c-12-6-23-13-33-23a26 26 0 0 1 38-37c24 24 63 24 87 0l29-30 83-82a62 62 0 1 0-88-88l-66 67c-19-8-39-12-60-11h-3l92-93a114 114 0 1 1 162 162L365 309c-15 15-33 25-53 30h-1l-5 1-2 1h-9l-6 1h-5z" />
  </g>
</svg>
