<?xml version="1.0" encoding="UTF-8"?>
<svg width="50px" height="50px" viewBox="0 0 50 50" version="1.1" xmlns="http://www.w3.org/2000/svg" xmlns:xlink="http://www.w3.org/1999/xlink">
    <!-- Generator: Sketch 52.5 (67469) - http://www.bohemiancoding.com/sketch -->
    <title>icon-facebook</title>
    <desc>Created with Sketch.</desc>
    <g id="Page-1" stroke="none" stroke-width="1" fill="none" fill-rule="evenodd">
        <g id="icon-play-large" transform="translate(-17.000000, -44.000000)" fill="#FFFFFF">
            <g id="icon-facebook" transform="translate(17.000000, 44.000000)">
                <path d="M47.2222222,0 L2.77777778,0 C1.24365347,-9.3938021e-17 1.87876042e-16,1.24365347 0,2.77777778 L0,47.2222222 C1.87876042e-16,48.7563465 1.24365347,50 2.77777778,50 L26.7083333,50 L26.7083333,30.6666667 L20.2152778,30.6666667 L20.2152778,23.0972222 L26.7083333,23.0972222 L26.7083333,17.5416667 C26.7083333,11.0833333 30.6527778,7.56944444 36.4305556,7.56944444 C38.3743408,7.56376384 40.3170052,7.6634471 42.25,7.86805556 L42.25,14.5833333 L38.25,14.5833333 C35.125,14.5833333 34.5208333,16.0694444 34.5208333,18.2569444 L34.5208333,23.0763889 L42.0138889,23.0763889 L41.0416667,30.6458333 L34.5208333,30.6458333 L34.5208333,50 L47.2222222,50 C48.7563465,50 50,48.7563465 50,47.2222222 L50,2.77777778 C50,1.24365347 48.7563465,9.3938021e-17 47.2222222,0 Z" id="Path"></path>
            </g>
        </g>
    </g>
</svg>