<svg width="60" height="60" viewBox="0 0 60 60" fill="none" xmlns="http://www.w3.org/2000/svg">
<path d="M50 49.8701C49.8809 50.5439 49.7893 51.2228 49.6548 51.8916C49.3286 53.5259 47.9012 53.9835 46.6643 53.9999C45.9809 54.0087 45.4381 53.5222 45.175 52.9011C44.5869 51.5182 43.9845 50.1278 43.5881 48.6771C42.1107 43.2323 40.8274 37.7272 39.2607 32.3126C37.7786 27.1947 36.0559 22.1523 34.3917 17.0935C33.744 15.1222 32.6488 13.4288 31.0333 12.183C29.5869 11.0629 28.0679 10.9057 26.4036 11.7229C24.5179 12.6494 23.3083 14.0939 22.7571 16.216C21.1643 22.3207 19.5202 28.4104 18.6488 34.6962C18.3393 36.9277 18.4238 39.1616 18.206 41.3818C17.9333 44.1702 17.069 46.7524 15.3726 48.9511C14.6286 49.9154 13.6607 50.5942 12.4143 50.2083C11.1679 49.8223 10.419 48.9084 10.119 47.5783C10.0833 47.4199 10.0417 47.2628 10 47.1044V44.9672C10.0333 44.7019 10.0714 44.4379 10.1 44.1727C10.3571 41.8947 10.4512 39.5778 10.8893 37.3438C12.1476 30.9197 13.5298 24.5208 14.8893 18.1206C15.5952 14.8205 16.7083 11.6914 18.4988 8.85655C20.0667 6.37492 22.1679 4.66518 25 4.25157C26.7333 4.00014 28.5071 4.02151 30.2643 4.00014C30.9548 3.9954 31.6414 4.10875 32.2976 4.3358C35.925 5.60428 38.4524 8.29083 39.7 11.9554C41.5226 17.2971 42.9679 22.7846 44.5131 28.2294C45.4571 31.5583 46.2333 34.9401 47.1857 38.2665C47.8595 40.6162 48.7524 42.8941 49.4476 45.2375C49.7571 46.2797 49.8226 47.4011 49.9988 48.4872L50 49.8701Z" fill="#1F6D7D"/>
<path d="M22.6797 30.9549C22.725 30.5111 22.7476 29.9881 22.8369 29.4765C23.1464 27.69 23.6143 27.1796 25.3154 26.8741C27.2345 26.5297 29.1726 26.3436 31.1083 26.6365C31.6328 26.7291 32.12 26.9822 32.5095 27.3644C33.3557 28.2416 34.1579 29.1648 34.9131 30.1302C35.4333 30.7789 35.469 31.5206 35.0845 32.29C33.8512 34.7503 32.1452 36.7315 29.8571 38.1421C28.8524 38.7618 27.8964 38.743 26.8202 38.2389C23.8297 36.8384 22.8214 34.2361 22.6797 30.9549Z" fill="#1F6D7D"/>
</svg>
