<svg width="60" height="60" viewBox="0 0 60 60" fill="none" xmlns="http://www.w3.org/2000/svg">
<path d="M56 29.692C55.9258 29.7469 55.8409 29.8176 55.749 29.8773C55.5237 30.0239 55.3584 30.2048 55.3549 30.4919C55.3549 30.6456 55.236 30.6847 55.1162 30.6913C54.8692 30.7049 54.7486 30.823 54.7415 31.0702C54.7367 31.2304 54.6443 31.3059 54.4932 31.3819C54.1612 31.5517 53.8435 31.7477 53.5432 31.968C53.4548 32.033 53.4239 32.195 53.3885 32.3192C53.3532 32.4435 53.3125 32.5173 53.1707 32.5146C52.8971 32.5102 52.7323 32.6371 52.6532 32.9098C52.5958 33.1069 52.2829 33.2518 52.0788 33.1855C51.8577 33.1097 51.6416 33.0201 51.4319 32.9172C51.1805 32.7987 50.922 32.6867 50.6926 32.5335C50.5145 32.4056 50.3557 32.253 50.2211 32.0804C50.0753 31.9048 49.9145 31.7731 49.6909 31.7186C49.5989 31.6926 49.5116 31.6526 49.4319 31.6001C48.9552 31.3059 48.4806 31.0074 48.0042 30.7119C47.9612 30.6841 47.9143 30.6627 47.8651 30.6482C47.6436 30.5897 47.4473 30.461 47.3061 30.2816C47.2535 30.2162 47.1448 30.1499 47.0666 30.1574C46.7436 30.1811 46.5412 29.9906 46.3565 29.7824C46.0721 29.4555 45.714 29.1998 45.3114 29.0361C45.2319 28.9992 45.1619 28.9447 45.1069 28.8767C44.8619 28.5907 44.527 28.3952 44.1564 28.3217C44.0464 28.2985 43.9447 28.2089 43.8546 28.1316C43.7441 28.0368 43.6531 27.9196 43.5479 27.8186C43.398 27.6661 43.1937 27.5783 42.9792 27.5741C42.6598 27.5653 42.4172 27.3901 42.2762 27.1188C42.0774 26.7368 41.7252 26.5897 41.3544 26.465C41.3045 26.4483 41.1954 26.4997 41.1662 26.5498C41.0703 26.7118 40.9391 26.7407 40.7619 26.7469C40.6117 26.7502 40.4655 26.7959 40.3403 26.8786C39.7062 27.3383 39.0063 27.7106 38.4553 28.2836C38.3806 28.3617 38.1981 28.3586 38.0664 28.3569C37.9118 28.3547 37.8128 28.3968 37.7682 28.5483C37.6997 28.7827 37.5358 28.8864 37.2967 28.9377C37.0066 28.9989 36.7436 29.15 36.5455 29.3693C36.4611 29.4611 36.3113 29.5102 36.1823 29.5405C36.0365 29.5752 35.9203 29.6253 35.8566 29.7653C35.7744 29.9471 35.6277 30.0288 35.4342 30.0727C35.3215 30.1011 35.2187 30.1596 35.1368 30.2417C34.8876 30.4897 34.5955 30.6469 34.2455 30.675C33.9641 30.6979 33.7772 30.8752 33.5876 31.0421C33.2743 31.3173 32.9849 31.619 32.6685 31.8903C32.5876 31.9592 32.4431 31.9781 32.3278 31.9781C32.1621 31.9781 32.0574 32.0312 31.9743 32.1788C31.7975 32.4971 31.5121 32.6446 31.152 32.6894C30.9505 32.7139 30.7543 32.7824 30.5599 32.8479C30.4998 32.8685 30.4481 32.9357 30.4109 32.9945C30.3327 33.117 30.266 33.2478 30.1666 33.4252C29.9863 33.3045 29.8153 33.1916 29.6461 33.0762C29.4768 32.9607 29.3266 32.8154 29.1441 32.735C28.476 32.44 27.9356 31.9676 27.3766 31.5211C27.2856 31.4486 27.191 31.3793 27.0947 31.3138C26.7182 31.0596 26.3541 30.7835 25.9586 30.5626C25.6493 30.3901 25.2958 30.2992 24.9723 30.1495C24.7824 30.0595 24.6036 29.948 24.4394 29.8171C24.211 29.638 24.0064 29.4295 23.7828 29.2464C23.591 29.0874 23.39 28.939 23.1858 28.7964C23.0942 28.7391 22.9969 28.6913 22.8955 28.6537C22.5597 28.5097 22.2225 28.3692 21.8858 28.2269C21.8714 28.223 21.8583 28.2155 21.8478 28.205C21.6154 27.8717 21.2539 27.7431 20.9026 27.5824C20.7339 27.5047 20.5933 27.3405 20.4718 27.1912C20.2699 26.9471 20.0299 26.7811 19.7105 26.7741C19.5273 26.7699 19.351 26.7034 19.2111 26.5858C19.1427 26.5331 19.0132 26.5256 18.9208 26.5419C18.7537 26.568 18.5919 26.6209 18.4418 26.6986C18.2187 26.8277 17.9761 26.962 17.8166 27.1526C17.6345 27.3714 17.3984 27.5395 17.1312 27.6404C17.0429 27.6759 16.9492 27.6974 16.859 27.7282C16.5639 27.8327 16.2819 27.9516 16.2307 28.3147C16.2121 28.4464 16.1233 28.4903 15.9987 28.4934C15.9098 28.4929 15.821 28.5007 15.7336 28.5167C15.4525 28.5764 15.1715 28.6322 15.0531 28.9535C14.9572 29.2126 14.7146 29.3395 14.4787 29.3847C14.0876 29.4598 13.837 29.692 13.6254 29.987C13.5118 30.1451 13.3952 30.2434 13.1906 30.1912C12.9652 30.1332 12.8106 30.2189 12.7204 30.4292C12.6568 30.578 12.5216 30.6171 12.3828 30.6772C11.8968 30.8888 11.3948 31.0829 11.0943 31.5689C11.0572 31.6295 10.9375 31.6765 10.8615 31.6695C10.5782 31.644 10.3909 31.727 10.2914 32.0124C10.2627 32.0953 10.1337 32.1726 10.0365 32.1985C9.47617 32.3487 8.99497 32.5871 8.69714 33.1249C8.61451 33.2746 8.41434 33.3642 8.25792 33.4665C8.2345 33.4818 8.14303 33.4256 8.10459 33.383C7.85316 33.1073 7.61013 32.8246 7.35914 32.5489C7.30672 32.4879 7.24118 32.4395 7.16737 32.4071C6.55714 32.1748 6.14222 31.7125 5.74453 31.2291C5.6687 31.1395 5.5993 31.0447 5.53685 30.9455C5.3844 30.6961 5.15065 30.5907 4.8895 30.4696C4.56914 30.3207 4.30931 30.0446 4 29.8057C4.03286 29.7815 4.06827 29.7609 4.10561 29.7443C4.39813 29.7003 4.57974 29.5599 4.66635 29.2547C4.70117 29.1385 4.76097 29.0313 4.84162 28.9403C4.92226 28.8493 5.02182 28.7769 5.13341 28.7279C5.23504 28.6804 5.31016 28.579 5.40428 28.5114C5.52447 28.4236 5.64245 28.3191 5.77855 28.2774C5.92702 28.2335 6.03042 28.1773 6.06577 28.0214C6.10333 27.8555 6.20982 27.7694 6.37729 27.7255C6.53325 27.6841 6.68312 27.6227 6.82315 27.5429C6.92374 27.4891 7.00636 27.4073 7.06088 27.3076C7.22349 26.9528 7.47801 26.7298 7.87128 26.6854C8.01312 26.6696 8.08028 26.6042 8.09752 26.4685C8.12977 26.2157 8.27427 26.0734 8.50979 25.9601C8.91391 25.7545 9.30603 25.5265 9.6843 25.277C9.77621 25.2181 9.80493 25.0684 9.88093 24.9749C9.94854 24.8924 10.0303 24.7923 10.1248 24.7651C10.4708 24.6654 10.7558 24.5047 10.9357 24.178C10.9608 24.1407 10.9938 24.1093 11.0324 24.086C11.0711 24.0627 11.1144 24.0481 11.1593 24.0433C11.3952 24.034 11.5459 23.9282 11.6776 23.7359C11.8508 23.4852 12.0863 23.2969 12.3961 23.2271C12.5583 23.1915 12.6798 23.1129 12.7465 22.9637C12.8296 22.7762 12.9851 22.7156 13.1747 22.6699C13.2962 22.641 13.408 22.5461 13.5092 22.4631C13.8074 22.2182 14.0938 21.9587 14.3951 21.7168C14.4566 21.668 14.567 21.6852 14.6488 21.6557C14.7752 21.6118 14.9254 21.5802 15.0142 21.4924C15.1675 21.3396 15.3355 21.2672 15.5445 21.2764C15.6854 21.283 15.7654 21.2285 15.7897 21.0903C15.8392 20.8106 16.0239 20.7245 16.2886 20.6376C16.7388 20.4896 17.2205 20.3632 17.532 19.94C17.5895 19.8618 17.753 19.8333 17.8678 19.8306C18.0424 19.8271 18.1608 19.7705 18.2337 19.6146C18.3221 19.425 18.4498 19.3451 18.6822 19.3657C19.0406 19.3982 19.357 19.2827 19.5841 18.9705C19.6402 18.8937 19.7608 18.8529 19.8567 18.8173C20.0472 18.748 20.2434 18.6944 20.4365 18.6325C20.4643 18.6237 20.4873 18.5965 20.5147 18.593C20.8624 18.5491 21.155 18.4108 21.3542 18.11C21.3735 18.0874 21.401 18.0732 21.4307 18.0705C21.7232 18.0424 21.9543 17.9103 22.1492 17.6916C22.1934 17.6438 22.3096 17.638 22.3878 17.6477C22.9472 17.7276 23.4386 17.5669 23.8871 17.2451C23.9729 17.1882 24.0543 17.125 24.1306 17.0559C24.31 16.8759 24.511 16.832 24.7412 16.9637C24.8866 17.0471 24.9975 16.9948 25.074 16.8697C25.222 16.6287 25.4191 16.5861 25.6621 16.7077C25.8035 16.7784 25.9131 16.7341 26.0178 16.634C26.2829 16.3797 26.6046 16.3415 26.9572 16.3705C27.1135 16.3828 27.2701 16.3513 27.4093 16.2796C27.5714 16.1918 27.7159 16.1532 27.8843 16.2274C27.9529 16.2611 28.029 16.2767 28.1054 16.2727C28.1817 16.2687 28.2558 16.2452 28.3204 16.2046C28.4972 16.097 28.6739 16.1053 28.8675 16.1607C28.9753 16.1896 29.1282 16.1852 29.2174 16.1282C29.5228 15.9332 29.8281 15.9894 30.1237 16.1067C30.3204 16.1844 30.4967 16.2186 30.6902 16.1255C30.7284 16.1032 30.7718 16.0912 30.8161 16.0909C31.4202 16.1607 32.0362 16.083 32.6318 16.2933C33.1413 16.4728 33.6729 16.594 34.2 16.7182C34.3043 16.7433 34.432 16.6515 34.5535 16.6379C34.6849 16.6225 34.8176 16.6239 34.9486 16.6423C35.1134 16.6678 35.2738 16.7204 35.4346 16.7586C35.4991 16.774 35.5844 16.7586 35.6273 16.796C35.9216 17.0453 36.287 17.0594 36.6392 17.1086C36.8813 17.1432 37.0329 17.2842 37.1566 17.4743C37.2198 17.5709 37.3007 17.6284 37.4134 17.5621C37.7227 17.3808 37.9878 17.5147 38.2507 17.6732C38.4659 17.8049 38.6833 17.9015 38.9453 17.9186C39.0651 17.9265 39.1782 18.0464 39.2918 18.1192C39.3647 18.1662 39.4305 18.2611 39.503 18.2646C40.0469 18.2931 40.3965 18.6733 40.8078 18.9451C40.9608 19.0377 41.1239 19.1128 41.2939 19.169C41.8896 19.3912 42.5237 19.518 43.0694 19.8614C43.1604 19.9189 43.2315 20.0308 43.2762 20.1331C43.3592 20.3232 43.4949 20.4058 43.696 20.4277C43.8352 20.4393 43.9716 20.4739 44.0994 20.53C44.2589 20.6064 44.4273 20.6956 44.5413 20.8229C44.68 20.9761 44.8479 21.0068 45.0273 21.0455C45.0967 21.0604 45.189 21.0705 45.227 21.1175C45.6367 21.6303 46.2217 21.9078 46.7511 22.2616C47.2181 22.5738 47.6755 22.9 48.1372 23.2201C48.1492 23.2284 48.1607 23.2424 48.1735 23.2438C48.5579 23.2842 48.7625 23.5665 49.0131 23.8123C49.3144 24.1065 49.6706 24.3484 50.0179 24.5916C50.1177 24.6614 50.2675 24.6755 50.3966 24.6847C50.534 24.6948 50.6007 24.7571 50.6135 24.8818C50.6431 25.1663 50.7956 25.3134 51.0824 25.3608C51.1707 25.3753 51.2724 25.4715 51.3219 25.5566C51.4161 25.722 51.5684 25.847 51.7496 25.9079C51.8894 25.9665 52.0136 26.0567 52.1124 26.1713C52.4455 26.5454 52.8194 26.8501 53.3165 26.9822C53.366 26.9954 53.4393 27.0015 53.4583 27.0353C53.6576 27.3932 54.0942 27.5657 54.2135 27.9811C54.2634 28.1545 54.358 28.2274 54.5387 28.2774C55.0663 28.4236 55.4781 28.7164 55.6823 29.2574C55.745 29.4137 55.8895 29.5432 56 29.692ZM31.2739 28.1461C31.5187 28.2445 31.6601 28.1022 31.7525 27.8889C31.8497 27.6636 32.0538 27.571 32.2598 27.5025C32.3861 27.4586 32.5359 27.4805 32.6751 27.4823C32.7838 27.4823 32.8669 27.4643 32.8731 27.3361C32.8903 26.9796 33.1263 26.7653 33.375 26.5533C33.4957 26.4505 33.6402 26.3425 33.6954 26.2051C33.7895 25.9641 33.9163 25.7687 34.124 25.6142C34.1748 25.5764 34.2243 25.475 34.2093 25.421C34.0829 24.9653 34.1841 24.5574 34.4302 24.1666C34.4464 24.133 34.4548 24.0963 34.4548 24.0591C34.4548 24.0218 34.4464 23.9851 34.4302 23.9515C34.3065 23.732 34.2787 23.5019 34.276 23.2569C34.2725 22.9391 34.2084 22.6453 33.9636 22.399C33.8236 22.2581 33.6852 22.0658 33.6543 21.8788C33.5871 21.4836 33.3565 21.2088 33.1024 20.9309C32.9756 20.7921 32.8417 20.7048 32.6482 20.7197C32.5456 20.73 32.4421 20.7178 32.3448 20.6842C32.2474 20.6505 32.1587 20.5961 32.0848 20.5248C31.969 20.4146 31.8722 20.2828 31.7494 20.1814C31.6633 20.1149 31.5639 20.0676 31.4577 20.0427C31.2638 19.9935 31.0561 19.9865 30.8692 19.9198C30.7273 19.8693 30.604 19.8407 30.4715 19.9127C30.27 20.0221 30.0809 20.0137 29.9037 19.8658C29.7711 19.756 29.6598 19.7731 29.5427 19.893C29.4048 20.0348 29.2523 20.1208 29.0349 20.0427C28.7075 19.9255 28.4755 20.1204 28.3081 20.35C28.1543 20.5612 28.0071 20.7373 27.7296 20.7605C27.678 20.7644 27.6293 20.7858 27.5918 20.8211C27.2179 21.2224 26.716 21.4858 26.4204 21.9688C26.3346 22.1075 26.2604 22.2252 26.3086 22.3881C26.37 22.594 26.313 22.7678 26.1893 22.9395C26.1314 23.0199 26.0836 23.1437 26.1009 23.235C26.149 23.4909 26.1009 23.7065 25.933 23.9041C25.8888 23.955 25.8331 24.067 25.8534 24.0894C26.0889 24.3554 26.1296 24.6676 26.104 25.0008C26.104 25.007 26.1106 25.0135 26.1128 25.0206C26.2454 25.3977 26.389 25.7705 26.5003 26.1533C26.6687 26.7285 27.0602 27.1144 27.598 27.2948C27.9683 27.4182 28.2427 27.6193 28.5038 27.877C28.5922 27.9648 28.6832 28.0645 28.7928 28.1035C29.171 28.2388 29.5594 28.2932 29.9602 28.1861C30.0723 28.1523 30.1915 28.1489 30.3053 28.1764C30.5156 28.242 30.741 28.243 30.9518 28.1791C31.0468 28.1483 31.1542 28.1558 31.2739 28.1461Z" fill="#1F6D7D"/>
<path d="M33.0773 35.0013C33.1612 34.9377 33.2231 34.8657 33.3017 34.8358C33.6049 34.7199 33.8386 34.5513 33.9955 34.2466C34.0529 34.1356 34.2845 34.0886 34.4453 34.0583C34.9044 33.9705 35.2783 33.7404 35.6724 33.5025C36.0012 33.304 36.2854 33.0404 36.5071 32.728C36.6357 32.5524 36.7952 32.4707 37.0086 32.4865C37.1894 32.4997 37.318 32.4365 37.3847 32.2595C37.4554 32.0734 37.6056 31.9961 37.7921 31.9324C38.1367 31.8161 38.4836 31.6953 38.8053 31.5289C38.9555 31.4512 39.0656 31.2747 39.1637 31.1233C39.3258 30.8735 39.5304 30.7352 39.838 30.7075C40.1455 30.6798 40.4173 30.5587 40.5728 30.2377C40.6979 29.98 41.0328 29.9774 41.2387 30.1613C41.3342 30.2469 41.4928 30.2865 41.6271 30.2992C41.7783 30.3137 41.8953 30.3431 41.9652 30.4871C42.0465 30.657 42.2038 30.7176 42.3677 30.7944C42.6143 30.9112 42.837 31.0789 43.0663 31.23C43.2104 31.3244 43.346 31.4319 43.4905 31.5268C43.692 31.6585 43.9293 31.7529 44.0937 31.9219C44.3146 32.1458 44.5652 32.3061 44.8365 32.4571C45.2867 32.7078 45.6986 33.0305 46.2248 33.1297C46.3079 33.1455 46.4255 33.1859 46.4542 33.2482C46.6561 33.6873 47.1426 33.7922 47.4453 34.1114C47.6442 34.3204 47.9095 34.4548 48.1965 34.4921C48.7639 34.5759 49.1713 34.9043 49.4669 35.3794C49.5416 35.4997 49.4572 35.6933 49.3149 35.6867C48.9919 35.6709 48.8125 35.8342 48.6454 36.0818C48.565 36.2004 48.3905 36.2517 48.2756 36.3527C48.0938 36.5068 47.9225 36.6729 47.763 36.8497C47.5814 37.0587 47.3914 37.2308 47.1029 37.2848C46.9579 37.3116 46.8254 37.4016 46.6857 37.4604C46.205 37.6558 45.859 38.0786 45.3495 38.2318C45.243 38.2639 45.152 38.3811 45.0777 38.4773C44.699 38.9655 44.1759 39.214 43.5966 39.365C43.4035 39.4155 43.2391 39.4879 43.1317 39.6618C43.1002 39.7197 43.0513 39.7663 42.9918 39.7951C42.9323 39.824 42.8651 39.8335 42.7999 39.8225C42.6945 39.8081 42.5872 39.8207 42.4881 39.8591C42.389 39.8975 42.3015 39.9605 42.2338 40.042C42.1675 40.1153 42.0474 40.1412 41.951 40.1869C41.8547 40.2326 41.7685 40.2747 41.6766 40.3138C41.658 40.3244 41.6366 40.3293 41.6152 40.3278C41.3178 40.2554 40.9922 40.2132 40.8198 39.9217C40.6143 39.5705 40.3483 39.3395 39.9286 39.2891C39.8402 39.2781 39.7328 39.1903 39.6838 39.1082C39.5751 38.9255 39.439 38.8079 39.2229 38.782C39.1588 38.7741 39.0687 38.7622 39.0395 38.7192C38.7744 38.3324 38.3029 38.324 37.9441 38.1111C37.8937 38.0812 37.8208 38.0641 37.7961 38.0202C37.5707 37.6189 37.1187 37.4934 36.8023 37.2067C36.7864 37.1917 36.7683 37.168 36.7506 37.1676C36.2588 37.1492 35.972 36.707 35.5288 36.5854C35.444 36.5617 35.3693 36.4915 35.2973 36.434C34.9787 36.1789 34.6676 35.9141 34.3419 35.6691C34.2783 35.6213 34.1577 35.6252 34.068 35.6384C33.6349 35.6999 33.353 35.5001 33.155 35.1414C33.1369 35.1006 33.1131 35.0633 33.0773 35.0013Z" fill="#1F6D7D"/>
<path d="M27.2798 35.0479C26.8684 35.3166 26.4323 35.6033 25.994 35.8869C25.9423 35.9275 25.8817 35.9553 25.8172 35.9681C25.6812 35.9759 25.5485 36.0128 25.4282 36.0763C25.308 36.1398 25.2029 36.2284 25.1204 36.3361C25.0807 36.3791 25.0276 36.4076 24.9697 36.4168C24.7046 36.4585 24.5534 36.6087 24.4606 36.8607C24.3625 37.1263 24.097 37.2027 23.8526 37.2198C23.5694 37.2392 23.3449 37.3186 23.1682 37.5425C23.1209 37.6027 23.0325 37.6304 22.972 37.6808C22.8239 37.8069 22.6653 37.9254 22.5416 38.072C22.4492 38.1814 22.3648 38.2643 22.2172 38.2516C22.1068 38.2402 21.9952 38.2518 21.8895 38.2859C21.7839 38.3199 21.6866 38.3755 21.6039 38.4492C21.2601 38.7618 20.8152 38.9479 20.5386 39.3492C20.3808 39.5788 20.1037 39.6623 19.8178 39.6565C19.478 39.6495 19.2098 39.7883 18.9867 40.0332C18.7702 40.2708 18.5006 40.2673 18.2761 40.0332C18.1637 39.907 18.0417 39.7896 17.9112 39.682C17.8186 39.6062 17.7072 39.5567 17.5886 39.5389C17.406 39.5281 17.2319 39.4587 17.0924 39.3413C16.9483 39.2241 16.7685 39.1473 16.5983 39.0647C16.179 38.861 15.7557 38.6643 15.335 38.4632C15.3083 38.4505 15.2853 38.4311 15.2683 38.407C15.1061 38.162 14.879 38.0518 14.5847 38.0501C14.5171 38.0501 14.442 37.9891 14.385 37.939C14.2809 37.8465 14.1826 37.7476 14.0907 37.6431C13.9272 37.46 13.7217 37.3946 13.4836 37.3384C13.2538 37.284 13.0527 37.1123 12.8358 36.9986C12.6188 36.8849 12.477 36.725 12.4235 36.4897C12.4108 36.4141 12.3748 36.3442 12.3204 36.2898C12.266 36.2354 12.196 36.1991 12.1199 36.1859C11.9776 36.1525 11.8411 36.0792 11.6979 36.0669C11.4178 36.0432 11.2211 35.8913 11.0435 35.7016C10.7616 35.4026 10.8403 35.087 11.2265 34.9452C11.5508 34.8257 11.8729 34.7085 12.0819 34.4021C12.1213 34.3446 12.233 34.3143 12.3143 34.3103C12.5229 34.2945 12.6762 34.2225 12.7425 34.0104C12.796 33.8388 12.9069 33.7712 13.0938 33.8142C13.3148 33.8647 13.4783 33.7971 13.6042 33.589C13.6612 33.4941 13.8017 33.4173 13.9166 33.3962C14.1163 33.3589 14.2582 33.2869 14.3121 33.0832C14.3325 32.9974 14.3762 32.9188 14.4386 32.8561C14.5009 32.7933 14.5795 32.7489 14.6656 32.7275C14.6793 32.7232 14.6916 32.7144 14.7053 32.7091C15.3306 32.4611 15.9161 32.1823 16.3893 31.6589C16.6894 31.3274 17.1463 31.1365 17.5325 30.8827C17.5379 30.8776 17.5446 30.874 17.5519 30.8722C18.0119 30.8458 18.2929 30.4963 18.6482 30.279C18.8067 30.1877 18.9749 30.114 19.1497 30.0595C19.2094 30.0393 19.3296 30.0595 19.3561 30.0999C19.4794 30.2935 19.6628 30.2873 19.8444 30.2641C20.0149 30.2421 20.1095 30.2966 20.1422 30.4625C20.1864 30.7022 20.334 30.8375 20.5646 30.9108C20.6658 30.9433 20.7498 31.0258 20.8461 31.0776C20.9919 31.1562 21.1426 31.226 21.288 31.3033C21.4272 31.3771 21.5778 31.4385 21.6989 31.5355C21.9486 31.7366 22.2075 31.8986 22.5345 31.9487C22.6622 31.9734 22.7815 32.0297 22.8814 32.1125C23.1774 32.3509 23.4585 32.6077 23.7506 32.8509C23.8054 32.8989 23.8743 32.9282 23.9472 32.9343C24.2079 32.9383 24.3767 33.0691 24.5252 33.2702C24.6091 33.3844 24.7364 33.473 24.857 33.5538C25.1354 33.74 25.4597 33.8612 25.6692 34.1435C25.6946 34.1701 25.7291 34.1866 25.7659 34.1896C26.1318 34.2247 26.3523 34.4916 26.6205 34.6923C26.8211 34.8437 27.0673 34.9364 27.2798 35.0479Z" fill="#1F6D7D"/>
<path d="M38.0859 41.9593C37.7956 42.1609 37.5013 42.3865 37.1023 42.4058C36.9625 42.4176 36.8269 42.4589 36.7046 42.527C36.3281 42.7255 35.9375 42.6653 35.542 42.6302C35.432 42.6205 35.3065 42.6666 35.204 42.718C34.9441 42.8497 34.7002 43.0095 34.4373 43.1316C34.2318 43.2273 34.018 43.1755 33.8253 43.0653C33.7038 42.9959 33.6044 43.0069 33.5186 43.1153C33.356 43.3239 33.1651 43.3458 32.9522 43.2001C32.8196 43.1123 32.7052 43.1303 32.6022 43.2413C32.4254 43.4301 32.2222 43.4407 31.9836 43.3823C31.6703 43.3059 31.3535 43.2506 31.0313 43.3823C30.958 43.4134 30.8254 43.3722 30.7498 43.3208C30.4728 43.1311 30.1851 43.1386 29.8908 43.2497C29.7078 43.3226 29.5052 43.3314 29.3164 43.2747C29.1768 43.2352 29.0133 43.2629 28.8635 43.2813C28.5617 43.3182 28.2687 43.3423 27.9864 43.1808C27.8847 43.1224 27.7495 43.1232 27.6329 43.0929C27.3863 43.0288 27.1265 42.9924 26.8985 42.8883C26.5373 42.7172 26.1261 42.6811 25.7403 42.7865C25.4345 42.8664 25.18 42.754 24.9767 42.5648C24.7638 42.3663 24.5176 42.2917 24.2565 42.1907C23.6577 41.9589 23.0276 41.8658 22.4183 41.6867C22.3922 41.6792 22.3666 41.6682 22.3383 41.6581C22.3502 41.6362 22.3577 41.6142 22.3626 41.6142C22.6719 41.6581 22.8637 41.5146 23.0418 41.263C23.1509 41.1098 23.3661 41.0123 23.5526 40.9368C23.8819 40.809 24.1776 40.6085 24.4173 40.3502C24.6352 40.1136 24.8906 39.9358 25.2366 39.9437C25.5136 39.9503 25.7425 39.8159 25.9197 39.6337C26.3045 39.2419 26.7509 38.9148 27.2414 38.6652C27.4853 38.5383 27.6832 38.3276 27.9232 38.1884C28.0898 38.0918 28.2877 38.0426 28.4768 37.9895C28.7862 37.9017 29.0583 37.77 29.1838 37.4578C29.2634 37.2558 29.3959 37.1694 29.6036 37.2058C29.8113 37.2422 29.9182 37.1316 30.015 36.9678C30.1732 36.7009 30.46 36.7088 30.6456 36.9722C30.7468 37.1158 30.855 37.2545 30.9509 37.4007C31.0525 37.5557 31.186 37.6027 31.3649 37.5649C31.5563 37.5241 31.6906 37.6023 31.8152 37.7559C31.9051 37.8648 32.028 37.9418 32.1656 37.9754C32.5107 38.0448 32.7555 38.2174 32.8974 38.5365C33.0472 38.8746 33.3021 39.0471 33.6782 38.9989C33.866 38.9747 34.0074 39.023 34.12 39.1745C34.1477 39.2183 34.1866 39.254 34.2327 39.2781C34.8147 39.502 35.0944 40.1395 35.6971 40.3318C35.7042 40.334 35.7106 40.3383 35.7152 40.3441C35.911 40.6343 36.1726 40.7471 36.5216 40.6598C36.557 40.651 36.6432 40.7195 36.6542 40.766C36.7523 41.1265 37.0461 41.2599 37.3559 41.3583C37.5985 41.436 37.7894 41.551 37.9065 41.7846C37.9365 41.8575 38.0231 41.9036 38.0859 41.9593Z" fill="#1F6D7D"/>
</svg>
