<svg width="60" height="60" viewBox="0 0 60 60" fill="none" xmlns="http://www.w3.org/2000/svg">
<path d="M39.0637 31.0462C37.9626 29.0672 36.3507 27.8803 34.3237 27.3518C33.5752 27.158 32.7732 27.1625 31.9933 27.1302C31.7729 27.1205 31.5101 27.2497 31.3265 27.3977C30.1683 28.3326 29.3185 29.5395 28.6608 30.897C27.9853 32.2912 27.4007 33.7314 27.009 35.242C26.584 36.8818 26.1892 38.532 25.8423 40.1911C25.4879 41.8814 25.2368 43.5987 24.6602 45.2307C24.4066 45.9479 24.0885 46.6405 23.7974 47.3435C23.6875 47.6097 23.4904 47.5813 23.3006 47.4727C22.9322 47.2666 22.5822 47.0347 22.2156 46.8311C20.9475 46.1313 19.7724 45.2591 18.7203 44.237C17.281 42.8508 16.062 41.231 15.1096 39.4391C14.4261 38.1476 13.9048 36.7683 13.5585 35.3357C13.4173 34.7503 13.3491 34.1436 13.2791 33.5427C13.2668 33.4368 13.3841 33.2727 13.4842 33.1997C14.5895 32.3953 15.5898 31.4649 16.4207 30.3646C17.4081 29.0562 18.3292 27.691 19.2454 26.3258C20.1051 25.0465 21.0685 23.9009 22.4109 23.1599C23.1371 22.7586 23.9261 22.4981 24.74 22.391C26.4096 22.1649 27.9221 22.6443 29.359 23.4926C30.0117 23.8755 30.7378 24.0989 31.4837 24.1465C33.0354 24.2594 34.5254 24.8309 35.7821 25.7953C36.7849 26.5519 37.6556 27.4313 38.3249 28.5258C38.745 29.2126 39.044 29.9472 39.13 30.7664C39.141 30.842 39.0981 30.9254 39.0637 31.0462Z" fill="#1F6D7D"/>
<path d="M50.9495 32.4146C50.8457 33.1402 50.7401 33.8658 50.6425 34.5927C50.4196 36.1924 49.9387 37.7127 49.3406 39.1942C48.8771 40.3462 48.3143 41.4511 47.6593 42.4951C46.9158 43.6928 46.0533 44.8039 45.0864 45.8097C43.4174 47.5244 41.55 48.9626 39.4051 49.9667C38.7345 50.2788 38.0658 50.6128 37.3676 50.837C36.3575 51.16 35.3271 51.4256 34.2942 51.664C32.9771 51.967 31.6323 52.0323 30.2893 51.987C29.0025 51.9504 27.7218 51.7877 26.4637 51.5012C24.9447 51.1472 23.47 50.6084 22.0694 49.8956C21.0483 49.3787 20.0811 48.7288 19.1219 48.0865C17.9878 47.3267 16.9991 46.3692 16.0639 45.3593C14.7621 43.9521 13.6881 42.3672 12.7946 40.6428C12.1889 39.4684 11.6929 38.2351 11.3135 36.96C10.9739 35.8112 10.7283 34.654 10.654 33.4549C10.6202 32.9212 10.7633 32.644 11.2011 32.4657C11.5892 32.308 12.2008 32.4463 12.3814 32.8017C12.5152 33.064 12.5699 33.3832 12.6067 33.6849C12.8388 35.5767 13.4664 37.3283 14.2364 39.0411C14.8929 40.498 15.7397 41.8193 16.713 43.0469C17.5141 44.0598 18.4203 44.9752 19.4148 45.7761C20.8554 46.939 22.3888 47.9366 24.0965 48.5924C25.0658 48.956 26.0523 49.267 27.052 49.5241C28.6639 49.9505 30.3175 50.0203 31.9645 49.895C33.0446 49.8129 34.1254 49.601 35.1797 49.3348C36.1254 49.0964 37.0391 48.7139 37.9614 48.3766C39.0188 47.989 39.9688 47.381 40.8997 46.7394C42.1713 45.867 43.3276 44.8214 44.3385 43.6297C45.7078 42.0106 46.8119 40.2118 47.6016 38.1992C48.136 36.8444 48.5298 35.4329 48.7763 33.9892C48.8825 33.3618 48.9206 32.7215 48.9771 32.0851C49.0293 31.4965 49.3842 31.1961 49.9019 31.1955C50.4945 31.1955 50.9636 31.6251 50.8997 32.1142C50.8936 32.211 50.8936 32.3081 50.8997 32.405L50.9495 32.4146Z" fill="#1F6D7D"/>
<path d="M34.0068 40.9652C34.2525 40.5698 34.6209 40.3333 35.0237 40.164C35.5997 39.9237 36.1905 39.8739 36.8125 39.9508C37.3203 40.0154 37.8447 39.925 38.3624 39.9082C39.7232 39.8642 40.5049 40.6951 40.8801 41.9111C41.1742 42.8608 41.4499 43.8177 41.9817 44.6635C42.0136 44.7152 41.9633 44.8747 41.9049 44.931C40.9421 45.8549 39.8368 46.5598 38.6952 47.2052C38.3311 47.4113 37.9583 47.5987 37.5782 47.7764C37.2878 47.9127 37.2098 47.8552 37.2282 47.518C37.2835 46.5585 37.3701 45.6003 37.4124 44.6402C37.4548 43.6801 37.3989 42.7394 37.1238 41.8154C36.896 41.0518 36.5349 40.7171 35.7526 40.6434C35.1846 40.5866 34.9556 40.573 34.0068 40.9652Z" fill="#1F6D7D"/>
<path d="M42.589 44.2519C42.3557 43.7531 42.1119 43.2899 41.9203 42.804C41.7404 42.3465 41.6329 41.8581 41.461 41.3961C41.3381 41.0487 41.18 40.7162 40.9894 40.4044C40.7985 40.0957 40.6684 39.7499 40.6068 39.3874C40.4748 38.72 40.2427 38.0713 39.7864 37.5699C39.6304 37.398 39.351 37.2979 39.1159 37.2695C38.3937 37.1803 37.7084 37.3341 37.098 37.7863L37.0366 37.6991C37.2473 37.4801 37.4315 37.2184 37.674 37.0498C38.355 36.5788 39.0913 36.3391 39.9338 36.4509C40.2568 36.4941 40.6093 36.3585 40.939 36.2712C42.3857 35.8894 43.3904 36.5768 43.9971 37.8865C44.3287 38.6011 44.6903 39.3008 45.0526 39.9986C45.1461 40.1641 45.2641 40.3128 45.402 40.4392C45.5248 40.5568 45.5353 40.6615 45.4499 40.7965C44.6963 42.0027 43.81 43.1111 42.8095 44.0988C42.7391 44.1546 42.6655 44.2058 42.589 44.2519Z" fill="#1F6D7D"/>
<path d="M39.5893 34.3C40.0541 33.4684 40.6633 32.9251 41.4726 32.7493C42.2513 32.5788 43.0311 32.4482 43.7944 32.1853C44.7309 31.8622 45.8921 32.4482 46.4785 33.4284C46.8334 34.0209 47.1951 34.6095 47.5758 35.1838C47.7244 35.4074 47.6575 35.5961 47.6065 35.8157C47.3548 36.898 46.5196 39.0269 45.9602 39.8733C45.8947 39.8182 45.8331 39.7582 45.776 39.6936C45.2147 38.9623 44.8819 38.0984 44.4865 37.2682C44.3022 36.8766 44.0069 36.542 43.7692 36.1769C43.6348 35.9702 43.4726 35.7692 43.4008 35.5386C43.2109 34.9192 42.9022 34.3474 42.4938 33.8587C42.1942 33.5072 41.8245 33.4743 41.4346 33.5195C40.8119 33.5912 40.2384 33.8089 39.7545 34.2463C39.7312 34.2664 39.698 34.2664 39.5893 34.3Z" fill="#1F6D7D"/>
<path d="M14.3728 22.7955C14.3611 22.9731 14.3826 23.092 14.3427 23.1799C14.0866 23.7388 13.817 24.2912 13.5272 24.8972C13.4615 24.7751 13.3682 24.6814 13.3675 24.5878C13.3675 24.2737 13.1692 24.1258 12.9494 24.0121C11.6875 23.3576 10.4213 22.7128 9.1569 22.0641C9.03839 22.0033 8.91926 21.9433 8.80566 21.8748C8.42617 21.646 8.08659 21.6486 7.7421 22.0686C7.72429 21.9542 7.66166 21.8205 7.69666 21.7287C7.84956 21.3282 7.96992 20.9315 7.94597 20.4869C7.93062 20.1975 8.11115 20.3009 8.253 20.3765C8.92069 20.731 9.58961 21.0848 10.2598 21.438C10.2954 21.4567 10.3353 21.4677 10.4587 21.5149C10.436 21.1718 10.4655 20.8539 10.3856 20.5703C10.2567 20.1135 10.4335 19.7866 10.7191 19.5171C11.0304 19.2238 11.4056 19.2374 11.7747 19.4241C12.4937 19.7879 13.2085 20.1632 13.9331 20.5134C14.4016 20.7402 14.8757 21.1692 15.3872 20.5037L15.4369 20.5819C15.429 20.6976 15.4529 20.83 15.4075 20.9263C15.1618 21.4374 14.9027 21.9394 14.635 22.4711C14.5975 22.4349 14.5195 22.3968 14.5079 22.3419C14.4268 21.9601 14.1394 21.803 13.8477 21.6538C13.1643 21.3068 12.4851 20.9495 11.7931 20.62C11.3749 20.4217 11.0789 20.485 10.9082 20.7493C10.7443 21.0006 10.8222 21.5621 11.0973 21.8063C11.3107 21.9849 11.5432 22.1367 11.79 22.2586C12.2782 22.517 12.7725 22.7657 13.273 22.9925C13.8195 23.2368 13.825 23.2238 14.3728 22.7955Z" fill="#1F6D7D"/>
<path d="M21.6279 14.4375C21.5763 14.5331 21.5469 14.6701 21.4683 14.7179C20.9125 15.0597 20.347 15.3827 19.7685 15.7213C19.7507 15.6605 19.7035 15.5875 19.7219 15.5494C19.935 15.1036 19.7219 14.734 19.5223 14.378C18.8923 13.2726 18.2389 12.1813 17.6187 11.0719C17.4007 10.6843 17.141 10.4665 16.611 10.6423C16.6884 10.4555 16.7019 10.3192 16.7695 10.2733C17.5358 9.76292 18.2911 9.22859 19.0882 8.77503C20.0093 8.25039 20.9568 8.8041 21.1686 9.89214C21.3602 10.8768 20.8708 11.9422 20.0271 12.2711C19.701 12.4003 19.6912 12.4979 19.8693 12.8261C20.0645 13.1853 20.2567 13.5465 20.4655 13.8967C20.721 14.3257 21.0433 14.6203 21.5899 14.3593L21.6279 14.4375ZM20.4643 10.953C20.3752 10.6946 20.3273 10.4123 20.191 10.1874C19.7649 9.48574 19.3786 9.28286 18.643 9.74418C18.3636 9.91863 18.3218 10.1028 18.4894 10.411C18.6737 10.7527 18.8536 11.0991 19.0495 11.4344C19.1262 11.5636 19.222 11.7452 19.3418 11.7813C19.7606 11.9067 20.5171 11.4208 20.4643 10.953Z" fill="#1F6D7D"/>
<path d="M29.5623 12.3635C29.5887 12.286 29.5917 12.2233 29.6237 12.1929C29.9307 11.888 29.8932 11.4919 29.8693 11.1113C29.822 10.4084 29.7581 9.70606 29.6887 9.00439C29.6587 8.70008 29.6458 8.37186 29.3443 8.19612C28.9273 7.95318 28.3458 8.38995 28.3225 8.97144C28.3126 9.28287 28.3206 9.59464 28.3464 9.90506C28.379 10.3386 28.4281 10.7708 28.4747 11.2037C28.5497 11.9015 28.5687 11.9287 29.2049 12.2801C29.0685 12.3512 28.9758 12.4352 28.877 12.4449C28.4324 12.4895 27.9853 12.5095 27.5401 12.5457C27.4419 12.5534 27.3455 12.5896 27.2472 12.5974C27.1858 12.6032 27.1183 12.5819 26.9549 12.558C27.6396 12.0411 27.41 11.3775 27.3977 10.7799C27.3848 10.1519 27.2749 9.52645 27.2454 8.89843C27.2257 8.51077 27.1576 8.19418 26.7197 8.10114L26.7155 8.00875C26.8193 7.93582 26.928 7.87104 27.0409 7.81492C27.3105 7.7025 27.5936 7.62109 27.8582 7.49768C28.0946 7.38978 28.1966 7.43307 28.2217 7.70185C28.2291 7.78649 28.2316 7.87178 28.2389 8.01521C28.3587 7.97192 28.4649 7.95642 28.546 7.9002C28.7157 7.78259 28.8767 7.65148 29.0274 7.50802C29.3498 7.19789 29.7201 7.21275 30.0811 7.36135C30.4422 7.50996 30.5785 7.84076 30.6148 8.22842C30.7044 9.17367 30.7849 10.1196 30.8788 11.0642C30.9181 11.4609 30.95 11.875 31.4499 11.9584C31.4732 11.9623 31.4953 12.0876 31.4861 12.1522C31.4812 12.1877 31.4112 12.2362 31.3682 12.2394C30.7763 12.284 30.1837 12.3208 29.5623 12.3635Z" fill="#1F6D7D"/>
<path d="M21.2177 9.38043C21.3768 9.25961 21.4849 9.15235 21.612 9.08516C21.9012 8.93397 22.2051 8.81379 22.4925 8.66002C22.7486 8.52369 22.8204 8.55858 22.8917 8.84675C23.1467 9.87405 23.4085 10.8996 23.6771 11.9235C23.724 12.0856 23.7926 12.2398 23.8809 12.3816C24.0805 12.7175 24.3673 12.7324 24.6258 12.43C25.0139 11.9778 25.0292 11.457 24.8757 10.9026C24.7345 10.3929 24.6061 9.87922 24.4674 9.36944C24.3525 8.94883 24.1045 8.70848 23.6433 8.77374L23.6187 8.68587C23.7059 8.60833 23.7833 8.50948 23.8828 8.45715C24.1984 8.29174 24.5269 8.15283 24.8426 7.98614C25.0605 7.87048 25.1496 7.89633 25.2177 8.17286C25.4885 9.27124 25.7851 10.3696 26.0774 11.4602C26.1677 11.7949 26.3231 12.0624 26.7277 11.9358C26.7609 11.9254 26.8039 11.9526 26.8941 11.9752C26.7217 12.4015 26.4249 12.7592 26.0467 12.9967C25.9651 13.0471 25.7649 12.9747 25.6703 12.8926C25.5094 12.7531 25.3891 12.5618 25.2122 12.3441C25.0532 12.5825 24.8874 12.7964 24.7615 13.0296C24.5159 13.4858 24.156 13.6757 23.6746 13.5995C23.1932 13.5232 22.9482 13.1569 22.8198 12.7066C22.5742 11.8227 22.3525 10.9304 22.121 10.0414C22.0222 9.66277 21.8318 9.40886 21.4118 9.4599C21.3774 9.46571 21.3381 9.43276 21.2177 9.38043Z" fill="#1F6D7D"/>
<path d="M39.5991 14.6022C38.9544 14.4485 38.4146 14.0078 37.7883 13.8547C37.7932 13.7823 37.7913 13.7649 37.7956 13.7629C38.5264 13.4289 38.6246 12.6432 38.9218 12.0036C39.1109 11.5946 39.2853 11.1759 39.4346 10.7495C39.6188 10.2268 39.5389 9.94383 39.2172 9.78036C38.9372 9.63693 38.4005 9.81267 38.2187 10.168C37.9522 10.6927 37.7275 11.2425 37.5003 11.7865C37.3817 12.0669 37.2982 12.3641 37.1797 12.6445C37.0323 12.9934 37.2688 13.2008 37.4689 13.4845C37.3461 13.5103 37.2448 13.5691 37.1803 13.5394C36.6092 13.281 36.0449 13.0076 35.4609 12.7285C35.5021 12.6885 35.531 12.6361 35.5703 12.6252C36.021 12.5037 36.2291 12.1457 36.3992 11.7303C36.6921 11.0196 37.0096 10.3147 37.3031 9.60139C37.4462 9.25314 37.5598 8.89068 37.1803 8.56375L37.2602 8.49914L38.7812 8.74531L38.5564 9.37784C38.8844 9.33585 39.1576 9.31323 39.4241 9.26348C40.0634 9.13426 40.5196 9.41015 40.6449 10.0666C40.6823 10.2656 40.6197 10.5085 40.5423 10.7056C40.2574 11.4344 39.9436 12.1509 39.6476 12.8746C39.5549 13.1007 39.4843 13.3365 39.402 13.5672C39.2933 13.8754 39.2952 14.1538 39.5801 14.3664C39.6151 14.3929 39.6274 14.4523 39.6501 14.4956L39.5991 14.6022Z" fill="#1F6D7D"/>
<path d="M12.2211 30.9538C12.1388 30.8931 12.0835 30.8737 12.062 30.8336C11.6795 30.1197 10.9684 29.8257 10.3727 29.3941C9.7986 28.9774 9.18024 28.6259 8.57907 28.2512C8.21063 28.0237 7.84219 27.8053 7.47375 27.5831C7.44838 27.5637 7.41884 27.5513 7.38778 27.5469C6.91496 27.5669 6.90022 27.1974 6.84495 26.853C6.81179 26.6495 6.75653 26.4505 6.71538 26.2657C7.25822 26.2237 7.75929 26.2011 8.26037 26.1429C9.16673 26.0395 10.0712 25.9207 10.9758 25.7979C11.4572 25.7333 11.9411 25.6719 12.4133 25.5588C12.6589 25.5001 12.8812 25.3327 13.1145 25.2145C13.1827 25.1802 13.2515 25.1499 13.3203 25.1137C13.3553 25.1964 13.4197 25.2797 13.4185 25.3624C13.4063 25.4986 13.3814 25.6332 13.3442 25.7643C13.2466 26.2424 13.1495 26.7205 13.0482 27.198C13.0203 27.2963 12.9873 27.393 12.9494 27.4875C12.8499 27.3686 12.7535 27.2975 12.7166 27.2012C12.6055 26.9079 12.3832 26.7968 12.1173 26.7974C11.6997 26.7974 11.2822 26.8317 10.8652 26.862C10.638 26.8782 10.5453 27.0559 10.4968 27.2607C10.4059 27.6529 10.307 28.0457 10.2463 28.4437C10.2291 28.5535 10.3021 28.7403 10.3887 28.7939C10.7707 29.031 11.1686 29.2403 11.5677 29.4439C11.887 29.606 12.1548 29.5324 12.3408 29.199C12.358 29.1733 12.3787 29.1504 12.4022 29.1312C12.4386 29.1208 12.4758 29.114 12.5134 29.1111C12.5195 29.2494 12.5508 29.3883 12.5263 29.5156C12.4397 29.9808 12.3322 30.4427 12.2211 30.9538ZM8.11484 27.2523C8.12957 27.3221 8.12712 27.3537 8.1394 27.3615C8.59258 27.66 9.0433 27.963 9.50753 28.2415C9.55297 28.2686 9.73719 28.1594 9.76237 28.0799C9.84192 27.8047 9.90347 27.5241 9.94659 27.24C9.98835 27.0048 9.84711 26.9667 9.66842 26.988C9.29507 27.032 8.9211 27.0688 8.54959 27.1237C8.40205 27.1561 8.25679 27.199 8.11484 27.2523Z" fill="#1F6D7D"/>
<path d="M32.3955 8.53209C32.5251 8.09791 32.6412 7.65985 32.7947 7.23472C32.818 7.17011 32.9918 7.11713 33.0882 7.12811C33.3449 7.15848 33.596 7.23343 33.8509 7.27801C34.1493 7.3297 34.4613 7.32776 34.7462 7.42209C35.4646 7.65985 35.7017 8.23553 35.5076 9.14912C35.3713 9.79221 35.2409 10.4366 35.1165 11.0823C35.0983 11.2205 35.0915 11.3602 35.0962 11.4996C35.0901 11.7891 35.1834 11.9816 35.4996 11.9661C35.5477 11.973 35.5944 11.9881 35.6378 12.0107C35.515 12.3939 34.8223 12.7938 34.4864 12.6852C34.2408 12.6064 34.1536 12.4035 34.1014 12.1632C34.0099 11.7387 33.9927 11.7329 33.6347 11.9364C33.5517 11.9766 33.4715 12.0228 33.3946 12.0747C32.9095 12.4455 32.5871 12.3706 32.1818 12.1147C31.7606 11.8492 31.5678 11.2748 31.6728 10.7993C31.8914 9.80427 32.5736 9.42178 33.5095 9.35781C33.7336 9.34231 33.9632 9.38043 34.1849 9.34295C34.2912 9.32422 34.3992 9.20275 34.4699 9.10002C34.5245 9.02184 34.5343 8.90102 34.5423 8.797C34.5859 8.26396 34.4447 7.99454 34.0431 7.82784C33.69 7.67988 33.1932 7.85627 32.896 8.21873C32.7732 8.36669 32.627 8.49203 32.4913 8.62772L32.3955 8.53209ZM34.2918 10.0323C34.3194 9.82882 34.2592 9.73449 34.0461 9.73643C33.4935 9.74289 33.0692 9.96321 32.81 10.4924C32.6418 10.8355 32.6799 11.2212 32.9046 11.4357C33.1183 11.6398 33.4155 11.6256 33.7379 11.3872C34.1855 11.0551 34.1819 10.5163 34.2918 10.0323Z" fill="#1F6D7D"/>
<path d="M17.6519 16.7854C17.7059 16.9347 17.7624 17.0316 17.7747 17.1343C17.7867 17.3063 17.7886 17.4789 17.7802 17.6512C17.7728 18.2288 17.4609 18.4666 16.9396 18.2973C16.6104 18.1894 16.5607 18.2217 16.5637 18.5758C16.5637 18.809 16.6325 19.0507 16.5951 19.2748C16.463 20.076 15.4928 20.434 14.8081 19.9584C14.5016 19.7455 14.2748 19.4273 14.1662 19.058C14.0577 18.6888 14.0743 18.2914 14.2131 17.9335C14.3359 17.6105 14.4919 17.3004 14.643 16.9889C14.7572 16.7525 14.7995 16.5451 14.5201 16.4042C14.4696 16.3681 14.4217 16.3279 14.3771 16.284C14.1431 16.1154 13.8975 15.9494 13.6064 16.0999C13.2828 16.2679 13.0194 16.5057 13.0593 16.9398C13.082 17.1815 13.1336 17.4199 13.1741 17.6596C13.1999 17.8114 13.23 17.9626 13.2736 18.1939C13.1459 18.1157 13.0783 18.0931 13.0359 18.046C12.7811 17.7565 12.5355 17.4574 12.2782 17.1705C12.172 17.0523 12.1247 16.9618 12.2493 16.8184C12.4489 16.5877 12.6343 16.3435 12.8192 16.0993C12.9702 15.9003 13.0949 15.6754 13.2607 15.4919C13.7348 14.9673 14.3267 14.9104 14.8689 15.3536C15.4597 15.8389 16.0258 16.3577 16.603 16.8617C16.6571 16.9082 16.7137 16.9513 16.7725 16.9909C17.1815 17.2739 17.284 17.2545 17.6519 16.7854ZM15.1379 16.954C14.5754 17.5898 14.6466 18.4401 15.1434 18.8775C15.4369 19.1359 15.7231 19.1702 15.9417 18.9964C16.1873 18.8025 16.2524 18.4659 16.1333 18.1035C15.9613 17.5717 15.5217 17.3081 15.1379 16.954Z" fill="#1F6D7D"/>
<path d="M43.1245 16.4869C42.8463 16.7932 42.0032 16.7899 41.8153 16.4359C41.7152 16.2485 41.7299 15.959 41.7735 15.7323C41.8196 15.4906 41.7735 15.4092 41.5512 15.4196C41.3775 15.426 41.2024 15.415 41.0305 15.4338C40.589 15.4816 40.2814 15.2697 40.0818 14.8826C39.8552 14.4446 39.8976 13.9988 40.1432 13.5827C40.5921 12.8319 41.3965 12.6781 42.1082 12.9657C42.4085 13.094 42.7015 13.2405 42.9857 13.4044C43.1957 13.52 43.367 13.5491 43.4911 13.2861C43.5274 13.2223 43.5685 13.1616 43.6139 13.1046C43.8896 12.7014 43.9092 12.4003 43.682 12.0779C43.5617 11.9048 43.3912 11.7776 43.1961 11.7154C43.0011 11.6532 42.7921 11.6593 42.6007 11.7329C42.4695 11.7882 42.3347 11.8333 42.1972 11.8679C42.0885 11.8905 41.9725 11.8724 41.7834 11.8724C42.1837 11.4777 42.5116 11.1456 42.8531 10.829C42.893 10.7922 43.06 10.818 43.0766 10.8574C43.2239 11.2063 43.5482 11.3097 43.822 11.4822C44.1979 11.7206 44.5687 11.9719 44.7284 12.4326C44.9255 13.0005 44.667 13.4476 44.3446 13.865C43.9234 14.4116 43.4769 14.9376 43.0692 15.4951C42.7149 15.9881 42.7352 16.0611 43.1245 16.4869ZM42.9636 13.9025C42.5264 13.4024 41.6071 13.3094 41.1527 13.9626C40.9832 14.2062 40.9071 14.4588 41.0637 14.7379C41.2067 14.9905 41.5058 15.0842 41.8153 15.0009C42.3796 14.8497 42.6596 14.3787 42.9667 13.9044L42.9636 13.9025Z" fill="#1F6D7D"/>
<path d="M51.3253 29.3289C50.4398 29.2642 49.698 28.8734 49.1521 28.1239C48.5712 27.3266 48.8611 26.3716 49.6661 25.8108C50.6382 25.1331 51.6974 24.9276 52.7831 25.5588C53.3265 25.8754 53.8221 26.2379 53.9664 26.9551C54.072 27.4778 53.9216 27.9016 53.6158 28.2783C53.0213 29.0103 52.2145 29.2507 51.3253 29.3289ZM50.7468 28.4708C50.7554 28.498 50.764 28.5258 50.772 28.5529C51.1908 28.4133 51.6237 28.3087 52.0241 28.1239C52.4693 27.9184 52.893 27.6509 53.068 27.1127C53.2252 26.6178 52.9084 26.0505 52.4288 26.0215C52.0078 25.9896 51.5852 26.0522 51.1889 26.2051C50.7927 26.3581 50.4319 26.5978 50.1303 26.9086C49.7674 27.2697 49.7005 27.6322 49.9007 28.0619C50.0689 28.4327 50.3968 28.4941 50.7468 28.4708Z" fill="#1F6D7D"/>
<path d="M49.8571 25.2978C49.652 25.283 49.4328 25.3095 49.243 25.2429C48.9576 25.1365 48.6835 24.9992 48.4251 24.8333C47.73 24.3991 47.5445 23.448 47.8822 22.7011C48.3667 21.6331 49.2712 21.2461 50.3145 21.104C50.6188 21.0568 50.929 21.0747 51.2266 21.1566C51.5241 21.2385 51.8029 21.3828 52.0462 21.5808C52.8629 22.2269 52.8905 23.4597 52.0726 24.1303C51.8777 24.2836 51.6673 24.4137 51.445 24.518C51.2117 24.6343 51.0152 24.5684 50.9083 24.3022C50.7518 23.9016 50.6013 23.4971 50.449 23.0953C50.3925 22.9479 50.3262 22.8052 50.2648 22.6585C50.099 22.2366 50.0321 22.2062 49.6661 22.4143C49.3142 22.6133 48.9839 22.8446 48.7941 23.2303C48.4668 23.8964 48.7401 24.6472 49.4211 24.9786C49.5666 25.0491 49.7164 25.1111 49.8644 25.1764C49.8638 25.2209 49.8608 25.2584 49.8571 25.2978ZM51.3087 21.8567C51.0919 21.9342 50.7321 21.9639 50.6904 22.1009C50.6234 22.3232 50.7321 22.6288 50.8273 22.873C50.9004 23.0591 51.0422 23.2994 51.2 23.3479C51.5292 23.45 52.0161 22.9699 52.0425 22.59C52.0689 22.2101 51.7478 21.9051 51.3087 21.8567Z" fill="#1F6D7D"/>
<path d="M48.5546 21.2403C48.5045 21.3018 48.4478 21.3571 48.3858 21.4051C48.0358 21.6176 47.679 21.8186 47.3296 22.0324C47.0299 22.2153 46.9482 22.17 46.7481 21.8651C46.2015 21.031 45.6311 20.2143 45.0723 19.3892C44.9857 19.26 44.9102 19.1269 44.8113 18.9654C44.8967 18.9369 44.9476 18.9008 44.9826 18.9117C45.4776 19.0881 45.8423 18.7941 46.1997 18.5241C47.0897 17.8539 47.9746 17.177 48.8543 16.4934C49.2393 16.1955 49.6176 15.8841 49.407 15.1902C49.5826 15.2845 49.7023 15.3091 49.7564 15.384C50.1125 15.886 50.4546 16.3997 50.823 16.9424C50.7358 16.9547 50.6504 16.996 50.5927 16.9702C50.1745 16.7841 49.8638 17.0393 49.5666 17.2629C48.5927 17.9936 47.6299 18.7405 46.6695 19.4906C46.2562 19.8137 46.2445 19.921 46.508 20.3913C46.5725 20.5121 46.6442 20.6284 46.7229 20.7396C47.0858 21.2332 47.4309 21.3391 48.0081 21.175C48.1751 21.1279 48.3575 21.1401 48.5325 21.1246C48.5411 21.1641 48.5485 21.2022 48.5546 21.2403Z" fill="#1F6D7D"/>
<path d="M21.5493 8.4145C21.4879 8.32211 21.3848 8.22455 21.359 8.10825C21.3448 8.04364 21.4406 7.88922 21.5125 7.8679C22.5183 7.56552 23.526 7.27348 24.5392 7.00083C24.5939 6.98661 24.7326 7.15848 24.764 7.26573C24.7836 7.33034 24.6921 7.49897 24.6215 7.52417C24.1032 7.6941 23.5776 7.84206 23.055 7.9926C22.6356 8.11277 22.215 8.22584 21.795 8.34279C21.7372 8.35765 21.6795 8.37574 21.5493 8.4145Z" fill="#1F6D7D"/>
<path d="M6.09088 28.9037C6.19056 28.964 6.2858 29.032 6.37581 29.1072C6.71784 29.4368 7.08382 29.546 7.50384 29.272C7.5456 29.2449 7.59779 29.2345 7.64139 29.2074C7.895 29.0569 8.10931 29.0652 8.30827 29.3276C8.68162 29.8205 8.58214 30.1804 7.97974 30.2638C7.71078 30.3006 7.39208 30.2134 7.14584 30.0803C6.80872 29.8981 6.50906 29.628 6.21431 29.3734C6.11176 29.2843 6.06939 29.1189 6 28.9858L6.09088 28.9037Z" fill="#1F6D7D"/>
</svg>
