<svg xmlns="http://www.w3.org/2000/svg" xmlns:xlink="http://www.w3.org/1999/xlink" width="215" height="72" viewBox="0 0 215 72"><defs><style>.cls-1{fill:#231f20;}.cls-2{fill:#008d9c;}.cls-3{fill:url(#linear-gradient);}.cls-4{fill:url(#linear-gradient-2);}.cls-5{fill:url(#linear-gradient-3);}.cls-6{fill:url(#linear-gradient-4);}.cls-7{opacity:0.5;}.cls-8{fill:url(#radial-gradient);}.cls-9{fill:url(#radial-gradient-2);}.cls-10{fill:url(#radial-gradient-3);}.cls-11{fill:url(#radial-gradient-4);}.cls-12{fill:url(#radial-gradient-5);}.cls-13{fill:url(#radial-gradient-6);}.cls-14{fill:url(#radial-gradient-7);}.cls-15{fill:url(#radial-gradient-8);}.cls-16{fill:url(#radial-gradient-9);}.cls-17{fill:url(#radial-gradient-10);}.cls-18{fill:url(#radial-gradient-11);}.cls-19{fill:url(#radial-gradient-12);}.cls-20{fill:url(#radial-gradient-13);}.cls-21{fill:url(#radial-gradient-14);}.cls-22{fill:url(#radial-gradient-15);}.cls-23{fill:url(#radial-gradient-16);}.cls-24{fill:url(#radial-gradient-17);}.cls-25{fill:url(#radial-gradient-18);}.cls-26{fill:url(#radial-gradient-19);}.cls-27{fill:url(#radial-gradient-20);}.cls-28{fill:url(#radial-gradient-21);}.cls-29{fill:url(#radial-gradient-22);}.cls-30{fill:url(#radial-gradient-23);}.cls-31{fill:url(#radial-gradient-24);}.cls-32{fill:url(#radial-gradient-25);}.cls-33{fill:url(#radial-gradient-26);}.cls-34{fill:url(#radial-gradient-27);}.cls-35{fill:url(#radial-gradient-28);}.cls-36{fill:url(#radial-gradient-29);}.cls-37{fill:url(#radial-gradient-30);}.cls-38{fill:url(#radial-gradient-31);}.cls-39{fill:url(#radial-gradient-32);}.cls-40{fill:url(#radial-gradient-33);}.cls-41{fill:url(#radial-gradient-34);}.cls-42{fill:url(#radial-gradient-35);}.cls-43{fill:url(#radial-gradient-36);}.cls-44{fill:url(#radial-gradient-37);}.cls-45{fill:url(#radial-gradient-38);}.cls-46{fill:url(#radial-gradient-39);}.cls-47{fill:url(#radial-gradient-40);}.cls-48{fill:url(#radial-gradient-41);}.cls-49{fill:url(#radial-gradient-42);}.cls-50{fill:url(#radial-gradient-43);}.cls-51{fill:url(#radial-gradient-44);}.cls-52{fill:url(#radial-gradient-45);}.cls-53{fill:url(#radial-gradient-46);}.cls-54{fill:url(#radial-gradient-47);}.cls-55{fill:url(#radial-gradient-48);}.cls-56{fill:url(#radial-gradient-49);}.cls-57{fill:url(#radial-gradient-50);}.cls-58{fill:url(#radial-gradient-51);}.cls-59{fill:url(#radial-gradient-52);}.cls-60{fill:url(#radial-gradient-53);}.cls-61{fill:url(#radial-gradient-54);}.cls-62{fill:url(#radial-gradient-55);}.cls-63{fill:url(#radial-gradient-56);}.cls-64{fill:url(#radial-gradient-57);}.cls-65{fill:url(#radial-gradient-58);}.cls-66{fill:url(#radial-gradient-59);}.cls-67{fill:url(#radial-gradient-60);}.cls-68{fill:url(#radial-gradient-61);}.cls-69{fill:url(#radial-gradient-62);}.cls-70{fill:url(#radial-gradient-63);}.cls-71{fill:url(#radial-gradient-64);}.cls-72{fill:url(#radial-gradient-65);}.cls-73{fill:url(#radial-gradient-66);}.cls-74{fill:url(#radial-gradient-67);}.cls-75{fill:url(#radial-gradient-68);}.cls-76{fill:url(#radial-gradient-69);}</style><linearGradient id="linear-gradient" x1="11.1" y1="16.06" x2="20.02" y2="16.06" gradientUnits="userSpaceOnUse"><stop offset="0" stop-color="#008c9c"/><stop offset="1" stop-color="#4fb5be"/></linearGradient><linearGradient id="linear-gradient-2" x1="13.84" y1="13.48" x2="21.37" y2="13.48" xlink:href="#linear-gradient"/><linearGradient id="linear-gradient-3" x1="0" y1="41.98" x2="69.51" y2="41.98" xlink:href="#linear-gradient"/><linearGradient id="linear-gradient-4" x1="15.82" y1="6.94" x2="26.65" y2="6.94" xlink:href="#linear-gradient"/><radialGradient id="radial-gradient" cx="10.71" cy="21.77" r="0.29" gradientUnits="userSpaceOnUse"><stop offset="0" stop-color="#8fd3d0"/><stop offset="0.2" stop-color="#8ad1cf"/><stop offset="0.43" stop-color="#7dcacb"/><stop offset="0.68" stop-color="#66bfc4"/><stop offset="0.92" stop-color="#47b0ba"/><stop offset="1" stop-color="#3cabb7"/></radialGradient><radialGradient id="radial-gradient-2" cx="51.18" cy="45.59" r="0.04" xlink:href="#radial-gradient"/><radialGradient id="radial-gradient-3" cx="50.12" cy="45.74" r="0.11" xlink:href="#radial-gradient"/><radialGradient id="radial-gradient-4" cx="39.31" cy="12.73" r="0.04" xlink:href="#radial-gradient"/><radialGradient id="radial-gradient-5" cx="51.9" cy="40.61" r="0.71" xlink:href="#radial-gradient"/><radialGradient id="radial-gradient-6" cx="36.6" cy="42.01" r="30.98" xlink:href="#radial-gradient"/><radialGradient id="radial-gradient-7" cx="12.32" cy="21.02" r="0.05" xlink:href="#radial-gradient"/><radialGradient id="radial-gradient-8" cx="39.04" cy="12.94" r="0.38" xlink:href="#radial-gradient"/><radialGradient id="radial-gradient-9" cx="48.61" cy="55.95" r="0.05" xlink:href="#radial-gradient"/><radialGradient id="radial-gradient-10" cx="47.94" cy="53.82" r="0.23" xlink:href="#radial-gradient"/><radialGradient id="radial-gradient-11" cx="47.71" cy="55.7" r="0.16" xlink:href="#radial-gradient"/><radialGradient id="radial-gradient-12" cx="50.1" cy="62.86" r="0.1" xlink:href="#radial-gradient"/><radialGradient id="radial-gradient-13" cx="47.94" cy="56.36" r="0.59" xlink:href="#radial-gradient"/><radialGradient id="radial-gradient-14" cx="50.25" cy="56.54" r="0.33" xlink:href="#radial-gradient"/><radialGradient id="radial-gradient-15" cx="49.72" cy="47.23" r="0.29" xlink:href="#radial-gradient"/><radialGradient id="radial-gradient-16" cx="48.83" cy="55.95" r="0.09" xlink:href="#radial-gradient"/><radialGradient id="radial-gradient-17" cx="49.76" cy="56.01" r="0.49" xlink:href="#radial-gradient"/><radialGradient id="radial-gradient-18" cx="49.64" cy="54.5" r="0.14" xlink:href="#radial-gradient"/><radialGradient id="radial-gradient-19" cx="49.02" cy="55.92" r="0.04" xlink:href="#radial-gradient"/><radialGradient id="radial-gradient-20" cx="47.5" cy="51.22" r="0.12" xlink:href="#radial-gradient"/><radialGradient id="radial-gradient-21" cx="50.35" cy="46.54" r="0.19" xlink:href="#radial-gradient"/><radialGradient id="radial-gradient-22" cx="50.58" cy="47.59" r="0.38" xlink:href="#radial-gradient"/><radialGradient id="radial-gradient-23" cx="50.86" cy="47.03" r="0.35" xlink:href="#radial-gradient"/><radialGradient id="radial-gradient-24" cx="50.23" cy="47.44" r="0.33" xlink:href="#radial-gradient"/><radialGradient id="radial-gradient-25" cx="49.95" cy="47.66" r="0.16" xlink:href="#radial-gradient"/><radialGradient id="radial-gradient-26" cx="49.93" cy="46.83" r="0.05" xlink:href="#radial-gradient"/><radialGradient id="radial-gradient-27" cx="49.8" cy="48.73" r="1.05" xlink:href="#radial-gradient"/><radialGradient id="radial-gradient-28" cx="52.67" cy="47.66" r="0.62" xlink:href="#radial-gradient"/><radialGradient id="radial-gradient-29" cx="49.68" cy="46.71" r="0.37" xlink:href="#radial-gradient"/><radialGradient id="radial-gradient-30" cx="49.47" cy="54.1" r="0.06" xlink:href="#radial-gradient"/><radialGradient id="radial-gradient-31" cx="48.33" cy="55.91" r="0.12" xlink:href="#radial-gradient"/><radialGradient id="radial-gradient-32" cx="57.39" cy="52.35" r="0.09" xlink:href="#radial-gradient"/><radialGradient id="radial-gradient-33" cx="49.07" cy="56.01" r="0.04" xlink:href="#radial-gradient"/><radialGradient id="radial-gradient-34" cx="42.07" cy="55.9" r="0.06" xlink:href="#radial-gradient"/><radialGradient id="radial-gradient-35" cx="56.95" cy="43.01" r="0.48" xlink:href="#radial-gradient"/><radialGradient id="radial-gradient-36" cx="57.46" cy="52.48" r="0.04" xlink:href="#radial-gradient"/><radialGradient id="radial-gradient-37" cx="35.53" cy="63.49" r="0.02" xlink:href="#radial-gradient"/><radialGradient id="radial-gradient-38" cx="37.58" cy="68.25" r="0.48" xlink:href="#radial-gradient"/><radialGradient id="radial-gradient-39" cx="35.61" cy="62.66" r="0.13" xlink:href="#radial-gradient"/><radialGradient id="radial-gradient-40" cx="31.49" cy="68.63" r="1.11" xlink:href="#radial-gradient"/><radialGradient id="radial-gradient-41" cx="36.36" cy="62.05" r="0.04" xlink:href="#radial-gradient"/><radialGradient id="radial-gradient-42" cx="42.29" cy="55.73" r="0.26" xlink:href="#radial-gradient"/><radialGradient id="radial-gradient-43" cx="56.65" cy="53.31" r="0.35" xlink:href="#radial-gradient"/><radialGradient id="radial-gradient-44" cx="52.41" cy="55.97" r="0.22" xlink:href="#radial-gradient"/><radialGradient id="radial-gradient-45" cx="51.41" cy="55.9" r="0.04" xlink:href="#radial-gradient"/><radialGradient id="radial-gradient-46" cx="51.19" cy="56.03" r="0.37" xlink:href="#radial-gradient"/><radialGradient id="radial-gradient-47" cx="51.88" cy="56.02" r="0.15" xlink:href="#radial-gradient"/><radialGradient id="radial-gradient-48" cx="46.68" cy="53.76" r="0.52" xlink:href="#radial-gradient"/><radialGradient id="radial-gradient-49" cx="55.88" cy="53.57" r="0.14" xlink:href="#radial-gradient"/><radialGradient id="radial-gradient-50" cx="47.55" cy="51.97" r="0.54" xlink:href="#radial-gradient"/><radialGradient id="radial-gradient-51" cx="54.82" cy="55.67" r="0.03" xlink:href="#radial-gradient"/><radialGradient id="radial-gradient-52" cx="17.58" cy="22.36" r="1.51" xlink:href="#radial-gradient"/><radialGradient id="radial-gradient-53" cx="14.98" cy="26.62" r="0.04" xlink:href="#radial-gradient"/><radialGradient id="radial-gradient-54" cx="5.15" cy="34.92" r="0.01" xlink:href="#radial-gradient"/><radialGradient id="radial-gradient-55" cx="6.8" cy="39.91" r="0.04" xlink:href="#radial-gradient"/><radialGradient id="radial-gradient-56" cx="19.21" cy="42.2" r="24.58" xlink:href="#radial-gradient"/><radialGradient id="radial-gradient-57" cx="58.33" cy="20.91" r="0.12" xlink:href="#radial-gradient"/><radialGradient id="radial-gradient-58" cx="56.03" cy="22.92" r="0.19" xlink:href="#radial-gradient"/><radialGradient id="radial-gradient-59" cx="58.49" cy="21.27" r="0.19" xlink:href="#radial-gradient"/><radialGradient id="radial-gradient-60" cx="56.43" cy="22.91" r="0.38" xlink:href="#radial-gradient"/><radialGradient id="radial-gradient-61" cx="56.53" cy="23.23" r="0.12" xlink:href="#radial-gradient"/><radialGradient id="radial-gradient-62" cx="57.8" cy="21.74" r="0.22" xlink:href="#radial-gradient"/><radialGradient id="radial-gradient-63" cx="32.83" cy="70.74" r="0.12" xlink:href="#radial-gradient"/><radialGradient id="radial-gradient-64" cx="32.14" cy="71.45" r="0.16" xlink:href="#radial-gradient"/><radialGradient id="radial-gradient-65" cx="32.54" cy="70.73" r="0.11" xlink:href="#radial-gradient"/><radialGradient id="radial-gradient-66" cx="15.67" cy="48.45" r="0.01" xlink:href="#radial-gradient"/><radialGradient id="radial-gradient-67" cx="31.81" cy="71.14" r="0.52" xlink:href="#radial-gradient"/><radialGradient id="radial-gradient-68" cx="58.31" cy="24" r="8.81" xlink:href="#radial-gradient"/><radialGradient id="radial-gradient-69" cx="58.47" cy="50.72" r="16.35" xlink:href="#radial-gradient"/></defs><title>Asset 3</title><g id="Layer_2" data-name="Layer 2"><g id="Layer_1-2" data-name="Layer 1"><path class="cls-1" d="M92.92,19c-.74-1.05-1.45-2.12-2.16-3.19l-.05,0c0,1,.05,2.19.05,3.5v9.1H88.7V12.32h2.06l5.73,8.2,5.73-8.2h2V28.46h-2.12v-9.1c0-1.31,0-2.54,0-3.5l0,0C101.41,16.91,100.7,18,100,19l-3.53,5Z"/><path class="cls-1" d="M117.38,12.07a8.12,8.12,0,0,1,8.21,8.32,8.21,8.21,0,1,1-16.42,0A8.12,8.12,0,0,1,117.38,12.07Zm0,14.67a6.11,6.11,0,0,0,6.09-6.35,6.1,6.1,0,1,0-12.18,0A6.11,6.11,0,0,0,117.38,26.74Z"/><path class="cls-1" d="M130.51,12.32h2.12v7.31l0,0,7.05-7.33h2.63l-7.24,7.49L143,28.46h-2.77l-7.54-8.34,0,0v8.32h-2.12Z"/><path class="cls-1" d="M146.54,20.86V12.32h2.12v8.31a9.07,9.07,0,0,0,.63,4.17c.55,1.05,1.71,1.94,3.83,1.94a3.89,3.89,0,0,0,3.79-1.94,8.77,8.77,0,0,0,.61-4.08v-8.4h2v8.29c0,2.34-.14,4.15-1.07,5.58A6.29,6.29,0,0,1,153,28.71a6.2,6.2,0,0,1-5.42-2.52A9.83,9.83,0,0,1,146.54,20.86Z"/><path class="cls-1" d="M172.52,12.07a8.12,8.12,0,0,1,8.21,8.32,8.21,8.21,0,1,1-16.42,0A8.12,8.12,0,0,1,172.52,12.07Zm0,14.67a6.11,6.11,0,0,0,6.09-6.35,6.1,6.1,0,1,0-12.18,0A6.11,6.11,0,0,0,172.52,26.74Z"/><path class="cls-1" d="M185.65,12.32h2.12V26.54h7.63v1.92h-9.75Z"/><path class="cls-1" d="M205,12.32h2l6.67,16.14h-2.28l-1.8-4.5h-7.27l-1.83,4.5h-2.16Zm-1.92,9.79h5.8l-1.32-3.35c-.51-1.29-1-2.68-1.53-4H206c-.49,1.31-1,2.67-1.58,4.06Z"/><path class="cls-2" d="M86.72,37.4H91.6V46h9.59V37.4h4.87V59.59h-4.87V50.24H91.6v9.35H86.72Z"/><path class="cls-2" d="M112.19,48.5a11.59,11.59,0,1,1,11.59,11.43A11.3,11.3,0,0,1,112.19,48.5Zm18.3,0a6.72,6.72,0,1,0-13.42,0,6.72,6.72,0,1,0,13.42,0Z"/><path class="cls-2" d="M150.35,50.64c-1.44-1.93-2.79-3.8-4.17-5.73l-.06,0c0,2.12.06,4.26.06,6.41v8.24h-4.69V37.4h4.6l6.65,9c1.44,1.93,2.79,3.8,4.17,5.73l.06,0c0-2.11-.06-4.26-.06-6.4V37.4h4.69V59.59H157Z"/><path class="cls-2" d="M187.83,48.83c0,3.34-.46,5.77-1.71,7.54-1.57,2.24-4.42,3.56-8,3.56s-6.44-1.32-8-3.62c-1.2-1.78-1.66-4.2-1.66-7.35V37.4h4.88V48.77c0,2.36.21,3.8.85,4.85a4.51,4.51,0,0,0,4.05,1.93,4.33,4.33,0,0,0,3.92-1.84c.68-1,.95-2.58.95-4.91V37.4h4.69Z"/><path class="cls-2" d="M201.38,37.4h4.72l9,22.19H209.9l-1.78-4.66h-9l-1.81,4.66h-5Zm-.71,13.7h6l-.92-2.48c-.64-1.75-1.44-3.95-2-5.64h-.06c-.59,1.69-1.38,3.89-2.09,5.76Z"/><path class="cls-3" d="M11.7,11.83l-.6.28c3,3.12,6.25,6.78,7.47,8.19.41-.82.9-1.83,1.45-2.95C17.79,15.9,14.57,13.78,11.7,11.83Z"/><path class="cls-4" d="M13.84,10.76C16,12.67,18.5,15,20.34,16.7l1-2.17-6.76-4.26A5.85,5.85,0,0,1,13.84,10.76Z"/><path class="cls-5" d="M69.46,49.27C69,38.93,67.35,35,67.35,35h0A31.34,31.34,0,0,0,58.77,18.3a18.73,18.73,0,0,0-12-6.17c-6.45-.82-9.41,1.61-9.41,1.61s5.35,2.51,7.76,5a17.34,17.34,0,1,1-27.73,4.08,3.28,3.28,0,0,0,.15-.36v0s.4-.78,1-2C17,19.06,12.4,16.2,8.64,13.23,4.49,15.06,0,16.87,0,16.87l2.65,5s7.84-2.62,7.8-1.5a36.66,36.66,0,0,1-1.8,4.65A31.58,31.58,0,0,0,58.36,63a32.75,32.75,0,0,0,3.3-3.81h0s3.52,4.76,4.21,7.73S67,71,67,71,70,59.61,69.46,49.27Z"/><path class="cls-6" d="M21.68,13.87c.59-1.25,1.17-2.53,1.71-3.76,2.48-5.63,3.26-6.43,3.26-6.43L21.92,0s-2.81,6-6.1,9.22Z"/><path class="cls-3" d="M11.7,11.83l-.6.28c3,3.12,6.25,6.78,7.47,8.19.41-.82.9-1.83,1.45-2.95C17.79,15.9,14.57,13.78,11.7,11.83Z"/><path class="cls-4" d="M13.84,10.76C16,12.67,18.5,15,20.34,16.7l1-2.17-6.76-4.26A5.85,5.85,0,0,1,13.84,10.76Z"/><path class="cls-5" d="M69.46,49.27C69,38.93,67.35,35,67.35,35h0A31.34,31.34,0,0,0,58.77,18.3a18.73,18.73,0,0,0-12-6.17c-6.45-.82-9.41,1.61-9.41,1.61s5.35,2.51,7.76,5a17.34,17.34,0,1,1-27.73,4.08,3.28,3.28,0,0,0,.15-.36v0s.4-.78,1-2C17,19.06,12.4,16.2,8.64,13.23,4.49,15.06,0,16.87,0,16.87l2.65,5s7.84-2.62,7.8-1.5a36.66,36.66,0,0,1-1.8,4.65A31.58,31.58,0,0,0,58.36,63a32.75,32.75,0,0,0,3.3-3.81h0s3.52,4.76,4.21,7.73S67,71,67,71,70,59.61,69.46,49.27Z"/><path class="cls-6" d="M21.68,13.87c.59-1.25,1.17-2.53,1.71-3.76,2.48-5.63,3.26-6.43,3.26-6.43L21.92,0s-2.81,6-6.1,9.22Z"/><g class="cls-7"><path class="cls-8" d="M10.77,21.66l.06-.07.05,0,0-.08-.06,0-.06.08,0-.08-.06,0,0-.07.07-.08,0,0-.08.07v0h0l-.05.08-.06.07,0,0,0,.07,0,0,0,0v0h0l-.06.05v.07h0v.09h0l-.05,0,0,.07v.06h0l0-.07,0-.08,0-.07V22l0,0,0,.06h0l.08-.09.06-.07.07-.08,0-.08V21.6h0l-.06.08-.07.07-.06.06.07-.08Zm-.1.24v0h0Z"/><path class="cls-9" d="M51.23,45.57l-.1,0v0Z"/><path class="cls-10" d="M50.12,45.6l-.08.1v.09l.09.08.09-.07Z"/><path class="cls-11" d="M39.3,12.75l.05,0v0l-.09,0Z"/><path class="cls-12" d="M52.11,40.16,52,40l-.06-.15,0-.06-.11,0-.1-.08-.14.08-.08.08,0,.05v.22l0,.1.06.1.12.53,0,.1.14.19.05.1v.16l.09.1,0-.2.14-.11.13-.31,0-.12v-.19Z"/><path class="cls-13" d="M67.41,48.65a.29.29,0,0,1,0-.09c-.12-.22-.56-.45-1.29-.66.1-.39.19-.79.28-1.19h0l0-.05h0v0h0l0-.09,0-.1v0l0-.09,0-.07v0h0l0-.09,0-.1,0-.09,0-.1v0h0l0-.09,0-.1,0-.09h0l0,0,0-.1,0-.09v0l0-.06h0v0l0-.09,0-.1,0-.1v0l0-.1h0l0,0,0-.09,0-.11,0-.1,0-.09v-.16l0-.1,0-.1V43.8l0-.09,0-.1,0-.1v-.2l0-.1V43h0v0l0-.1V42.9h0v0l0,0h0v-.1h0l0-.1v-.64l0-.1v0l0-.1v-.1l0-.07,0,0h0l0,0h0v-.07l0-.09,0,0v-.1l0,0,0,0v0h0l0-.06,0,.05h0v.1l0,0v.09l0,0,0,.1v.14l0,.1h0l0,0,0,0,0,.06,0,0,0,0h0l0-.05,0,0,0-.08,0-.09,0-.1v0l0-.09h0l0-.1,0-.08,0-.1v-.16l0,.1,0,0h0l0,0,0-.07,0,0v-.11l0-.1h0v0h0l0,0,0,0,0,0,0,0,0,0,0-.06,0-.06,0-.07v-.23l0-.07,0-.06h0l0,.06,0,.08v-.1l0-.09h0l0,.06v-.07h0v-.07l0,0V40l0,0,0,0v-.13a1.09,1.09,0,0,1,.41.31s0-.06,0-.09h0a1,1,0,0,0-.4-.31l0-.15v.07h0l0,.06,0,0v0h0v0h0v-.06l0,0v.09l0,0h0v0h0v0h0v0A25.17,25.17,0,0,0,67.35,35h0A31.34,31.34,0,0,0,58.77,18.3a18.73,18.73,0,0,0-12-6.17c-.36-.05-.71-.08-1.06-.11l0,0,.09.05.25.12.07,0,.18,0,.17.1,0,0h.06l.15.07h.06l.07,0h.05l.08,0h0l.11.05v0l.15.07.11,0,.16.06.1.05.16.08h.05l.2.21-.1,0-.16,0-.06,0-.08,0h0v0l0,0h-.08l-.06,0-.06,0h-.06l-.08,0-.11,0,0,0L47,12.77v0l0,0-.08,0h-.16l-.06,0-.11-.1v0l0,.1.16.11V13l0,.05h0L46.57,13h0l0,0L46.58,13l-.12,0h-.21l-.14,0h-.29l-.22,0h-.31l0,.06h.1l.08,0,0,.05,0,0-.12.06h-.09l0,0H45l-.1,0h-.42l-.06,0h-.05l0,0h0l-.07-.05,0-.06h-.06V13l0,0,0-.05L44,12.87l-.06,0v.05l-.07,0-.05,0,0,0-.07,0-.18.07,0,.06-.06,0,0,0,.05.05-.07,0-.07,0,0,.05-.08,0h-.07l0,.05h0l0,0v0h-.05l-.07,0-.07-.05h-.06L43,13h0c-.16-.33-.33-.63-.5-.93H42.4c.17.29.33.6.49.92h0v0l0,0h-.06l.05.05h-.12l0,0,0,.05,0,0-.07,0v0l.07,0,.07,0h.06l-.16,0,0,0h.12l0,0-.1,0v0h.07l.09.08H43l0,0h-.17v0l0,0v0l0,0,0,0,.12.05H42.8l.07,0H43v0l.09,0,0,0,0,.11,0,0v.05l-.05,0-.07,0,0-.05v-.06h0l0,0v.05l0,0,.06,0,.06,0h.06l0,.06h0l0,0V14l0,.06,0,0v.06H42.9l-.08.08-.06,0-.07,0v.05l0,.05-.07,0-.08,0-.08-.06,0,0-.08-.06-.07,0v-.06L42.19,14l-.1-.11L42,13.78l-.08,0,0,.06,0,.11L41.8,14l-.1,0-.11,0H41.4l0,0,0,0v0l-.08,0h-.13l-.07-.05H41l-.11,0,0,0h-.06l-.06,0-.11.05,0,.06H40.5l.07,0-.12,0,0,0-.13,0-.08,0,.12,0,0-.12h-.07l-.13,0H40.1l-.05,0V14L40,14l-.07,0-.06,0h-.08v0l0-.06v-.06l0-.05.06,0-.08,0,0-.05-.13,0,.06,0h.09l.07,0h.07l0-.05,0,0-.14-.08h-.23l-.12,0-.07,0v-.05l0,0v-.05l-.17,0-.06,0-.12,0h-.71l0,0h-.12l.09.1,0,.05h.13l0,0h0l-.07,0-.13,0-.37,0h-.18l.19.16.13.08v-.06l-.07-.05v0l.07,0,0-.06H38l0,.16.12,0,.06,0h.06l0,.05.06.06h-.06l-.05,0-.07,0H38l-.13,0-.07,0-.09-.1-.16-.1-.22.16s5.35,2.51,7.76,5a17.27,17.27,0,0,1,4.94,13h0l.09,0h.11l.1.07.19.06.11.06.09,0,.11.09.08.09.2.06.1.08.09,0,0-.1-.1,0-.1,0,0-.09L51,31.92l-.06,0,.19,0,0-.08h.09l-.1-.06h0v-.09l-.1-.07-.1-.05h0l0-.06-.08-.1-.09-.1,0-.09,0,0,.09-.05.06-.09,0,0,.1.09H51l.09-.05h.1l0,0,.06.09.06,0,.1.09.07.09.14.1.14.05,0,0h0l0,0,.09,0,.12.09,0,.09,0,.09.14.13h.09l.09,0,.1.07L52.8,32l.1,0,.07.11h0l.06.1,0,.09,0,.09-.07.09h0l-.08.07h-.16l-.09.08,0-.09h0l-.08.08-.06.1.06.09,0,.1v.13l-.09.06-.09,0h-.15l-.1-.06L52,33l-.08,0-.12-.12-.11-.05H51.6l-.09,0-.07.08v0l-.1,0-.06.09h-.2v0L51,32.94l-.08.07h0l-.09,0v.1l0,.09.07.08H51v-.1l.07.07h.08l.1,0,.09,0,.07,0,.1,0,.1,0,0,0,0,0h0l0,.1.1,0,0,.1.1,0h.09v-.09l.09,0,0,0,0,.06v.07l0,0,.06.09.08.06.09,0,.06.09.1.13,0,.06,0,0,0,.07v.09l-.09,0-.08.09-.1.05h0l-.09,0-.11.07,0,.1v0l-.07.23,0,.07,0,.1-.06.09,0,.1,0,.09v.1l-.06,0-.07,0,0,0-.09.07,0,.1-.09,0,0,0-.07.09v.1l.1,0,.07,0,.08,0h.2l0-.09.06,0H52l0,0,.1.07h0l.09,0,0-.08,0-.1.1,0,0,0,0,0,0,0-.08.1,0,.06h0l-.09,0L52,36l-.1,0v.09l-.16.06,0,0-.08.09-.09.07h0l-.09.07,0,.1v.1l.19,0,.1.08.07,0,.09,0,.06.1h0l.1,0,.1,0,.07.06-.1,0H52v.11l-.07,0,0,0-.14,0,0,0h0l0,0-.1,0-.07.1h0l0,0h-.07l-.09.06.07,0,.07.1,0,0,.09,0,0,0-.1-.07h-.1v.1l0,.1,0,0,.09,0,.08.09-.08,0v0l-2.88-.12,0,.1q1.5,0,2.91.12h0l.1,0h0l0,0h0l0,.05h-.09l0,.09,0,.1.1.08,0-.09h0l0,0v.06l.09.09H52l.09-.05-.07.06,0,.11,0,.1,0,0,0,.11.07.11.1,0-.1.06h.08l.07.18.06.1.08,0-.08-.09v0h.22V39l-.09,0h0v.1h-.09l.09,0,.1.09,0,.08.17-.09-.07.09-.06,0,0,0h0l-.08,0,0,.1,0,.05,0,0,0,.1,0-.07h.1v.07l0,.1h.14v.09l.09.07.09,0,0,.11h.14l.1,0,0,0,.07,0h.08l0,0h-.09v.1l.07.1h.11l0,.09.09.05h0l.13.13.09,0,0,.11v0l.09,0v.06h0v0l0,.09,0,0,.15,0h0l0,0,0,0,0,0,.09,0,.1,0v.1h0l.09-.06h.05l0,0,.11.08.09.05h0l0-.1.09.07h0l0,.1,0-.05,0,0,.09,0-.05.05v.1l0,0h0l.06-.1.07,0,.06-.16h0l0-.1v0h0l0,0h0l.06,0h0V41l.06,0h0l-.08.05,0,0h0l-.06.09v.21h.06l0,0,.06-.11,0-.07,0,.11,0,.1.09,0,0,.05v.1h.08l.09.09.07,0c-.11,1.69-.3,3.36-.57,5-1.15-.08-2.35-.15-3.62-.21l0-.06h0v-.09l0-.11.06-.05.07-.09.07,0-.09,0-.09,0h-.1l-.23.1-.06.08,0,.19,0,0,0,0-1.14-.06,0,0-.06,0h.09l.24-.09V46l.07-.09.17-.1,0-.08.11-.07H51l0,.1v.05l-.08.13V46h.07l0-.09.08-.09.11-.08.14-.08h.1l0,0,0,0,.05.09h.11l.09,0v-.1h.1l.05-.07v-.08l-.13-.13h0v-.08l.08-.06h.07l.06,0,0,.1v.1l.1,0,.07-.09v-.06h.09l.05-.24.07-.1v-.11l0,0v0l.05-.07,0-.09v-.11l-.06,0-.12.13-.11,0,0-.05.06-.1v0l0-.3,0-.22v-.19l0-.2v-.12l-.29-.06-.21.13v.1l0,0,0-.1h-.1l-.1,0,0-.06-.1,0v0l.06.1v.19l-.06.19-.11.14,0,0v0l0,.13,0,.12,0,0,0,.09h0l.07.11h0l.09,0,.09.06.05.1v.1l0,.09,0,.11-.07.1,0,.1,0,0v.1l0,.09,0,0,0,.09-.1.08-.11,0-.08,0,.08-.09-.07,0,0-.1h-.19l-.1.08,0,.06,0,.09,0,.05h0l0-.05,0-.12-.1,0-.17.07v0h.09l.06.08h0l-.08.1,0,.09-.18,0v.17q-1.55-.07-3.18-.12c.18-1.93.3-3.92.35-6a1,1,0,0,1-.11.17c0,2-.17,3.9-.34,5.78C45,46.08,43.09,46,41.1,46l-.16.09c2,0,4,.07,5.91.13-.21,2.28-.5,4.48-.86,6.57l0,0v-.13l-.09,0h-.09l-.09,0-.08-.08-.08,0-.08,0h-.07l-.1,0-.09,0-.1.05L45,52.6l-.09,0-.09,0,0,0-.1,0v.09l-.06.08-.07.09,0,.09,0,.08,0,.1,0,.08,0,.09-.09.08,0,.09v-.09l-.11.09,0,.09-.07.08-.09.09h-.17l-.09,0-.07-.08-.08-.08v-.06l0-.07-.09-.06,0-.08-.09-.08-.09,0-.09,0-.09,0,0-.07v-.09L43,53,42.93,53l-.09,0h-.05l-.1,0-.11,0-.09,0-.1,0-.09.07-.1,0-.1,0-.09,0-.19.07h-.35l-.07.09h-.19l-.1,0-.09,0-.29.13-.09,0-.11,0-.19,0-.09,0h-.11l-.1,0-.09,0-.1.07,0,0-2.73,0c0-2,.06-4.13.07-6.33l-.11,0c0,2.19,0,4.3-.06,6.3H35.83l0,0,.09,0,.09,0,.37-.25.1,0,.1,0-.09,0-.29.13-.09.07-.1,0-.09.06-.18.14,0,0c-2.61,0-5.14,0-7.54.1-.34-2.12-.63-4.36-.84-6.69l-.1,0c.21,2.34.5,4.6.85,6.73-2.77.07-5.35.18-7.67.32a50.36,50.36,0,0,1-1.83-7.81c1.91-.11,4-.21,6.16-.29l-.17-.08c-2.13.08-4.14.17-6,.28A55.64,55.64,0,0,1,18,40l-.09-.16a54.13,54.13,0,0,0,.61,6.59c-2.59.16-4.89.35-6.82.57a41.6,41.6,0,0,1-.9-8.5c1.76-.2,3.82-.38,6.11-.53a.36.36,0,0,0,0-.09c-2.28.15-4.32.33-6.07.53a39.11,39.11,0,0,1,.91-8.37c1.11-.13,2.35-.24,3.69-.35,0,0,0-.06,0-.08-1.34.1-2.57.22-3.68.34a34.7,34.7,0,0,1,2.54-7.4c1-.11,2.1-.21,3.3-.31l0-.08c-1.2.1-2.31.2-3.31.32a33.56,33.56,0,0,1,2.12-3.72l0,0a30.27,30.27,0,0,0-2.14,3.74c-1.06.12-2,.25-2.78.39h0l0-.08v-.14l-.08-.13-.06,0v0l0,.09-.08.08,0-.08h0l-.06,0,.06-.08.05-.08,0-.07v-.2l0-.08v-.07l-.05,0,0-.08,0-.07,0-.16,0,0,0-.08v0l0,.05h0v0l.11-.15.05-.08,0-.08,0-.08,0,0,0,0,.06,0,0,0,.06-.07,0-.15V21l.06-.07,0-.08.05-.08,0,.07,0,.08,0,.08,0,.07h0L12,21l0-.07v-.06l-.05,0,0,0,0,0,.08-.07-.06.08L12,21l-.07.07v.07l0,0,.15-.15.09-.07.07-.05,0,.07.06,0,0,0,.08-.07,0,0v.05l0,.06h0l0,.08,0,0,.12,0h0V21l.12-.15,0,0,.06,0,.09-.07,0-.08v-.06l.09-.08.06-.08.14-.13,0-.07.09-.07,0-.07,0-.08,0-.07v0l0,0,0,0-.07.15,0,.07-.06.07-.05.08,0,0h0v.09h0l.07,0h0l.06,0,0-.08.06,0,.18-.15v0l.06,0,0,0,0-.07h.08l0-.15,0-.07h0l-.08,0,0,0-.06.07v-.05h0l0,.07-.05,0v0l.06-.08.06,0h0l0,0,0-.07,0,.08h.08l.07,0H14l0,0,0-.07.07,0,.05-.08,0,0,.06-.15,0,0,0-.07h0v.12l0,.07,0,.07v0l.07-.07.08-.05,0-.07.08-.06.08-.07h-.07l0,0v0l0,0,.09-.07,0-.08.05-.21,0,0-.07,0h0l.06,0,0-.07,0-.07v.05l.09-.07h0l.07-.07v-.07h-.06l.07,0,0-.07-.05,0-.08,0-.07.07v0h-.07l0,0,0-.07v0l.06-.14h0l-.06,0h-.1v0l0-.07,0-.07.07-.07.07-.07.06-.07.16-.13h0l0,0h0v0h0l-.93-.64a31.67,31.67,0,0,0-2.43,2.62h0l.07-.07,0,.07-.06.07,0,0,.06-.07,0-.08,0-.05,0,.07-.05.08.06-.05-.07.08-.05.07h0l0,.08v0l-.07.07,0-.07-.05.07,0,0v0h0v0l0,0,0,.07,0,.07-.06.07h0l-.05.07h0v0l.07,0-.05.07.06-.07h0l0,.07-.06.08.07-.08h0l-.07.08.06,0-.07.09v0l.06-.08-.05.08h0l-.06.08v0l0,.07,0,0,0,.06.06,0,0-.08v0h0l0,0,0-.07h0v0l0,0,.07-.07.07-.11.07-.15.05-.06,0-.07.07-.08,0-.08h0l0-.1v0l-.09.06v0l-.09,0,.08-.06.1-.08,0,0,0-.08,0-.07,0,0,0,0-.06.09h.05l.06-.07,0,.07v0l0,.07v.08l-.06.08v.05l0,.07,0,.07,0,.07,0,.06h0l.06,0-.14.13,0,.05,0,.07h0l0,0-.05.07v0l0,0v.05l-.05.07v0l-.1.15,0,0h0l-.06.05h0l0,.08,0,.07v.06h0l0,.07,0,.08-.06.07,0,.08,0,0,0,0,0,.07v.14l0,.05h0c-.32.5-.62,1-.91,1.52-.32.08-.58.16-.81.24l0,.07a7,7,0,0,1,.79-.23,32.11,32.11,0,0,0-3,7.48,7.44,7.44,0,0,0-1,.29l0,.09a10.19,10.19,0,0,1,1-.3A33.51,33.51,0,0,0,6,39.22a6.62,6.62,0,0,0-1.3.42v.1A7.27,7.27,0,0,1,6,39.31,34.79,34.79,0,0,0,7,47.78a5.68,5.68,0,0,0-1.4.48l0,.09a6,6,0,0,1,1.4-.48,33.65,33.65,0,0,0,3,7.67A5.17,5.17,0,0,0,8.76,56l.05.08a5.07,5.07,0,0,1,1.31-.47,33.44,33.44,0,0,0,4.68,6.57,4.31,4.31,0,0,0-1.08.38l.07.06a4.16,4.16,0,0,1,1.08-.38,31.27,31.27,0,0,0,6.06,5.14,3.07,3.07,0,0,0-.72.25l.08,0a3.36,3.36,0,0,1,.71-.24,30,30,0,0,0,7.16,3.4l-.2.06.09,0,.2,0q1,.31,2,.57l.11,0c-.72-.17-1.44-.37-2.14-.59a9.56,9.56,0,0,1,1.26-.2,22.43,22.43,0,0,0,4.17,1.23h0a21.63,21.63,0,0,1-4.16-1.24c.53-.06,1.17-.11,1.88-.15A12.94,12.94,0,0,0,35,72h0a12.43,12.43,0,0,1-3.51-1.47l2.36-.1A5.84,5.84,0,0,0,35.73,72h0a5.79,5.79,0,0,1-1.9-1.59c.84,0,1.74,0,2.67,0h0c0,.76-.1,1.3-.15,1.63h0c.06-.33.11-.87.17-1.63.94,0,1.84,0,2.68,0A6.78,6.78,0,0,1,37.1,72h0a6.88,6.88,0,0,0,2.19-1.57c.84,0,1.61.06,2.31.11A14.17,14.17,0,0,1,38,72h0a14.23,14.23,0,0,0,3.65-1.42c.69,0,1.3.1,1.8.16a22.41,22.41,0,0,1-3.91,1.14h0a22.94,22.94,0,0,0,3.9-1.14,8.51,8.51,0,0,1,1.11.2l.1,0a7.67,7.67,0,0,0-1.13-.2,26.11,26.11,0,0,0,6.25-3.56,16,16,0,0,1,2.17.39A30.54,30.54,0,0,1,45,70.77l.18-.06A30.45,30.45,0,0,0,52,67.5l.34.12.08-.05a2.27,2.27,0,0,0-.34-.11,32.43,32.43,0,0,0,6.16-5.12,4.41,4.41,0,0,1,.57.21l.06-.07a3.37,3.37,0,0,0-.57-.2A33.21,33.21,0,0,0,63,55.73c.69.2,1.1.41,1.18.63a.59.59,0,0,1,0-.08c-.08-.22-.48-.43-1.17-.63A33.5,33.5,0,0,0,66.11,48C66.84,48.2,67.29,48.43,67.41,48.65ZM48.83,13.33l-.22-.09-.16-.11h-.34l-.2-.21H48l.18.09.08,0,.07,0h.08l.19.11.06.05.1,0,.14.05h-.05ZM64.12,27.77l0,.08v-.07l.12.15,0-.1.1,0,0,0,0-.05h.08v-.09l0,0h0l.07,0,0,0v0l.07.05,0,.09,0,.06,0,0L65,28l0,0,0,.05,0,.08.05.09,0,.09,0,.09v.17l0,.1v0h0l-.07-.18v0l0-.09,0-.06L65,28.24,65,28.18h0l-.07-.1,0-.09h0l-.07,0,0-.09,0,.09,0,0h-.17l0,0h-.05l0,0h0V28L64.27,28l-.06,0-.06-.09,0,0,0,0v-.09ZM62.66,43v0h0l.19-.44h0l0-.11,0,.1v0h0v0h0l0,.1,0-.1v-.1h0l0-.09h0v-.08h0v.08l0,.1,0-.05,0,0v0l.05-.1v.15l0-.09.06-.1,0-.1,0-.1v.09l0,0,.05-.11v-.2l0-.11V41.5l0-.08v-.13h0v0h0l0-.1,0-.1V41l0,.07h.06l0,.1h0l0-.1,0-.1v0h0v-.27h0v0l0,0h0v.1l0,0h0l0,0-.05.05,0,0,0,.1h0v0l0,.05,0,.08h0l0,0v.1l0,0v.1l0,.09v.11l0,0v-.1l0,.06v0l0-.07,0,.06v-.13l0-.1h0l0,0v.19l0,.1,0,0h0v0h0v0l0,.05v-.1h0l0,.07h0l0,0v-.11h0l0,.09h0v0l0,0v0l0,.1,0-.06h0v.05l0,0v-.21l0,.06v-.1h0v.2h0v0h0v.07h0v-.27l0,.1,0,.09,0,.06.05,0,0,0h0l0,0,0,.1,0,.1,0,.1v.14l0,0v0l0,.07v.11l0,0,0,.1h0l0-.07,0,.07v.06l.14.09,0,0h0l0-.08,0,.08,0,.11,0-.08h0v0h0v0l0,.06,0,.08,0,.1h0l0,.1,0,.1,0,.09,0,.1,0,.06,0,.05,0,0,0,.09,0,.09h0v0l0,.07,0,.06,0,.05,0,.06v.31l0,0,0,0h0l0,0h0l0,0h0v.3l0,0,0-.09v.06h0l0,0,0,.1v.29l0,.09,0,.1v.27l0,.09,0,.1,0,.09h0l0-.06v.06h0l0,0,0,0v.19l0,.09v.2h0v.1h0v.2h0v0l0,.11V47h0l0,.08-.06.25,0,.1,0,.05h0l0,0v.29l-.18,0v0h0l0,0c-.9-.2-2-.39-3.45-.56a39.09,39.09,0,0,0,.7-4.22Zm2.7,4.84h0l0,0h0v0h0l0,0Zm-3-4,0-.1,0-.1v-.1l0-.05,0-.1,0-.09v0c0,.35-.08.7-.13,1.05V44l0,0v-.18ZM60.65,47l0-.1,0-.09v-.08l0,0v-.09l0-.1,0,0,0-.05v0l0-.05v-.13h0l0-.09,0-.1,0-.1,0-.08.06-.1,0-.09,0-.1h0l0,.09v.09l0-.09,0-.1,0-.09,0-.06,0-.09v-.1l.08-.08V45.1l0-.1v-.24l0-.1,0-.09v-.23h0l.07,0,0-.1,0-.08V44L61.6,44l.06-.1,0,.08v.27l0,.1.06,0,.07-.09V44.2h0v0l0,.06v.12h.07l0,.07,0,0v.14l.05.09h.06l0-.11v-.07h0l0,0,0,.08v-.15h0v.08l0,.1,0,0V44.6h0l0-.1,0,0,0,.1,0-.09,0,.07v-.25h0v0l0,.1,0,.1h0c-.13.86-.29,1.71-.47,2.55L60.65,47Zm-1.43-.17,0-.09,0,.08,0-.07,0,.08,0-.07v0h0l0-.1h0l.08-.09.06,0,0-.09,0,0,.07-.1h0l0-.05.07,0,.12,0h.1l.06,0,0-.07v-.12l0-.13v-.1h0l.09-.07,0,.06h.07l.06,0,0,.06,0,0,0,.1h0v.2l0,.09,0,.13h0l0,.1v.08h0l0,.09V47l-1.17-.12h0v0Zm0,0h0ZM55.74,24.72v0l0,0,0,0H55.6l-.07,0-.07-.08-.09-.05-.16-.08h-.08l-.08,0-.19-.14-.06-.08-.1-.08h-.07l-.1-.08,0-.07h.07l.08,0-.16-.16h-.06l0,.08-.09-.05,0-.08-.1-.08-.07-.08v-.08l-.08-.16L54,23.27l-.09-.16,0-.08-.1-.16,0-.08-.06-.08,0,0h.07l-.06,0h.06l.19.11,0,.08L54,23l.05.08.11.09.12.16.07.09.07.06,0,.08.09.08.13.16.18.11.17.16.17.1.1.07,0,.08.1.08.09.08.16.08.09.06.16.18.18.11.08,0h0l.09.05h.07l.13,0,.1.08-.17.07H56.4l-.08,0L56,25l-.1-.09ZM56,41.64l0,0,.08,0h0v.08h.06l.06.1.09,0v0l.06.05v0l0,0,.1,0h.09l0,0,0,0,0,.09h.08l0-.09,0,.1,0,.05,0,0v.1h-.09v0h0l-.08.13,0,.09.08,0h.09v-.08l.09-.09L57,42v0l0-.11-.07-.1v0l.08,0v0l.05-.06.08,0v.1l.08,0v0h.09l0-.1.07-.06.08.06v0l0-.09h.06v0l0,0v.11l.05-.06.08.06h.07l0,0h0l.13,0,.08.07H58v0l0,.1h0l.07,0,0,0,.07,0,.07,0v0h0v.12h0l0,0h0v.08l0,.09h0l.12.15h0l0,0,0,.1,0,.08v.17l.06.13-.06.19h0l0,.1-.09.12-.16.15v.13l0,0v0h0l0,0,0,.1L58.1,44l-.14.12,0,.1,0,0-.09.08h0l-.07.05,0,0h0l-.06.1-.08,0,0,0,0,.07h0v0h0l-.05.09h0l0,.1-.05.1-.06,0v0h0v.1l0,.08,0,.09,0,.1,0,.07,0,.1,0,.1,0,.09c0,.07,0,.15,0,.22l0,.09,0,.1h0l0,.09h0l0,0,0,.09h.08l0,.07h0l0,0,0,.09h0l0,0v.09h0v0l-1.49-.1C55.64,45,55.84,43.31,56,41.64Zm-.58,5,1.48.11,0,0h0l.07.08h0l0,.1.13.08.06.1.08,0,0,0,0,.09.07,0,.1.07.07,0,.12,0,0-.09,0,0,0,0h0l0,.07v.1h0l-.09.09v0h0l0,0h0l0,.07h0l.1-.09h0l.06-.06,0,.06,0,0h0l-.09.09,0,.09h0l.07,0,.09-.07.08-.09.05,0v0L58,47.7l-.07.09v.1h0l0,0,.15.08,0,0,0,0v0h0l0,.07v0h0v0l.06,0,.08,0h0l-.06-.05,0,0h0l0-.11h0l0-.13v-.1h0v-.14H58.3l0-.06.12-.11.07,0,.05-.09h0l.06-.05h0l.17-.07,0,0,.08,0v-.06h0l0,0h0v-.1L59,47l0,.05,0,.09h.07l0,0v-.22l1.24.12v0h0v.1h0l0,.09v.28h0l0,.1,0,.09,0,.08v0l0,.08-.06,0-.06,0-.06.09v0l0,0v0l0,.1,0,0-.07.07,0,0h0v0l-.06.1v0l-.06.17,0,.05,0,.1,0,.1h0v0l.08-.11,0-.09v0l0,.09-.07.1L59.7,49l-.07,0-.08.07-.08,0h-.11l-.08.06-.06.09-.08.09-.08.07-.05,0-.09.08-.06.08-.09.09-.08.06-.09.09h0l-.06.09,0,.09-.06.09,0,.1,0,.09v.09h0l0,.09v.1l0,.09,0,0v.09s0,.11-.05.17l-.07.09,0,0-.06,0,0,.09,0,0,0,.08-.07.1-.06.09,0,.1,0,.1.08-.05.07-.09h0l0,.09h.07l0,0H58l.07-.09.09,0,.08-.05.07,0,.07-.08,0,0,0,0,.09,0,.08-.08.09-.09h0l.07,0L59,51V50.9l0-.09.07-.09.06-.09.09-.07v-.12l.08-.06.06-.1v-.09l0-.09.08-.09,0-.08,0-.09,0-.09,0,0,0-.09,0-.09.05-.1,0,0,0-.07h0l.18-.25V49h0L60,48.9l.11-.09,0-.07.07,0,0-.09.15-.17,0-.06.12,0,0-.09v-.27h0l0-.09v-.12h0l0-.09v-.11h0v-.16h0l0,.09v.08h0l0-.1v-.09l0-.06,0-.11,0-.06,0-.09,1.22.14A37.93,37.93,0,0,1,59.24,55c-.74-.09-1.54-.18-2.41-.26l0,0,.07-.08.08-.09.09,0h0l.09-.05.09-.06.08-.05.09-.08.09-.07.09-.06L57.7,54l.06-.09.08-.06.09-.06.09-.06.07-.08.06-.09.09-.09.09-.08,0,0,.06-.08,0-.09.06-.09.07-.09.06-.09.07-.08,0-.09,0-.09.09-.08.07-.09,0,0,.07-.09,0-.09.08-.06.07,0h.06l0-.09,0-.09.05-.09,0-.08,0-.09.05-.09,0-.09.17-.18.08,0,.07-.06H60l.08-.09,0-.1,0-.09.07,0,.06-.09.08-.09.06-.1.08-.08.06,0,.07,0,.07-.09.08-.07.08-.08.08-.09.08-.08.06-.09.1-.18,0-.09,0-.08H61.1l-.07,0-.09.09-.07,0-.06,0h-.06l-.06,0h-.06l-.08.06,0,0,0,0-.08.1-.08.07-.05.09-.08.09-.06.09v0l-.07.09-.08.07-.09.09-.07,0-.08,0-.08.07-.08.08-.08,0,0,0-.07.09v0l-.07.09h-.06l0,.09-.09.09-.07.05-.07.08,0,0,0-.09,0-.09,0,0-.09.07-.07.1,0,.09-.08,0h-.06l-.09.08-.08.09v0l0,.08-.09.08-.08.07h-.07l-.07,0-.08.09.05.06.06,0h.09l-.07,0-.06,0-.06,0,0-.07L58,52l-.1.1-.09.09,0,.05h0l.06.07,0,.09h0l-.07,0h.07l0,.05,0,.09-.09.07-.08.05h-.06l-.08,0h0l-.07,0,0,.09,0,.09-.05.08,0,0-.06.09-.08,0,0,.09.05.06h0l0,.08,0,.08,0-.09,0-.08h-.1l-.07,0-.1.06-.08.08,0,.09-.08,0,0,.09,0,.08v.09l0,.08,0,.09v.15l-.07.09,0,.09,0,.08v.09l0,.08v0c-.9-.08-1.86-.16-2.87-.22l.24-.73h.06l.09,0,.1-.07v.09l.06,0,.07,0,.07,0,.09,0,.05.07.07,0,0-.08,0-.09,0-.09.05-.09v.09h.16l.06,0h.08v-.09l0,0,.08,0,.07,0,.08,0,0-.08,0-.09,0-.09,0-.08.07-.09,0-.08v-.11l0-.08.06-.08.09-.08.09,0h.07l0-.08h-.08l.18-.12,0-.09,0,0,0-.09,0-.09.09,0,0-.1L56,52l0-.07V51.8l-.06-.08,0-.06h0l.06.08v-.18l-.05-.09-.06-.08,0,0v0l-.08.09-.09,0h-.19v0l-.08,0,0,.06-.06-.05-.09.07h0l.09-.09-.07,0,.06-.09,0-.09v0l0,0h.08v-.09h-.12l.06-.09,0-.09,0,0L55,51h-.08l-.07,0-.06,0-.08,0-.07,0-.09,0v0l0-.09v0C54.85,49.39,55.14,48,55.37,46.63Zm-5,14.72h.19l0,0,0,.08,0,.07-.09,0v-.24Zm0-.07A39.14,39.14,0,0,0,52.83,56h0L53,56l.09-.05h.08l.06.05h.07l.25-.05h.15l.06,0,.09,0,.19,0,.17,0,.18-.09.34-.08.06,0,.06,0h.06l0,0h.15l.1,0,.11-.07.08,0,.36,0,0-.17h.07l.08,0,.08,0,.13,0,.09-.09h-.07v-.08l-.06,0,0-.09v-.08l-.12,0-.19.06h-.06v-.07l-.1,0-.1.08-.08,0-.07,0-.07,0-.06,0-.1.07-.15.16H55l0,0-.09,0h-.14l-.16,0-.07,0-.09,0,0-.09v-.11l-.06,0-.09,0-.07.08h0l-.06,0-.16.07-.16,0h-.08l-.1.07,0,.06-.1.06v.09l-.24.1-.06,0H53l-.07,0c.14-.37.28-.75.41-1.13,1,.07,2,.14,2.88.22l0,0v.08l.07-.08.07,0h.08v.07l.08,0,0,0h.09l0,0v.09h0l0,0,.07-.05c.88.08,1.7.17,2.45.26a34.61,34.61,0,0,1-4.08,6.66C53.79,61.55,52.18,61.4,50.34,61.28Zm-2-1.15v-.07l-.06,0,0-.06,0-.09.08,0,0-.07,0-.08,0-.07v-.08l0-.08,0,0-.07,0v-.07l-.05-.08,0,.08-.08.07-.08.08-.07.07-.06.08-.08.07,0-.06v-.07l0-.08-.1.05,0,0,.06-.07,0-.08.07,0,.08-.07.08-.08-.07,0v0l.09-.08h-.08l-.07.07-.07,0-.1.06h-.25l.09,0h.08l.05-.07,0-.09.08,0,0-.07v0l-.06,0,0-.08-.08,0-.09,0,0,0,0-.08h.08l.06-.07-.08,0H47.4l-.06,0,.09-.09,0-.07-.06-.08-.08,0h0l0-.07,0,.07-.09,0,0-.08v-.13h0l0,0,0,.08,0-.08-.06,0H46.9l0-.07,0-.08h0l-.08.08h-.08l-.19.11-.08.08-.1.07-.1.05v0l0,.07v.08l0,.08v0l-.08,0,0-.07,0-.08h-.08v-.08l-.08,0-.09,0-.08,0-.09.08v-.08h-.09l-.09.08-.07,0,0,0,0-.08-.08,0,.1-.07.1-.07,0-.08,0-.08,0,0-.07,0v-.15l-.07,0L45.5,58h-.06l.11-.08,0-.07h0l0-.08-.07,0v-.08l-.09,0,0,0-.08,0,0-.08h-.09l-.07,0c.27-1.09.51-2.23.74-3.4,1.23,0,2.42.08,3.57.13l0,0,0,.08v.09l-.08.09v.08l.08,0,0,.08.09-.05,0-.17v-.08l0-.17h.33l0,0,.08.06.09,0,.08-.07.47,0v0l0,.08v.09l-.06.08,0,.09.18,0,.08,0,.09,0,.1,0,0-.09v0l0-.07,0-.09v0l2.33.14c-.13.38-.27.75-.4,1.12h0l-.18.08,0,.24,0,.08-.09.09.08,0,.05-.06h.07a38.65,38.65,0,0,1-2.46,5.22H50.2l0,0,0-.07,0-.07L50,61,50,61l-.06,0,0-.05H49.8l0,0-.09,0h-.13l-.05,0,0,0-.07,0H49.2l-.05-.07,0,0H49l-.08,0,0,0-.07,0h0l-.06,0-.07,0-.06,0-.06,0-.07,0-.05,0,0-.07,0-.08v-.07l0-.08Zm-8.25,6.14-.07,0-.07.06,0,0,0,0L40,66.3l.07,0,0-.06H40v-.06l.05,0,.06,0,0,0h.06l0,0h.09v-.06l0,0V66l0-.06,0-.06.07-.06,0,0h.06l0,.06V66l0,0h.12l.11,0v-.06l0-.06h-.06l-.05,0v0l0-.06v-.2l0,0-.05-.06,0-.06,0-.06-.06,0,.05-.06,0-.06.05-.06,0,0,0,.06v.06l0,0,0,.06v.05l0,.06.06,0,0,0,.05,0,0,0,0,0,0,.06,0,.06.05,0V66h-.06v0l.06,0,0,0,.06-.05.08-.06,0-.06-.07,0,0-.06.05-.06,0,0h0l.08-.06.07-.06,0-.06.09-.06.07,0h.07l.08-.07,0-.06h0l0-.06.08,0h.06l0-.06.08-.06.06,0h.06l.15-.07.05,0h.06c-.23.53-.47,1-.71,1.53-.66,0-1.34,0-2-.06l0,0,0,0,.06,0,.08-.06.07,0ZM42.64,65h.07l.09,0,.08,0,.08,0,.07,0,.08,0,0,0,.06,0h.58l.05,0L44,65l.11,0,.06,0h.05l.06,0,.08,0h.37l0,0,0,0,0,0,0,0,0,0,.05,0,0,0h.05l0,0v.13l0,0,0,0h0l0,0h.06l0,0,.09,0h.06l0,0,.07,0,0,0,.08,0h.11l0,0H46l.06,0h.21l0,0v.12h.12l0,0,0,.05v0l0,0,0,0h0l0,0h.12l.07,0H47l-.63.7c-1.31-.09-2.79-.16-4.39-.21C42.18,66.05,42.41,65.55,42.64,65Zm7.83-11.31v-.14l0-.09.09,0h.08l.16.13,0,.08-.08.09-.06.17,0,.09-.07.24-.5,0v-.09l0-.07.09,0,.2-.15.08-.08Zm4.59-2h0ZM47,46.23c1.55.05,3,.11,4.47.18v.06h0l0,.06.07,0,.06-.07c1.27.06,2.5.13,3.66.21-.23,1.36-.5,2.68-.83,4l0,0-.06-.07-.06-.09,0-.09v-.14h-.16l-.07,0,0,0L54,50v0l-.09,0V50h0v0h0l0,0,0,0h-.09l0,0,0-.09.05,0,0,0v-.05l-.08,0h-.11l0-.1,0,0,0-.09v-.09l-.07-.09-.07-.1,0-.1-.07-.09,0,.09,0,.1-.09-.08v-.09l-.1.06-.06.1H52.9l-.1.1v.24h-.08l-.08,0-.06.09.07.07h-.09l-.09,0h0l-.11.07-.08,0-.1.07h-.06l-.1.06.05.1.08,0,.09,0h.08l.1,0,.09.07-.08.09-.1.07,0,.09h.09l0,0,.1,0,.09,0,.09,0v.09l0,.05-.08.09-.1.09.08,0h.09l.08.05-.1.1,0,.09h0l-.08,0,0,0v0l-.05,0-.07,0,0,.08-.11.09,0,.09v.09l-.08.09-.21.16-.09,0-.11.09-.09.05h0v0l.08,0H52l.1,0,.1-.06,0,.1h.09l0,.1,0,.09v.08l0,.09v.24l-.07-.05v.18h.09l0,.09.05.09.09,0v.09l.07,0,0,.09.07.06h-.08l0,.09v.09l-.09,0h0v.09h.09l0,.09,0,.09.07,0,0,.09,0,.08v.09l.14.08.07,0,.08,0,.07,0,.07,0h.08V54l0-.08.06-.09v-.08h0l.07,0h0v-.06l.09,0,0,.07.07,0h0c-.07.21-.13.42-.2.62L51,54.29v0a1.36,1.36,0,0,1,0-.17l.1-.14v-.09l.1,0,.08,0h.09l.09-.17,0-.08.06-.09-.07-.06-.06-.08,0-.09v-.09l0-.08.06-.18v-.09l-.13-.26-.07.1,0-.08.06-.09v-.09l.08-.13h-.1l.05-.09,0-.08,0-.06V52l-.08,0-.17,0,0-.08,0-.09-.08-.06-.1,0h-.08l-.07.09h-.18l-.22,0-.2.07-.08,0-.09,0h-.09l-.19,0-.17,0-.07-.09-.09,0v-.09l-.1,0,0-.09H49l-.07.09.07.09,0,.09.15.17,0,.09.08.06.28,0h.18l.11-.09h.45l.08,0,.1-.05h.09l.08,0h0l.08,0h.09L51,52h.09l.08.06,0,.08,0,.19-.07.2-.08.09-.1,0-.09.09,0,.08-.06,0-.15,0,0-.08-.07-.11-.07-.08-.1.05h-.1l-.07-.07h-.27l-.08-.08-.08,0-.1,0,0,.09,0,.08.19-.06.08,0,.09.18.09.06.16.07,0,.08.08,0,.11-.07,0,.11-.09,0-.1.07-.32.34-.1.09.06,0,0,.09h0l0,.05,0,.09-.09.06-.09.08h-.09l0,.08.08,0,0,0q-1.8-.09-3.75-.15C46.32,51.61,46.69,49,47,46.23Zm-2.33,7,.11,0,.07,0H45l.09,0h.17l.09,0h.1l.09-.05.07-.09,0-.09h0l.09,0,.11,0h.09L46,53h0c-.06.37-.13.74-.19,1.1l-.73,0,0-.07,0-.09.05-.08.09-.07.08-.09.09,0h.09l0-.09-.09,0-.09,0-.11,0-.07,0-.06-.08L45,53.36l-.1,0-.19,0v-.08h-.09Zm.09.4v.07l-.08-.08Zm-.28.29.09,0,0,0,.11,0,.06-.08v-.06l0,.07.05.08,0,.08,0,0h-.42Zm-.24.06h0ZM40,55.74h0Zm-2.92-.69h0l.09-.09h.18l.17-.1.09,0,.08-.08-.18,0h-.19l-.1,0h-.09v0h-.09c0-.24,0-.48,0-.73l2.45,0v0h0l-.1,0-.07.08,0,0-.1,0-.09.05-.08.08-.09.09v.08l0,.08,0,.09h-.09l-.09,0-.09,0-.09,0-.1.05h0l-.09,0h-.19L38,55l-.08.08,0,.09.05.08h.36v.06l-.05.08,0,.08,0,.08-.09,0-.1.09-.09.08-.09,0,0,0-.06,0v0l0,.17-.1,0,0,.09-.08.08-.09,0h-.1l-.09,0,0,.08,0,.08-.09,0H37Zm0,1.72h0l.07,0,.17-.05h.09l.09-.06.09,0h.09l.09,0,.08,0,.09,0h0l.06,0,0-.08.09-.08.08,0,0,0,.08-.08,0-.08v0l.09,0,.09,0v-.08l.08-.08v0l0-.08.06-.07.09-.07.1,0H39l.09,0,.09,0h.07l.07,0V55.6l0,0,0,0h0l0,0h.07l0,.06h.08v0h.08l.09,0,.1-.08h0l-.06.07,0,.08-.05.09.09,0,.09,0,.06,0h0l-.08.08,0,0h.26l.09,0,.1,0,.09-.06.09,0h0l-.09,0-.09.07h-.09l-.09,0-.09,0-.1.08,0,.07.07.08.09,0,.09,0,.08,0h0l.09,0,.09,0,.07,0h.2l.09,0,.1,0,.09,0,.09,0,.1-.08.07-.09.06,0,.06,0,.1-.06,0,0v0l-.05-.08.05.08h.18l.08,0,.09-.09.08.08H42l0-.08,0-.09,0-.08.09-.08.09-.07-.09,0-.1,0,0,0,.09,0,.09,0,.09-.06-.08-.06-.09,0-.06,0L42,55.3l.09,0,.07-.08.09-.07.06-.09,0-.09h0l0-.06h.09l-.07-.07.1,0h.05v-.13l.09,0,.1-.06.09,0h0l.1,0,.09,0h.16l.1-.06.1,0,.1,0,.09,0h.16l.09,0h.09l.19-.09h0l0,0v0l1.58,0c-.22,1.18-.47,2.32-.74,3.42h-.18l-.08,0h-.09l-.08,0v-.15l.08-.08.09,0,.07,0,.1-.07.06,0-.08-.06-.07.08v-.08h-.08l-.08.08h0l-.09.06-.08-.06,0,.06-.06.08h-.09l-.09,0H44l-.1.07-.07,0-.09,0-.08,0-.1.06-.09.06-.08,0-.08,0-.09,0-.06-.09v.09l0,.08-.09,0-.05.08-.06,0-.08,0v-.16l-.08,0,0,.09-.09,0-.09.08.08.07.06.07,0,0,0,.08V58l.09,0L43,58l.07,0v.08l0,.08-.08,0,0,.07,0,.09,0,.08.05.07,0,.08.06,0,0,.07-.1.06-.09,0-.09.06-.09,0-.05.08-.09,0-.05,0-.09.07-.08,0-.09,0-.09.05-.09,0-.1.06-.08.08h0l-.09.06-.1,0h-.09l-.08,0-.09,0-.07.07,0,.08,0,0-.08,0-.09,0h0l-.09,0,0,0-.16,0-.07,0-.06,0-.06-.08v-.07l0-.08,0-.07,0,0,0-.09,0-.07,0-.08h0l0-.08v-.16l0-.07,0,0,0-.08,0-.07,0-.08,0-.08,0-.07,0-.08,0-.08v-.08l0-.08,0-.05h0l0-.08,0-.08-.08-.08-.08,0,.09-.06.08,0,0-.08,0-.09-.09,0,0-.09,0-.08,0-.08,0-.08v-.08L40.34,57l0-.06h-.08l0,.08-.09,0-.06.07,0,.08v.08l0,.08-.09.07-.08,0,.06.08-.06.07-.06.08,0,.08-.07.08v.08l0,.08,0,.08v.08l0,.08h0l0,.09,0,.08-.09.07-.08,0-.08,0-.08-.06,0,.08-.06.08-.08,0L39,58.6l-.08,0h-.06l0,.09,0,.07v.08l0,.07V59l0,.08v.15l-.07.07-.08.08v0l-.08,0,0,.08,0,.07,0,.07,0,.08v.08l0,.07V60l-.08.07-.06,0v.15l-.09.06-.16.09-.08,0-.08,0h-.08l0,.07v.06l-.08,0-.05.08h-.08l-.06,0-.06.07h-.08l-.08,0,0,.07.07,0H37C37,59.58,37,58.21,37,56.77Zm0,4.54v.07l0,.07,0,.07,0,.07h0c0-.22,0-.44,0-.66h.38l-.08.05-.08,0v.07l0,0v.07l-.08,0ZM35.65,54h0l-.09.07-.07.09,0,.17.09.06.07-.08v-.17l0-.09,0-.05H37c0,.21,0,.41,0,.62l0,0v-.08l0,.17-.09.05-.09-.05-.08,0-.09,0-.14-.17-.09-.07h-.14v-.08l.06-.17-.09-.07-.1.05-.09-.05-.1.06v.08l0,.08,0,.08.09,0,0,.08,0,.08.09.07h.18l.06.08.07,0,.09.06.09,0,0,0,.09,0,.09,0H37c0,.48,0,1,0,1.42h0v0h0v.13h0l-.09,0-.08,0-.09,0h-.1l.1,0,.09,0-.07.08.08,0h.1l.09-.06v0l0,0h.06c0,1.43,0,2.79-.07,4.06h-.12c-2.46,0-4.84,0-7.07.09-.56-2.08-1.05-4.37-1.46-6.83C30.58,54.05,33.07,54,35.65,54Zm1.18,7.46-.08.07-.16.1,0-.07-.08,0v0l0,.07,0,.07v.14l0,.07h0l-.08,0-.05.07-.07.06,0,0h-.11l-.07,0,0,.05,0,.07-.07.08-.07,0,0,.06,0,.07-.06.06-.08,0,0,.07,0,.07v0l-.08,0,0,.07,0,.06v.2l0,.07,0,.07,0,.07,0,.06,0,.07v.06l0,.07h0V64l0,.06,0,.07v.06l0,.06v.07l0,.07v0l0,.06,0,.07,0,.06v.13l0,.06v.06l0,.06,0,.06.06.06,0,.06v.12h0l.07,0,0,.06.06,0,.07,0,0,.06,0,.06,0,.05,0,.07v0l0,.07v0l.06.06v.06l0,.06,0,0V66h0l0,.06.06,0,0,.06,0,0,0,.06,0,0v.09h0c-1.76,0-3.47,0-5.07.06A41.93,41.93,0,0,1,29.69,61c2.23-.06,4.61-.09,7.06-.09h.12c0,.2,0,.4,0,.59Zm0,.07v.07l0,0v0Zm-7.42,4.95-.05,0,0-.05-.06,0v0l.07,0,0,0,0,0,.07-.24-.07,0,.08,0v-.07l0-.11,0-.18-.06,0,0,.12-.1,0-.05,0,0,0,0,.05-.05,0v.06l0,.11,0,0,0,.11,0,0,0,.06,0,0,0,0h-.19v0l0,0L27,66.7a29.65,29.65,0,0,1-3.68-5.41c1.91-.12,4-.21,6.28-.27a39.67,39.67,0,0,0,1.9,5.49c-.71,0-1.41,0-2.08.07v-.07Zm-.1.14h-.07l0,.08h-.06l0-.09ZM27,66.7c-1.36.08-2.57.18-3.59.3a30.17,30.17,0,0,1-5.1-5.29c1.42-.16,3.1-.3,5-.42A29,29,0,0,0,27,66.7Zm1.16-12.58A68.17,68.17,0,0,0,29.6,61c-2.27.06-4.38.15-6.29.27a41.82,41.82,0,0,1-2.84-6.78C22.79,54.3,25.37,54.19,28.13,54.12Zm-4.89,7.1c-1.9.12-3.59.26-5,.42A35.59,35.59,0,0,1,14.29,55c1.73-.2,3.79-.37,6.1-.51A43,43,0,0,0,23.24,61.22ZM18.53,46.56a51.54,51.54,0,0,0,1.84,7.81c-2.32.14-4.38.31-6.11.51a39.31,39.31,0,0,1-2.54-7.75C13.65,46.91,16,46.72,18.53,46.56ZM11.07,21.68l0,.06v.05l-.07.08L11,22,11,22l0,.08h0v.1l0,0v0l0,0v0l0,0v.08H11l0,.08,0,0v.05l0,.07v0l.05-.08,0,.08.05,0v.08h0v.05l0,.09,0,0,0-.08,0,0h0v.07h0l0,.08.05,0,0,0,0,.09h0l0-.08h0l.07-.06,0,0,0,.08v.07c-.42.08-.81.15-1.14.24Q10.61,22.42,11.07,21.68Zm-.94,1.57L11.29,23v0l.05,0v.07l.08-.08,0,0h0l0,.06-.05.08,0,0,.06,0,.09-.09,0,.09,0,.08.05-.08.06-.09,0,0h0v0c.77-.14,1.69-.26,2.72-.38A35.27,35.27,0,0,0,11.66,30a38.49,38.49,0,0,0-4.55.73A31.68,31.68,0,0,1,10.13,23.25Zm-3,7.57a38.49,38.49,0,0,1,4.55-.73,39,39,0,0,0-.9,8.36A40.5,40.5,0,0,0,6,39.21,33.37,33.37,0,0,1,7.09,30.82ZM6,39.3a43.16,43.16,0,0,1,4.73-.75,40.08,40.08,0,0,0,.9,8.49,40.56,40.56,0,0,0-4.56.73A33.84,33.84,0,0,1,6,39.3Zm4.1,16.24a34.36,34.36,0,0,1-3-7.68,41.11,41.11,0,0,1,4.55-.73,38.9,38.9,0,0,0,2.55,7.75A35.76,35.76,0,0,0,10.11,55.54Zm4.72,6.64a33.63,33.63,0,0,1-4.67-6.56A35.15,35.15,0,0,1,14.24,55a34.75,34.75,0,0,0,3.94,6.68A27.64,27.64,0,0,0,14.83,62.18ZM21,67.39a32,32,0,0,1-6.06-5.15,30.33,30.33,0,0,1,3.34-.53A30.27,30.27,0,0,0,23.35,67,21.45,21.45,0,0,0,21,67.39Zm7.22,3.45A30.31,30.31,0,0,1,21,67.43c.57-.13,1.38-.26,2.39-.38a24.65,24.65,0,0,0,6,3.59A12.13,12.13,0,0,0,28.17,70.84Zm1.29-.21a24.68,24.68,0,0,1-6-3.58c1-.12,2.22-.22,3.57-.3a19,19,0,0,0,4.36,3.73C30.65,70.52,30,70.57,29.46,70.63Zm1.93-.16a18.57,18.57,0,0,1-4.33-3.72l2-.1v0l0,0v.06l0,.06,0,0-.06,0L28.9,67h-.07l-.07,0-.09-.07-.14-.05-.08,0,.06,0,0,.06.08.11.05.05.09.06h0l.07.09,0,.06,0,0H29l.08,0,.08,0,.07,0,0,.1.12.12.08,0,.06.06.11.07,0,0,.13.11.08,0,.14.06H30l0,0h.07v0h0l-.07,0v0l-.07,0-.08-.06-.08-.11v-.09l0,0h.06l0,0,0-.05h0l0,0v0L30,67.35l-.07,0-.1,0-.06,0-.06-.05-.05-.09L29.53,67l0-.06,0,0,0-.06,0,0v0l-.06-.06.09,0h0l2.1-.07a16.65,16.65,0,0,0,2.25,3.81Zm5.16-.13h0c-.94,0-1.84,0-2.69,0a16.65,16.65,0,0,1-2.22-3.81c1.59,0,3.28-.07,5-.06h0v.07l0,0v.06l0,.06v0l0,0v0h0C36.66,68.27,36.61,69.44,36.55,70.34Zm0,0c.07-.89.13-2,.18-3.45l.05,0h.39l.06,0,.06,0,0,0,.05,0,.06,0,.05.06,0,0h.17l0,0,0,0v.11l0,0,.06,0h.06l.06,0,.06,0v0l0-.05h.06v.05l0,0,.06,0-.05,0h0V67l.05,0,0,0,.05,0,0,0-.06,0h.05l0,0,.05,0,0,0,0,0,.05,0h0l.06,0,.06,0,.06,0,.07,0,.07,0H39l.06,0h.07l0,0,.07-.05.07,0,0,0h.12l.07,0,0,0,.06-.06,0,0,.06,0,.05-.06,0,0,0-.06h0l0-.06v0l2.05,0a15.89,15.89,0,0,1-2.56,3.8C38.44,70.36,37.53,70.34,36.58,70.34Zm2.74,0a16.53,16.53,0,0,0,2.59-3.8c1.58,0,3.05.12,4.37.21a19.87,19.87,0,0,1-4.63,3.71C41,70.45,40.16,70.41,39.32,70.38Zm4.17.28c-.51-.06-1.12-.12-1.82-.16a19.51,19.51,0,0,0,4.65-3.71c1.31.09,2.46.2,3.4.31A25.47,25.47,0,0,1,43.49,70.66Zm2.88-3.92c.21-.23.43-.47.63-.71h0l.08,0h.07l.09-.06.1-.06.09,0,.07,0h0l.06-.06,0-.06,0,0,0-.06h-.11v-.12l.05-.06,0-.06.06-.06,0-.06,0,.06,0-.06,0,0,0-.06,0-.07L48,65l.05-.06.07-.06.08-.06.06-.06.07-.06.08-.07.06-.06.06-.06,0-.06.07-.07h0a1,1,0,0,0,.08-.14l0-.06.06-.06.06-.06.09-.07L49,63.9l0-.06.08-.06.08-.07.09-.06.05-.07,0-.06.05-.06.07-.08.07-.06.07-.07.08-.06.09-.07h0l.09-.07L50,63l-.1.07,0-.07-.08.07-.06.06-.07,0v-.07l.08-.06.1-.07.05-.07.07-.06H50l-.08.07,0,.06,0,0V62.9l-.06.06,0,.07h-.08l0-.07,0-.06,0-.07.1-.07.07-.06.06-.07.1-.07,0-.07h0l0-.07.1-.07,0-.07,0-.07,0-.07,0-.07V62l0-.08,0-.07.05-.07.07-.07,0,0v-.14l0-.08,0,0c1.72.12,3.23.26,4.49.42a30.26,30.26,0,0,1-5.28,5.27C48.84,66.93,47.68,66.83,46.37,66.74Zm5.64.71a16.38,16.38,0,0,0-2.19-.39,30.31,30.31,0,0,0,5.29-5.27,20.74,20.74,0,0,1,3,.55A32,32,0,0,1,52,67.45Zm6.21-5.18a22.18,22.18,0,0,0-3-.55,34.92,34.92,0,0,0,4.08-6.66,25.56,25.56,0,0,1,3.73.67A32.79,32.79,0,0,1,58.22,62.27ZM63,55.65A25.3,25.3,0,0,0,59.29,55a37.93,37.93,0,0,0,2.63-7.74c1.37.17,2.51.36,3.4.55l-.06.08-.05.07,0,.1,0,.06,0,0-.05.09,0,.09v0l-.06.1,0,.1,0,.05-.05.09v0l0,.09v0h0l0,.07,0,.1,0,.09v.18h0l0,.15h0l0,0h0l0,0v0l0,0h0l0,0,0-.09,0-.07v0l0-.07,0-.07,0-.09v0l0-.09v-.05l0-.09,0-.06,0-.09,0-.1,0-.09,0,.09h0v0l0-.1v0l0-.1v0l0-.1V48h0l0-.09v-.09l.2,0v0l0,0h0l0,.09h0l0-.06h.07l.06.06v.22l0,.09v.09l0,0,0,.05,0,0,.05-.07h0l0-.09.05-.09,0-.09h0v0h0l0-.06v0L66,48l.08,0A33.3,33.3,0,0,1,63,55.65Zm3-7.78v0l0-.06,0-.1v0h0v0l0,.1,0-.1,0,0v0h0l0-.09,0-.1,0-.09,0-.1,0-.09,0-.09,0-.1,0-.06c-.08.34-.16.68-.25,1Z"/><polygon class="cls-14" points="12.3 21.03 12.29 21.1 12.35 21.04 12.35 20.99 12.34 20.95 12.3 21.03"/><path class="cls-15" d="M38.63,13.1l.11,0,.3,0L39.2,13l.12,0,.13,0,.06,0,.05,0h-.15l-.07,0-.07-.06-.05-.05,0-.05h0a6.32,6.32,0,0,0-.63.26l0,0Z"/><polygon class="cls-16" points="48.66 55.93 48.59 55.91 48.56 55.99 48.65 55.96 48.66 55.93"/><polygon class="cls-17" points="47.66 53.83 47.71 53.92 47.79 53.96 47.88 53.99 48.06 53.91 48.16 53.84 48.23 53.75 48.22 53.66 47.95 53.65 47.85 53.66 47.66 53.83"/><polygon class="cls-18" points="47.66 55.76 47.84 55.74 47.91 55.79 47.92 55.72 47.86 55.63 47.77 55.67 47.68 55.64 47.6 55.6 47.5 55.67 47.58 55.7 47.66 55.76"/><polygon class="cls-19" points="49.99 62.96 50.16 62.82 50.21 62.75 50.12 62.82 49.99 62.96"/><polygon class="cls-20" points="48.53 56.78 48.62 56.78 48.66 56.63 48.66 56.47 48.59 56.39 48.45 56.3 48.28 56.25 48.18 56.18 48.14 56.06 47.82 55.99 47.73 56 47.64 55.98 47.47 55.96 47.39 55.94 47.22 55.95 47.28 56.03 47.35 56.08 47.43 56.11 47.58 56.19 47.66 56.21 47.74 56.26 47.97 56.33 48.07 56.4 48.1 56.48 48.3 56.7 48.39 56.7 48.53 56.78"/><polygon class="cls-21" points="50.33 56.37 50.25 56.35 50.1 56.48 50.02 56.47 49.93 56.55 49.83 56.63 49.84 56.7 49.99 56.73 50.08 56.72 50.18 56.63 50.4 56.53 50.56 56.51 50.62 56.49 50.67 56.43 50.65 56.39 50.58 56.37 50.41 56.35 50.33 56.37"/><path class="cls-22" d="M49.8,47.12l.11,0,0-.06v-.21l-.1.08-.09,0-.09,0,0,.1,0,.2-.07,0,0,.18h.09v.1l.1-.07v-.07l0-.08v-.14Z"/><polygon class="cls-23" points="48.86 56 48.95 55.98 48.92 55.9 48.8 55.89 48.7 55.91 48.78 55.97 48.86 56"/><path class="cls-24" d="M49.17,56l.09,0h.17l.08,0,.08,0,.08,0,.07,0h.18l.18-.05h.08l.08,0,.06,0,.09,0,0-.08-.14-.11h-.07l-.26,0-.2.09h-.09l-.07,0h-.08l-.15.07h-.08l0-.09-.07,0,0-.09h-.09l0,.08.07,0Z"/><polygon class="cls-25" points="49.72 54.63 49.72 54.46 49.67 54.38 49.59 54.33 49.55 54.43 49.59 54.68 49.72 54.63"/><path class="cls-26" d="M49.06,55.9H49L49,56Z"/><path class="cls-27" d="M47.5,51.36h.07l0-.09,0-.08-.11-.11-.07.07v.05l0,.08Z"/><polygon class="cls-28" points="50.17 46.71 50.27 46.66 50.4 46.52 50.44 46.53 50.51 46.62 50.55 46.62 50.52 46.53 50.54 46.38 50.44 46.38 50.34 46.45 50.27 46.53 50.16 46.58 50.14 46.62 50.16 46.62 50.17 46.71"/><path class="cls-29" d="M50.4,47.89l0,.09.1.07h0l.07-.09.14-.09.08-.1,0-.1-.08-.06-.08,0,0-.09v-.16l0-.1v-.05l0,0-.09,0-.09,0-.07.09,0,.1.06.07v.09l.06.2v.09Z"/><polygon class="cls-30" points="50.57 47.01 50.62 47.1 50.7 47.12 50.78 47.26 50.95 47.29 51.07 47.4 51.09 47.21 51.06 47.12 51.07 46.85 51.09 46.75 51.18 46.73 51.14 46.65 50.94 46.75 50.83 46.85 50.69 46.85 50.67 46.9 50.58 46.85 50.54 46.89 50.57 47.01"/><polygon class="cls-31" points="50.15 47.48 50.23 47.56 50.25 47.6 50.3 47.79 50.37 47.89 50.37 47.69 50.34 47.57 50.32 47.54 50.29 47.44 50.16 47.19 50.16 47.08 50.09 46.99 50.1 47.08 50.08 47.38 50.15 47.48"/><polygon class="cls-32" points="49.99 47.53 49.9 47.53 49.8 47.6 49.77 47.72 49.85 47.77 49.95 47.79 50.11 47.78 50.14 47.65 50.05 47.6 50.04 47.57 49.99 47.53"/><polygon class="cls-33" points="49.98 46.78 49.88 46.78 49.9 46.88 49.92 46.88 49.98 46.78"/><path class="cls-34" d="M48.71,49l.08.07,0,.09v.22h0l0-.09,0-.18.12-.19h.08l0,.11.07.1,0,.07-.11.08-.08.17v.09l.1.18h.06l.06-.09v0l0-.09,0,0,.06.09h.09l.2-.07.17-.1.07-.09a.88.88,0,0,0,0-.16l.05-.09,0-.09-.05,0v0l0-.08.07-.09.19-.09h.07l0,.09v.09l.11,0,.06-.1,0,.1.08,0,0-.09v0l.1,0,.08.1v.09l.05.09,0,.12h.09l0-.1-.08-.18v-.08l-.05-.15-.1,0-.15,0-.08,0v-.05l-.06-.1-.12-.05h-.13l-.08.09,0,.09,0,.1.05,0h0l0,0L50,48.48h-.09l0,0,0-.13-.09,0-.08,0h0v-.2h-.1l-.09,0v-.1l-.1,0h-.06V48l.09-.23-.09,0-.17.1,0,.09,0,0-.06,0V48l-.08.14.1.08-.1.05,0,.1v.05H48.8v.09l0,.06-.06,0-.06.1v.09l0,0Z"/><path class="cls-35" d="M52.25,47.42l.09.08.08.1h.08l0,0v.13l.1.16.17.12,0,.1.08.07.09,0,.08.09.08.05,0-.09L53,48.05,52.94,48l-.08,0-.13-.19-.08-.08,0-.09-.06-.09-.07,0-.06-.1-.08,0v-.1l0-.09-.1.09.07-.09-.07-.2v.2l-.11.2.06.09Z"/><path class="cls-36" d="M49.59,47l.06,0,.06-.09v-.1l.1-.1v0l.1,0,.07-.09,0-.11h-.28l0,0h-.09l-.08,0,0,.11-.11,0v0h0l0,.06,0,.06,0,.17,0,.06,0,0,0,.12.22,0Z"/><polygon class="cls-37" points="49.53 54.11 49.51 54.05 49.41 54.07 49.43 54.16 49.53 54.11"/><polygon class="cls-38" points="48.49 55.97 48.44 55.89 48.48 55.84 48.38 55.86 48.21 55.85 48.17 55.93 48.41 55.97 48.49 55.97"/><polygon class="cls-39" points="57.49 52.37 57.48 52.28 57.46 52.28 57.36 52.37 57.28 52.41 57.34 52.41 57.49 52.37"/><path class="cls-40" d="M49.1,56v0L49,56Z"/><polygon class="cls-41" points="42.13 55.87 42.06 55.86 42.01 55.94 42.09 55.95 42.13 55.87"/><path class="cls-42" d="M56.84,43.36l.1,0v.1H57v0l.17-.05h0l.09-.06h0v-.1l0-.1,0-.21-.16-.17-.08-.06v-.1l-.08,0L57,42.54h-.12l0,0-.05,0h-.1l0,.05,0-.05h-.23l0,.1v.1l.07,0,.06.1,0,.09h0l0,.2.16.12.05.09Z"/><path class="cls-43" d="M57.41,52.53h.07l0-.09h-.06Z"/><path class="cls-44" d="M35.52,63.53h0v0Z"/><path class="cls-45" d="M38,67.83l-.06,0h0l-.06,0-.06,0-.05,0-.06,0-.05,0h-.09l-.05,0-.06,0,0,0h-.17l-.05,0h0l-.05,0-.06,0v.39l0,0,0,0v0l0,.05,0,0v.13l0,0,0,0-.05,0,.05,0h0l.06,0h0l0,0v0l0,0,0,0v.09l0,.05,0,0h.05l.06,0h.05v0h0l0,0,0,0,.06,0,0,0,0,0,0,0v0l-.05,0,0,0,.06,0v-.05l.06,0,0,0,0-.05,0,0,0,0,0,0v0l0-.05Z"/><polygon class="cls-46" points="35.66 62.61 35.58 62.56 35.55 62.48 35.53 62.56 35.63 62.76 35.64 62.83 35.66 62.82 35.69 62.75 35.65 62.68 35.66 62.61"/><polygon class="cls-47" points="31.41 68.48 31.34 68.45 31.28 68.41 31.21 68.36 31.18 68.34 31.13 68.28 31.01 68.14 30.91 68.1 30.84 68.05 30.76 67.99 30.71 67.88 30.66 67.84 30.58 67.8 30.52 67.79 30.46 67.76 30.53 67.81 30.51 67.85 30.46 67.84 30.47 67.89 30.5 67.93 30.51 67.98 30.46 67.98 30.36 67.92 30.23 67.88 30.3 67.92 30.31 67.97 30.34 67.99 30.28 67.97 30.24 67.92 30.18 67.92 30.23 67.97 30.28 67.98 30.29 67.99 30.23 67.98 30.31 68.04 30.3 68.09 30.32 68.14 30.39 68.19 30.45 68.24 30.46 68.25 30.61 68.34 30.75 68.47 30.83 68.51 30.89 68.53 30.95 68.58 30.97 68.6 30.99 68.65 30.95 68.67 30.94 68.72 31.14 68.74 31.35 68.81 31.44 68.86 31.53 68.94 31.56 68.99 31.59 69.04 31.71 69.13 31.75 69.17 31.84 69.26 31.88 69.3 31.93 69.31 32.06 69.39 32.12 69.42 32.17 69.46 32.27 69.49 32.35 69.5 32.38 69.47 32.42 69.48 32.47 69.48 32.46 69.44 32.5 69.41 32.57 69.42 32.57 69.38 32.61 69.36 32.67 69.39 32.78 69.38 32.74 69.33 32.79 69.34 32.74 69.3 32.8 69.32 32.8 69.31 32.75 69.27 32.65 69.24 32.7 69.24 32.64 69.22 32.69 69.22 32.63 69.19 32.67 69.18 32.61 69.14 32.58 69.17 32.59 69.13 32.55 69.08 32.5 69.04 32.45 69.04 32.36 68.96 32.3 68.94 32.27 68.9 32.2 68.87 32.15 68.82 32.08 68.78 31.98 68.76 31.8 68.67 31.74 68.66 31.67 68.61 31.55 68.56 31.46 68.5 31.41 68.48"/><polygon class="cls-48" points="36.34 62.08 36.4 62.02 36.33 62.04 36.34 62.08"/><polygon class="cls-49" points="42.59 55.95 42.5 55.71 42.46 55.65 42.38 55.57 42.21 55.52 42.15 55.51 42.05 55.58 41.99 55.66 42.05 55.74 42.06 55.82 42.13 55.87 42.22 55.95 42.59 55.95"/><path class="cls-50" d="M56.37,53.64l.17-.09.09-.06,0-.09.15-.17h.14l.05-.09,0-.09v0l0-.05-.1.08V53l-.08.05-.07.09-.08.17-.06.08-.08,0-.09.09v.08l-.06.09Z"/><polygon class="cls-51" points="52.28 56.14 52.32 56.14 52.36 56.04 52.46 55.98 52.63 55.91 52.67 55.82 52.46 55.86 52.4 55.81 52.31 55.83 52.22 55.88 52.14 55.97 52.28 56.06 52.28 56.14"/><polygon class="cls-52" points="51.45 55.86 51.37 55.85 51.4 55.95 51.45 55.86"/><polygon class="cls-53" points="50.86 56.13 50.94 56.15 51.04 56.09 51.18 56.17 51.25 56.17 51.32 56.21 51.47 56.25 51.55 56.23 51.65 56.17 51.67 56 51.52 55.95 51.34 56 51.24 56.09 51.17 56.08 51.1 56.03 51.29 55.93 51.34 55.84 51.26 55.82 51.17 55.85 51.11 55.93 51.03 55.89 50.94 55.91 50.9 55.99 50.89 55.91 50.8 55.94 50.71 56.1 50.78 56.14 50.86 56.13"/><path class="cls-54" d="M51.78,56.13l.07,0,.08,0,.1-.06H52L52,56v-.08l-.06-.07-.09,0-.09.08v.08Z"/><path class="cls-55" d="M46.07,54l.1-.07.22-.07.1-.06h.09l.08,0,.2,0,.09-.05.08.08h.09l.08-.1.09,0v.09l0,.08,0-.17-.07-.07-.09,0-.09,0h-.18l-.1.05-.17-.07-.2.06,0,0h-.19l-.09.06,0,.09-.1,0L46,54Z"/><path class="cls-56" d="M55.85,53.44l-.1.11v.09l0,.08.08,0H56l.06-.17v-.09h0Z"/><path class="cls-57" d="M47.63,52.12l0,.09v.07l-.1.18-.15.17.1,0,.24-.26v-.16l.1-.17v-.09l0-.1.06-.09,0-.08,0-.18-.12-.18-.09.27v.09l0,.09.08.06v.08h-.09l0-.08-.09,0,0-.09-.08-.07-.09,0-.1.08v.09l0,.09.09,0,0,.09-.1,0-.09,0,0,.09-.1.05.38-.09Z"/><polygon class="cls-58" points="54.87 55.67 54.86 55.65 54.78 55.68 54.87 55.67"/></g><path class="cls-59" d="M17.5,22.42a3.28,3.28,0,0,1-.15.36c-.26.49-.49,1-.7,1.5l1.85-3.84-1,2Z"/><polygon class="cls-60" points="15.02 26.59 15.02 26.59 14.93 26.65 15.02 26.59"/><path class="cls-61" d="M5.14,34.93h0v0h0Z"/><polygon class="cls-62" points="6.79 39.85 6.81 39.96 6.79 39.86 6.79 39.85"/><path class="cls-63" d="M38.38,55.41l0-.09,0-.1v-.07L38.3,55l0-.22,0-.1-.07-.08-.09,0h-.48l-.09-.06-.11,0-.15-.12h0l-.06,0,0-.09-.09,0-.09-.07L36.82,54l-.06-.08-.09,0-.29-.19L36,53.55h-.25l-.24,0h-.09v.07l-.19-.06-.1,0,0,0H35l-.05,0h-.1l-.18-.1-.2,0h-.1v0l-.19,0-.09.06v.05l-.06,0v-.08l.08-.09H34l-.06,0,0,.17-.09.07-.07.1h0l.06-.09v-.08l.05-.17.09-.08,0-.09-.09.06h-.1l.09,0,.07-.08L33.71,53h-.09v0h-.1l0,.09L33.44,53l0-.09L33.4,53l0-.09-.33-.06L33,52.73h-.19l-.2-.11h-.1l-.07-.07,0,.09-.1-.08-.05,0h-.17l-.09.09,0,.14-.08.09.15,0L32,53,32,53l-.09-.1-.08.07-.07.09-.09,0-.06.09-.07.18,0,0v-.09l.09-.27h-.1l-.09,0-.06.09,0-.09-.07,0-.09,0-.09,0-.11-.07h0l0-.1v0l.08.12.11,0,0,0,0,0h.09l.09,0,.09,0,.09,0,.1-.05h.09l.09,0,.1-.07v-.09l.07-.07.05-.09,0-.18-.06-.09-.32,0-.09,0L31,52.33l-.1,0-.07.09v.09l.07.06h-.06l-.05,0,0,0,0,0,0,.1.1,0h0l0,.06h-.1v.09l0-.18h-.1l-.26.17h0l-.09.07-.18.06h0L30,53h-.11l.22-.11.1,0,.05-.12.09-.06v-.08l.16-.27.05-.06.06,0,.11-.11.09-.06.2-.27.09-.08v-.06h-.06l.06,0,.05-.09v-.09l-.05,0-.1,0h-.1l-.1-.09-.08,0v-.1l-.07-.09V51l-.09-.18,0-.08,0-.28,0,.11,0-.19-.1-.09-.09,0,0,.09.05.1-.06-.09-.07,0v-.09l-.1-.18,0,.09,0,0,0-.1L30,50.11l-.1-.06,0,.07,0-.09h-.05L29.77,50l-.23-.2h0l-.25-.05-.1-.06-.09,0-.09.15,0,0,.06-.09,0-.09-.11-.07-.4,0v.06l-.06,0-.11-.06h-.2l-.09,0,0,0v.08l-.1-.08-.2,0-.25,0v0h0l0,.12-.05.1,0-.1v-.18l-.09-.09h-.09l-.11-.13L27,49.14h-.1l0,0h-.08l-.05.09v.12l0,0,0-.1v-.1l0-.09V48.9l-.07-.09-.11-.12-.13-.1-.1-.07-.11-.06-.1,0,.1.07L26,48.41l-.1-.1-.13,0-.09,0,0,0-.12,0h-.09l-.18.08-.2-.08v0h.22l.06-.26.1-.12-.1-.09h-.1l-.19-.11H25v0l0,.05v-.06l-.06-.07-.1,0h0v0l.1,0h-.07v.1h0l0,0,0-.1,0,.1h0l-.06-.1v0l-.1-.11-.07.1h-.08l0-.05.08,0,.09-.07-.07-.09-.09.05v-.1l.1,0h.19l.09-.06.1,0-.09,0-.3,0-.09,0h-.1l-.19,0-.1,0h-.1l-.09,0h.09l.1,0h-.19l-.09,0-.18.11,0,0h-.19l-.22-.06H23l-.15-.13,0,0-.1,0h-.23l-.42.06h-.18l-.1,0,0-.05,0-.08L21.68,47l-.19-.13-.34,0-.1-.06L21,46.72l0-.1-.09-.09-.1,0v.07l0,.09h0v.08l.1,0H21l-.05.09-.1-.05v.09L20.7,47l-.18,0-.24.14-.07.05h0v.11l.12.17.14.16v0l0,.23-.09.11-.14,0-.1-.08v-.07l-.13,0,0-.09L20,47.7l0-.1.15-.22v-.06l0-.09-.08-.12,0,0-.1-.08,0-.1v-.09l.08,0h.09l.09-.07v0l.09-.1-.07-.1-.17-.07-.17.1-.09.08,0,.1-.22.09-.05,0,0,0-.11.06-.08.08h-.23l-.1,0L19,47v.13l-.06.09h0v-.09l.1,0h-.08l-.19-.07h0l-.06.11-.08,0v0h0l-.08.06v.1l0,0,0,.09v.13l0,.09,0,.1H18.3l-.07.07,0,.1-.1.12-.07.07-.05.09.07.22-.08,0,0-.09-.22-.18-.05-.08h-.06l-.09-.09-.08-.1L17.4,48l-.08,0-.17-.07H17l-.08,0,0,0h-.13l-.07,0h-.08l-.06.1h-.06l-.07.07-.15,0-.11.1-.14,0-.14,0L15.81,48l0,.09h-.12l-.08,0V48l-.08,0,0-.09-.07-.06-.15-.11-.07-.1h0l-.12-.14L15,47.32,15,47.25h0l0-.09h0l0,0L14.85,47l.05-.19-.07-.09,0-.13v-.09l0,0,0-.09,0-.1.05,0,0,.1h0l0,.09,0-.07,0-.1v-.09l0-.06,0-.19v-.25l.07-.16v-.1l-.06-.16.06-.13-.05,0-.06-.1-.08,0h0l-.08,0-.08-.11,0,.09,0,0-.05-.09h.06l.08.06v0l-.08,0-.15-.16-.08,0-.07,0-.14-.05-.18.05-.08,0v0h-.08l0,0h-.08l-.07.06,0,0-.23,0-.1,0-.07,0-.08-.07-.1.08-.07,0-.07-.06h0l0,.07v0l-.11-.07v-.05l.07-.13.07-.06,0-.09v-.09c0-.1,0-.21,0-.31l0-.1,0,0,0-.27v-.1l-.08-.1v-.12l.08,0v.1l.1.2.09-.59L13,43v-.07l0-.1-.07,0,.07-.2V42.5l0-.1,0-.09.09-.11.05-.1v-.24l0-.1-.08-.06-.08.08-.28-.08-.09,0h0l-.14.08-.36.08L12,42l0,.1h0l0,.06v.29l0,.1v0l-.06.09v.21l0,.09-.13.12-.06.08h0l.06.1h0l-.06.09h-.05l-.07,0,0-.09h0l-.08-.05-.13,0,0,0,0,.07,0,0-.07,0-.07,0H11l-.22.13-.07,0h0l-.09-.19h-.06l-.1-.09h-.12l0,0v0l0,0v0h0v-.05l0-.06.06,0-.06,0,0-.1-.08-.14,0,0,0-.2,0-.11-.19-.32-.09-.28-.05-.18,0-.08,0-.1v-.09l0,.09.08.15v.1h0l0-.1,0-.06-.06-.09-.05-.09,0-.1v0l0-.1v-.16l0-.1v-.37l0-.1v-.33l0-.1,0-.1v-.34l.06.05a.76.76,0,0,1,0,.15l0,.21,0,.41h0v-.3l.05-.33.09-.3,0-.21,0-.1-.07-.46,0-.1-.06,0,0-.1.06,0h0l.06-.2,0-.08h.07l0-.1v0l.06,0V38l.06.08L10,38l-.06-.08v0l0,0,0,0V37.8l.06,0,0,0v0l.06,0L10,38l.19-.15.07-.07h0l.07-.08,0-.07.08-.09,0-.21h0l0,0,.07,0v.1h0l-.07.09.13-.11.07,0,.07,0,0,0,0,0,.06-.09,0,.09v0H11l0,0,.13.06.07,0,.13,0,.07,0,0,0,0-.1.07,0,.12.13.06-.05v0l.08.2h.12v0l.08-.07.08.13,0-.05v-.1l0-.1.13.09.06.09.08,0,0,.12.08-.08.07,0v0l-.05-.07-.07,0-.08-.07v-.1l.08-.09v-.08h0l-.07,0,0,0,.07-.07v0h-.07l-.06,0h0l-.1,0,0-.1.08,0,.1.08h0l.06,0v0l.11-.08v0l.16,0h0l.09,0h.16l.06-.1,0-.1,0,0v.1l.05.1-.08,0H13l.08,0,.06-.08v0l0,0h.07v-.06l0,0v.1l0,0,.2,0,.15,0,0,0v0l0,0h-.12l.14.06.15.09,0-.08h.07v0l.1.08-.07,0,0,.06.07.06v.1H14l.2-.1v0h0l.08-.06h.07l.14.1.09.2.07.08,0,0,.15.12,0,.1v.2l-.07.21v.09l0,.06,0,.11.06-.11,0-.09,0,.1v.1l0,0,0,.1,0,.12.05.16.09,0,0-.1.07,0V39l.11-.07-.06.09.05.21,0,.1h0l.16.08.07.2.08.08-.08,0,.08.07h.08l.17-.08.06-.23,0,0,0-.1,0-.4V38.8l0-.11,0,0h0l0-.21L15.71,38l0-.1v-.1l.08.07v.2l0,.09,0,.11-.05-.19v-.2l-.12-.25-.06-.19-.06-.2,0-.35,0-.1c0-.09,0-.18,0-.28l.09-.08-.08-.08.08,0,0,0,0-.1.09-.07v-.1h.08l0-.07.06-.11v-.14l0,.09H16v-.1H16l0,0a17.38,17.38,0,0,1-.51-7.38h0l-.08.06-.06,0,0,.09v0h0l-.09.05,0,.09,0,.09-.08.08,0-.08-.07.08,0-.08,0-.09-.07.09h0l-.09.06-.08.08,0,.09,0,.1-.07.09-.08.09v.09l0,.1,0,.09v.09l.05.08,0,0V30l0,.09,0,.09-.05.1-.05.09-.07.09-.07.09-.06,0-.08.05-.08,0-.07,0,0,0h0l0-.09v-.06l0-.09v-.09l0-.09v-.06L14,30v-.1l0-.18,0-.09.05-.09,0-.09v-.09l0-.1.08-.09,0-.09,0-.09.07-.1,0-.08-.08,0-.07.09h-.07l0-.09.06-.1.08,0,0-.07,0-.07.08-.09.06-.08.09-.1.07-.09v.1l.09-.09h.07l0,.09.09-.05.08-.09h.06l.08,0,.08,0,.08,0,.07,0,.07,0,0,.06,0,0c0-.1,0-.2,0-.3h0v0l0-.1h-.08l-.08,0h-.14l-.14,0-.09.05-.08.06-.07,0-.06,0h-.14l0-.09,0-.09,0,0h-.21v-.12l.05,0,.09-.09.09-.07,0,0,.07,0-.06,0h-.07l-.07,0-.09.07,0,.09v0l-.08,0-.09.08-.07,0-.08,0H14l-.09.07h0l-.07,0-.07,0h0l-.06,0h-.07l.06-.08v-.09l-.08,0-.06,0-.08,0-.14,0,0,0,.07-.06.08-.06.08-.07.09-.06.08-.08.09-.08.09-.07.07,0,.08,0,.14,0h0l.07,0,.08-.06.08-.06.07-.08,0-.09.08-.06.06,0,0,.09.08-.09.08-.09,0-.08h.08l-.05.09-.06.08.09-.08.07,0v-.17h0l.06,0,.06,0,.06,0,.06,0h.06l.07,0,.06,0,.07,0,.06,0v.26l0,.08,0,.08.13,0,.08,0h0a17.43,17.43,0,0,1,1.09-3.32h0l1.69-3.47c-2-1.47-6.66-4.49-9.93-7.07C4.49,15.06,0,16.87,0,16.87l2.65,5s7.84-2.62,7.8-1.5a5.62,5.62,0,0,1-.39,1.22c-.33.86-.84,2.07-1.41,3.43a31.56,31.56,0,0,0-3.46,9.59h0l0,0,0,0v.14l0,0,0,0v.19l0,0,0,0,0,.14,0,.09v.48l0,.09V36l0,.1,0,.19,0,.17v.15l0,.08v.59l0,.09h0l0,.07h0l0,0v.05l0,.17.05.2h0v.21l0,.09v.17l0-.09v.11l0,0,0-.08,0,0h0l0,0,0,.05,0,.08,0,.1,0,.08,0,0v0l0,0,0,.1h0l0,0,0-.1v.08l0,.1,0,.08,0,.07h0l0,0v0l0,.1H6l0,.1v.51L6,40l0,.1,0,.06v0l.07.14,0,.06,0,.09,0,.1,0,.05,0,.1,0,.1v.1l0,.09h0l0-.09,0-.07v-.1l0-.1,0-.05v-.2l0-.06,0,0h0l0,0h0l0-.08,0-.1V39.9l0-.11,0-.1v-.1l0-.1,0-.11V39l0-.1,0-.07v-.1l0,0,0-.1v-.1l0-.07,0-.1v-.25l0-.21-.06-.16V37.5l-.07-.25,0,0,0-.09v-.67l0-.29,0-.09v0l.09.18,0,0,0-.07,0,.05v.1l0,0H6l0,.05v0l0,.21L6,37v.11l0,.16,0,.1v.1l0,.05v.07l0,.11,0,.07v.1l.06.18,0,.09,0,.09,0,.06v-.07h0l.06.06,0,.1v.12l0,.11,0,.06,0,0,0,.2,0,0h0l0,.07v.11h0l0,0h0l0,.11v.16l0,.09h0l0,0,0,.12,0,0,0,0,.06.1v0l0,.1,0,.11.05.05,0,.06.11.18.15.37,0,.1.11.19.06.18,0,.1v.2l.08.2,0,0c0,.07,0,.13,0,.2l0,.1,0,.1,0,0v.07l-.09.1,0,.09,0,.1.12.3.08.11L7.8,43l.11.12.06.09.09.2.12.06.06.06.17.08,0,0,.05,0,.07.1.18.24.31.18.07.08.32.13.06.09.15.08.11.1.07,0h.09l.11.09.12,0v0h.06l.06,0,0,0,.11-.05.11-.11v0h0l.06,0h-.06v0l.05-.05,0,.12h.06l.16.08,0,0-.07,0h.07l.07,0,.06.09.27.3.07.06.05.1.18.23.27.24.09,0,.07,0h.16l.06,0,.18.1.08.08.16,0,.08,0,.13.08L13,46l-.08,0L13,46v0h.11l.07,0,0-.09v0l0,0h.11l0,0,0,.09.06.06v.06h0l-.11-.07v0l0,.09.15.16h0v0h0l.16.13.05.09.15.19.08,0,.21.21,0,.07v0l.08,0v.1l0,.09,0,.08.1.15.07,0,.08.06.05.05.07-.05,0-.09-.08,0,0,0,0-.09h0l0,0h.06l.19.19v0l.07.09.12,0,.2.15.08.09,0,0,0,.09v.07l.17.08,0-.08,0-.1.08.07.17.27v-.12l.15,0h.07l.06.07.08,0,0,0,.12.08v.06l.09.09.09,0,0-.14h.07l.05.14.1.19h.11l.07,0v0l.14,0,0-.07-.21-.23v-.1h.07l.15-.12,0-.16.05,0h0l0,0h.09L17,48v.09l.18.1.12.19,0-.09,0,0,.08,0,.1.14-.06,0-.08,0,0,.1h0l0,0,0,.09.13.18.24.24.05.1.09.09,0,.09,0,.09.11.18v.09l-.07,0,.05.09,0,.09.06.26v.09l.06.09-.08,0,0,.09.08,0v.09h.08l0,0v.09l0,.06,0,.09,0,0,0,.09-.06.12,0,.09H18v0h-.09l-.15,0,0,.08.06.13,0,.06-.08,0,0,.09.07.06,0,.09,0,.06-.15,0-.07,0v.06H17.4l-.07,0V52l.05.12v.16l-.11.17.06.08.06,0h-.08v.09l-.07,0,0,.09.08.08V53l0,.07.06.09v.09l0,.06h0l.06.07.11.05.1.08h.07l.05-.13v.06h0v.06l0,0v-.09l0-.07v0l0,0,0,.07,0,.1.07.08,0,.09v.2l-.05.05H17.7l-.06.07-.05.08,0,.08-.11.17,0,.06v0l0,.1.07.07,0,.09,0,.08.1.08.05.08v.08h-.07l0,.09.09.06.17.07.28.17,0,0,.13.12v0l.06.05,0,0,.13.16.05.06.1.07L19,56l.23.33.07.08.21.31.23.25.09.11,0,.08.09.06.1.08.06.08.05.09v0l.2.16.14.15.06.08.14.13,0,.07,0,.07,0,.08.07.09.17.15,0,.08.2.1.15.12.06.07.05,0,.23.1.1.06.08,0,.19.11.39.14.07,0h.08l.08,0,.15.1h0l.09,0,.08,0,.08,0,.07.08,0,.07.17.08.3.19.05,0v.07l.07.15.1.15.13.23,0,.14.06.15.05.08.11.19v.07l0,.07.05.21.07.21-.06.12,0,.07.08,0,0,.07v.05l.06.15,0,.13.1.16,0,.05,0,.07,0,.07v.06l0,.07.06,0V63l0,.05.06.33.06.09,0,.06,0,.15.06.11V64l.05.08.08.07.07.12,0,.05,0,0,0,.06-.05,0v.07l0,.06.23.33.06.06.07.14.08.06,0,.12,0,.06,0,.06.09.12.06.06v.16l0,.06v0l.06.11V66l0,0v.09l0,.07,0,.11v0l0,.07,0,0v0l0,.06h0l.09.12,0,0-.08,0,0,0,.06,0v0l.05,0,.08.06,0,0,.06.11.07.07.2.17.05,0,0,.06,0,0,0,0,0,0v0l.06.06,0,0,.05,0,0,.13.06.06.07,0,0,0,.08,0h0l0,0,0,0,.08,0,0,0,0,0,.14.06v-.05l0,.05h0l0,0,.05,0h.06l0,0,.09.09-.06,0-.07,0,0,0,.09,0h-.07l.08.09.05,0v0l0,0,0,.05.06,0h0v0h0l0,.13.05,0,.06,0,.09,0,0,0,0,0,0,0V69H28.3l.06,0,.09,0,.07,0h0l-.07,0v0l0,0,0,0v0l0,0,0,0,.05,0,0,0v0l0,0v0l0,0,0,0,0,0-.08,0,.06,0-.07,0h0l0,0-.08,0-.07,0,0,0-.07,0h-.08l0,0h.06v0l0,0,0,0h0v.1l.06,0,.08,0,0,0h-.05l0,0v0l0,0,.08,0,.06,0h.05l-.06,0h.1l.06,0h0v0h0l0,0-.06,0v0l.07,0h.05l0,0-.12,0,0,0H29l0,0,.08,0,.06,0h0l.06,0,0,0h0l-.08,0H29l0,0-.07,0h0l.07,0,.15.06.06,0-.06,0v0l.06,0h0l0,0,0,0,.06,0,0,0,.07,0,0,0-.05,0,0,0h0l0,0,.06,0h0l0,0,.06,0,.07,0-.07,0h0l0,0h0l.09,0v0l0,0h-.06l.08,0h0l-.06,0h0l.07,0h0l0,0h0l.08,0h-.05l0,0,.07,0h0l-.07-.07v0l0,0h0l0,0,0,0h-.08l0,0,.07,0h.05l.05,0,.12.07-.08,0,0,0,.08,0h0l.05,0,.07,0-.08,0,.06,0,.08,0,0,0-.11-.06.12.06h0l-.05,0-.08,0,.16,0-.05,0-.07,0h0l-.06,0h0l.08,0h.05l.08,0,0,0h0l.06,0h0l.05,0h0v0l0,0-.08,0h0l0,0h-.14l.09.06,0,0,.05,0v0h0l0,0h0l0,0,0,0h0l.06,0v0l.07,0h0l0,0-.06-.06h0l0,0h.17v0l0,0-.09,0,0,0,.06,0,0,0,0,0-.05,0h0l.07,0,0,0,.06,0h0l-.07,0,0,0h0l-.06,0H31l0,0v0l0,0L31,71l0,0,0,0,0,0,.08.06v0l-.06,0h0l0,0-.06,0h0l0,0,.15.06h0l.07,0,.08,0h0l0,0,0,0-.05,0,0,0L31.09,71l0,0h0v0l0,0h0l0,0v0h0l.05,0h.1l0,0-.13-.06L31,70.7l0,0-.06,0H31l0,0-.15-.09h0v0l-.07-.07,0,0v0l0,0-.08,0h0l0,0h0l.09,0,.07,0h0v-.06l-.1-.1,0,0,0,0v0l0,0,0,0,.05-.07h0v0l0,0v0l-.07,0-.06,0h0l0,0v0l-.05-.08-.05,0-.07,0h0l-.14,0-.08,0L30,69.48l-.06,0-.06,0,0-.05,0,0,0-.08v-.13h0l0,0,0,0H30L30,69l0,0,0,0v0l0,0,0,0-.09-.09,0,0v-.09l0,0,.07,0-.14-.06-.07,0,.07,0h.05l.07,0,.05,0H30v0l0-.05,0,0-.06,0-.06,0,0,0h0l0,0h-.1l0,0-.12,0-.09-.05-.08-.15-.1-.09,0,0,0,0,0,0h.05l.07,0,.19.06.07,0h.2l.12-.07v0l0,0-.08,0,0,0,0-.12h0l0-.1-.08,0,.07,0-.08,0-.06-.06,0,0,0,0,.07,0h.06l.07,0h.21l.19,0,.26-.05.19-.08.11-.06,0,0v-.11l.06-.11,0-.1,0-.06,0-.11L31,66.46h-.07l-.07,0-.07-.06,0-.05v0l0-.11-.07,0-.08-.06L30.45,66l-.14,0-.08,0-.1-.09,0,0h0l0-.07,0,0-.06-.08v-.11l0-.06h0v.11l0,.11v0l.07.06.16.1,0,0h.2l.15.08.14,0L31,66l.09,0h.14l.08,0,.06,0h.06l.18-.08,0-.06.05,0v-.06l0-.06v-.06l0,0,.16-.15,0-.06,0-.07v-.11L32,65,32,65v0l0-.12.05-.06h0l0,0v-.06l0-.13.05-.06-.08-.06v-.06h0l0,.06.08.06.06,0h.07l0,.07,0,.06v.06l-.06,0v.06h-.06l0,.07,0,.06-.06,0,0,.06L32,65,32,65l.18-.1.11-.11.09-.12.08-.17,0-.07,0-.19.06-.14.12-.16.18-.14,0,0h0v0l0-.07V63.6l0-.33-.07-.13v-.08l-.06-.1.05-.06,0-.07,0-.07h0l0,0-.07,0h.07l0-.07H33l0,0,0-.07h0l.06-.07.07-.05.15-.08.13-.12.07,0,.08,0v0l0,0,.07-.07.08,0h.07l.08,0L34,62,34,62l.07,0v0l.18,0-.07-.07.15-.07.08,0,.07,0,.08,0,0,0-.15,0,.31,0v0h0l.05-.07v.08l.07,0,.19,0h.16v0l0-.07,0-.07.06-.08.08,0,.23-.09,0-.07v-.17l.06-.12,0-.08.07,0,.07-.07,0-.07,0-.08.05,0,0-.11.06-.1.08,0,0-.07v-.08l0-.22,0-.15,0-.08.16-.14v-.23l.07-.3.08-.22,0-.07,0-.39,0-.18,0-.07-.06-.09.05-.08,0-.07,0,0V58l.11-.15-.05-.12.09,0h.09l0,.09.09,0,.07-.08.19-.24.09-.17,0-.06h0l0-.08.09,0,0-.08h.09l0-.1.09,0,.17-.12h.07l.05-.08.21-.21v0l.05,0h0l.17-.17.1-.15.07-.17v0l.07-.13,0-.1,0,0,0-.09h0l0-.05v-.08l0-.08Z"/><polygon class="cls-64" points="58.29 20.8 58.29 20.86 58.2 20.89 58.34 20.95 58.42 21.02 58.46 20.92 58.36 20.84 58.29 20.8"/><path class="cls-65" d="M56,22.78h-.06l-.07.05h-.06L56,23v0l.17.08h.06l0,0v0h0l0-.1-.14-.16,0,.06,0,0Z"/><polygon class="cls-66" points="58.6 21.28 58.64 21.19 58.67 21.16 58.59 21.1 58.52 21.07 58.48 21.08 58.43 21.07 58.39 21.09 58.38 21.13 58.32 21.12 58.38 21.19 58.4 21.27 58.48 21.31 58.55 21.46 58.55 21.38 58.52 21.31 58.55 21.28 58.6 21.28"/><polygon class="cls-67" points="56.12 22.7 56.2 22.75 56.27 22.83 56.29 22.92 56.31 22.91 56.39 23 56.52 23 56.54 23.08 56.62 23.11 56.61 23.18 56.67 23.24 56.7 23.27 56.74 23.35 56.75 23.33 56.72 23.17 56.63 23.11 56.71 23.12 56.62 23.01 56.66 22.97 56.71 22.96 56.58 22.8 56.64 22.75 56.64 22.7 56.56 22.54 56.56 22.53 56.49 22.49 56.42 22.48 56.38 22.53 56.47 22.67 56.45 22.7 56.42 22.62 56.41 22.74 56.34 22.66 56.33 22.57 56.18 22.56 56.27 22.64 56.24 22.69 56.12 22.7"/><polygon class="cls-68" points="56.52 23.2 56.43 23.13 56.38 23.15 56.39 23.23 56.59 23.32 56.64 23.3 56.67 23.24 56.61 23.19 56.52 23.2"/><path class="cls-69" d="M57.79,21.46l0,0h0l0,.06v.16l.06.07,0,.08.08.08V22l0-.05,0-.06,0-.05v-.08l0-.07s-.05-.11-.08-.16l0,0Z"/><polygon class="cls-70" points="32.94 70.68 32.89 70.65 32.86 70.65 32.83 70.67 32.87 70.7 32.81 70.67 32.78 70.63 32.75 70.64 32.72 70.64 32.72 70.68 32.7 70.68 32.75 70.71 32.77 70.74 32.72 70.72 32.71 70.75 32.72 70.78 32.71 70.81 32.77 70.84 32.81 70.85 32.78 70.81 32.82 70.82 32.78 70.79 32.81 70.79 32.85 70.79 32.9 70.81 32.84 70.78 32.78 70.75 32.84 70.76 32.87 70.76 32.9 70.76 32.9 70.73 32.91 70.73 32.94 70.73 32.95 70.7 32.9 70.68 32.94 70.68"/><polygon class="cls-71" points="32.24 71.47 32.2 71.46 32.15 71.45 32.18 71.45 32.2 71.44 32.15 71.43 32.12 71.43 32.08 71.42 32.02 71.4 32.07 71.41 32.11 71.42 32.12 71.41 32.09 71.39 32.06 71.39 32.04 71.39 32.01 71.39 32 71.4 31.98 71.4 31.95 71.4 31.93 71.41 31.92 71.42 31.94 71.43 31.95 71.43 31.99 71.44 32.01 71.43 32.01 71.45 32.06 71.47 32.12 71.48 32.15 71.49 32.1 71.46 32.05 71.45 32.02 71.42 32.08 71.44 32.12 71.45 32.18 71.47 32.2 71.47 32.25 71.49 32.31 71.51 32.36 71.52 32.31 71.5 32.24 71.47"/><path class="cls-72" d="M32.6,70.66h-.08l0,0h0l0,0h0l.06,0,.05,0,0,0h0v0h.07v0h0v-.12H32.6Z"/><polygon class="cls-73" points="15.66 48.44 15.67 48.46 15.68 48.46 15.69 48.44 15.67 48.44 15.66 48.44"/><path class="cls-74" d="M32.45,71.33H32.2l-.07,0-.05,0h0l-.06,0-.06,0-.06,0h0l-.06,0-.06,0-.05,0h0l-.05,0,0,0h0l-.06,0-.07,0h0l0,0h-.05v0l-.06,0-.07,0h0l0,0,0,0h0l-.07,0h0l.06,0h0l0,0h0l.05,0,0,0,0,0,.06,0v0h0l.05,0,0,0h0v0l.06,0,.06,0,.05,0h.14l.05,0,0,0h0l0,0,0,0h-.08l0,0-.06,0,0,0h0l-.1,0h0l.07,0,.06,0h-.07l0,0h0v0h-.1l.05,0h-.07l.07,0h.05v0l.06,0h0l0,0h0v0h.05v0l0,0h0l0,0h0l.06,0H32v0h.51l0,0Z"/><path class="cls-75" d="M64.06,30.76,64,30.68l-.08-.13,0-.09,0-.07-.07-.09,0-.09-.06,0,0-.05V30l0-.2,0,0v-.09h.09l-.06-.27-.06-.18v-.26l0,0v-.11l0-.09h0l0,.08.06,0h0v-.1c0-.05,0-.09-.05-.13h0l0-.07,0-.05-.05-.06,0-.09,0,0,0-.06,0,.05,0-.05V28l0-.08.06-.06,0,0v-.09l0,.08h0v-.08l0-.09v0l-.09-.14.1.14.06.15.06.09h0l0-.05v.08h-.07l-.08,0,0,0,.06.07,0,0h0l.1.09,0,0,.1,0,.09.05v-.05l.06.12,0,0-.07.1,0,.1,0,.09,0,0h0l.06.06,0,0h0l.07.11,0,.09,0,.09,0,0,0,.05h0l0,0h.07l0,0V29l0-.05,0,0,0,0V28.8l0,0v-.05l0,0,.06.07.08,0,0-.09v-.08l0-.05,0,0v.05h0l0,.06,0-.05-.13-.19v0l0-.09,0-.07,0-.08,0-.06,0-.09,0,.09V28l0,0v-.08h.06v-.05l0,0,0,0v-.1l0-.05v0l0,0h0v0h0v-.06h0v0l0,0v-.08l0,0,0,.07h0v.07h0l0,.08h0l0,.09,0,0-.06,0,0,.08L65,28l0,0,.12.17,0,0,0,0,0,.08,0-.08,0,.17v0l0,.09v.09l0,0h0l-.06,0,0,0,.06.05,0,0,0,.05.09.07.11.17,0,0,0,0,.11.18.07,0,.1.13.11.15,0,.09.1.14h0l0,.07,0,.08,0,0A31.41,31.41,0,0,0,58.77,18.3l-.48-.49h0l-.07-.06,0-.06,0,0,0,0h0l0-.05,0,0L58,17.5v0l-.15-.14-.08-.05v-.05l-.45-.41,0,0h0l-.06,0h-.06v0h0l-.14-.09h0v0h0l-.05,0h0l0,0-.05,0,0,0-.09-.06-.06,0,0-.06-.06,0-.06,0h0l0,0,.08,0,0,0,.07.06.16.1.05,0v0l.09.06h0a19.18,19.18,0,0,0-2.22-1.67l0,0-.07-.06-.08,0,.08.06,0,0h0l0,0h0v0l0-.05-.08-.06,0,0,0-.06h0l-.07,0-.08,0v0l.17,0h0c-.21-.13-.42-.26-.64-.38v0l.05.06.07.06,0,.06.07.06L54,14.55l-.05-.06,0,0,0,0,0-.07,0,0h0v0l-.08,0v0l0,0v0l-.1-.05h0l-.09-.05h0l-.05,0,0,0h0l.07,0,.09.05,0,0h0l.07.06h0l.09.06h0v.06l0-.05-.06-.06-.09-.06v0l-.14-.12v0l0,.09.05.06v0l0,.06,0,0,0,.06v0h0l0-.06-.07-.06,0-.05h0l0,0-.05-.13-.06-.06h0l-.06,0,0,.06-.08-.06h0l-.07,0h0l.09.06v0h0l.08,0,.09.05H53.2l0,.06.08,0h-.09v0l.06.06h0l0,.06.06.06h0l0,0,0,0,0,0,0,0-.07-.06v0h-.06l0,0,0-.05-.1,0h0l.09,0-.07,0L53,14.61H53l.05.06-.1-.06,0,.05.07,0,.09,0h0l0,0v0h.05l0,0v0l.06.06.08.06-.08-.06-.06,0-.12-.06h0l.09.08v0l-.08-.05,0-.05v0l0,.06v.05l.07.06.08,0h-.06v0l0,.06v.05h0l0-.06L53.08,15,53,14.9,53,14.84l-.07-.06,0,.06v0l0,0,0,.06L53,15h0L53,15v0L53,15l-.07-.07-.07,0,0,0h0l0,0,.06.06h0v0l.09.06h0l.09.06L53,15.11H53L52.87,15l-.07,0h0l.08.06.15.07-.07,0,0,0,0,0,0,0-.08-.06-.08,0,.07.12.08.06h-.07l0,.06,0,.06h0l0,.06,0,0v0l.12.05-.11,0h0l-.05,0,0,0,.06.06H53l0,0,.11,0,0,0v.05l.08.06-.08-.06,0,0h0l0,0L53,15.61l0,0,.07,0,.1.06L53,15.69l-.07,0,.07,0,0,0,.1.06h0l.08.06-.07,0,.09.06-.1-.06,0,.06-.06-.05-.14-.13,0,0,0,0,0,0h0l0,.06v0H53l.07,0H53l-.09,0h-.05l.07.07v0h0v-.1L53,16l.08.05L53,16h0l.07,0h0v0l.09.05.07,0,0,0,.09.07h0l-.09-.06-.07,0,0,0v0H53l0,0,.07,0h0l0,.08h.08l0,0,.06-.05.08.05h0l.06.07-.1-.05h-.05v0l0,0-.07,0v.06h0l0,0h0l0,0,0,0,.15.06h-.05l0,0h0l0,0h0l0,0H53l.06.07h0l.07,0-.06,0v.05L53,16.63l.07.07.06.06h.05v.05l0,0h.09l.07,0,0,.06,0,0h0l0,0-.08-.06,0,0h-.05v.05h.07l0,.06h0l-.06,0,0,0,.08.13h0l0,.07h0l.08.09-.07,0-.1-.07.07.07v.06l.06.07,0,0,0,.07h.06l0-.08v.06l-.06.06h0l0,0-.12,0v.07l0,0,0,0h0l0,0,.07,0-.08,0,.08,0v0l.06-.06h0l0,0v0l.06,0-.08,0,.07.07h.06v.07h0l0,.06-.08-.08h-.11l.07.07h-.06l0,.05,0,.07h-.07l0,.07v.06l0,0,0,0h0l.05,0-.11.1h.06l0,.06.08-.05h0v.06l.08.07.1-.05,0-.05,0,0v-.06l-.07,0,0,0,.1-.11h.05v0h0v.08l.09,0,0,0,0,0v.06h.06l0,.07h-.19l0,.07-.08,0,0,0v-.05l0,0-.16-.1,0,.05,0,0h.05l0,.05h.05l0,0,0,0,0-.08H53.1v.06l0,.07h.05l-.08,0-.07,0,.09,0h0l0,.07.08,0-.08,0-.09,0L53,18.53h0l.16.15.08,0,0,0-.13-.07-.09-.07,0,0-.1,0h0l-.06,0-.05,0,.1.05,0,0,.08.05.1,0,0,0,.07,0,.09,0-.1.06.08,0h-.05l-.08,0h-.11l-.08,0-.1,0,.08,0,0,0,.08,0,.06,0,.07,0L53,19h0v.07l0,0L52.94,19l-.09-.05,0,0,0,.07,0,.05L52.8,19h-.07l0,0,.08.08.07,0h-.11l-.07-.07-.1,0,.06.07-.09-.07,0,0,.09.05,0,.05h.18l.14,0h.18l0,0-.07,0-.09.06-.09-.06-.09,0h-.05l0,.05v.07l.07,0h.06l-.11,0h.06l.08,0,0,0,.14,0h-.07l-.1,0,.07,0h0l0,0,.08,0,.11.08.09-.06h.12l.08,0,0-.12v.06h.14v0h.11l-.07-.07,0-.07v.08l.05,0h0l.05,0,0,.07-.07,0,0,0,.06.07h-.06l0-.07-.08,0-.05,0H53l-.14.08v.08h.06l.07,0,0,0,.07.07-.08,0-.1,0,.1.06L53,20l.06-.07h.07l0,.07v0l0,0h0l-.08,0,0,.07,0,.07.09.06,0-.09,0,.08.05,0,0,.12h0l0-.12.05,0v-.08l0,0h.12l0,0,0,.15,0-.08,0-.07,0,0,0,.06,0,.08,0,.06h0l0,0v.06l.07,0h.07l0,0,0,.06h0v.07l-.08,0,0,.07,0,0v-.08H53.3l0,.08,0,.06.08.06V20.6l.05.09,0,0-.07-.08h.13l-.06,0h.07v0l.08,0,0,0,.06,0,0,.05,0,.06,0,.08.05,0,0-.06h.06l0,0v.08l-.05,0h-.07l-.08-.06V21l0,.05.09.07.08,0,.1.06.07,0,0,0,.15,0,0,0,0,0v.08l.11,0,.09,0h.13l.1,0v0h0l.08-.07v-.07l.1-.19,0-.09.05,0,0,0,0-.05,0,0,0,0,.06,0v0l0-.05v-.15l-.1-.08v0l.07,0-.07-.07,0-.06v-.06l.07.05v.07l.09.12,0,.07,0,.07h.06l.07,0,0,0,0,.07.08.08,0,.08.11.15.08.08v-.08l0,.08.06,0,0,.05h0l0,0,0,.08,0,.11,0,0,0,.07.05.06,0,.07H56l.11.16.07.08.08.08h0l0,0,.07.08.07,0,.05.06,0,.06-.07,0,.1.15-.08,0,0,.08.05.05.14.16.06.08,0,.08.08.06.08,0,.09-.05h.14v-.09l-.08-.08,0-.07v-.06l0-.06.07,0-.05-.08h.2l0,0h0l.1.07v-.08l0-.14v-.13L57.41,22v-.08l0,0,0-.06v-.08l-.12-.22-.08-.06h.07l-.05-.06L57,21.19l-.12-.05.07,0h.06L57,21.09l-.07,0h0l.11,0L57,21l.07,0,0,0V20.9l0,0,0-.07.13.15v-.08l0-.09h0l-.07-.08.07,0v0l-.06-.08h0l0,0-.05-.07.07,0v-.08l0,0v-.05l0,0,0-.07L57,20.28,57,20.21h0l-.05-.05,0-.07-.07,0L56.58,20l0,0-.09,0-.09,0,0-.07-.07-.08,0-.07-.07-.11-.06-.06,0-.08v0L56,19.31h0L56,19.22l-.09-.2-.07,0-.08-.12.06,0,0,0,0,0,0-.07-.1-.11-.06,0,0-.08.11.11.08.05,0-.07-.06-.07,0,0,0-.07h.05l0,0,.06,0v0l-.05-.07h0l0,0h0l0-.06v-.07h0l0,0L55.92,18l0-.07v-.1l0-.08-.07,0-.09-.06.05,0-.07-.08-.08,0h0l0-.08v0l-.06-.07,0-.07h-.05l0-.06.06,0h0l-.08-.07v0h0v0l-.1-.09.1,0L55.48,17l.09.06.06,0h0L55.59,17l.07,0,.06,0h.17l0,.05.07,0h0l.16.11,0,.06,0,.05,0,.06.1.06h0l0,0h0l.09.07-.07,0h0l0,0,0,.07,0,.15v0l0,.07v0l0,.08h0l0,.07,0,0h0l.05.13-.08,0,0,.07,0,.07.08.08v0l-.06,0v0l0,0-.09-.05,0,.05,0,.07,0,.08v.05l0,.07.06.07,0,.07.06.07v0l.08.08,0,.07,0,.07,0,0,.1.08.16.15-.06,0,.11.14,0,.08,0,.08,0,.07.08.14.08.05h0v0l.07.07h0l0,0,.06,0,.11,0v.07h.08v0l0,0,0,.06,0,0,.06,0,0,0h0l0,0,0,0v0l0,0h0l.08,0v0l.07,0,0,0h.05l0-.08h0l0,0h.05l0,0v-.07l.07.07,0-.07.06,0L58.52,20l.06,0h0v0h.1v0l.06,0h.08l0,0,.06,0,0,0v-.09l0,0L59,20l.06.07L59,20l.08.07.16.11h.11l0,0,.08.07h0l0,0v0l-.24-.07,0,.08v0l-.05,0h0l0,.07-.06,0h0l.06.07,0,.07v0l-.22,0L59,20.54h0l-.07,0-.09,0,0,0-.07,0,0,.08,0,0h-.09v.05l0,0v.06h0l0,.06-.07,0,0,.05,0,.08.07,0,0,0,.08.09h.06l0,0,0,.08.08.05.06.08h.06l.06,0v-.07l.08.06.1.25.06.09.16.23v.07l0,.05,0,0h0l-.14-.08-.06-.08-.17-.14-.08-.06-.08-.07-.07.08h0v.14l0,.08,0,.08v.14l.07.16.09.17.06.08.07.13.06.08,0,0,0,0h0l.06.08,0,.08,0,0,0,.08.05.08,0,.06-.11,0H59v0l0,.07v.08l0,.1,0,.05-.09,0H58.8l0,0-.17-.21h0l-.06,0h-.11l-.13.05-.08.08-.09,0v0l0,.11-.21.07-.25.13h0l-.1-.06,0,.08,0,0h0l-.11-.17,0,0v0l-.17-.12h0l-.08-.05H57l-.05,0v0l0,0h.07l-.14,0v.08l0,.06v.07l0-.05,0,0h-.06l0,.08v.06l-.07,0-.08,0,0,0,0-.08,0-.08,0-.09-.06,0,0,0-.17-.08,0,0-.08-.06,0-.11h0v0L56,23.21H55.9l0-.05h0L55.83,23l0-.06-.11-.13,0,0v-.06l-.09,0,.08,0,.06,0-.05-.1h.07l-.07-.16.05,0,.06.08v-.07l.05,0v-.07l-.09-.08h0l-.07,0,0,.05v-.09l-.09-.05h.06l0-.08L55.56,22l-.09-.05h0l.09.06,0-.06v-.07l-.08-.14-.06-.08v-.07l-.08.08h-.06l0,.09v.09l0,.06-.06,0h-.06l0,0H55v0L55,22v.07l.09.08,0-.16.1,0h0l.07,0,0,.1.08.08,0,.08-.09-.07-.07-.08,0,.06,0,.08h-.14L55,22.15v.08l.14.31,0,0,.07.09h0l-.09-.05.08.15,0,.09.06,0,.07.07.09.05,0,.07V23l.08.13h0l-.09-.06h0l.07.08h.06v0l.18.17h0l0,.05v.08h.06l.07.08v.08l.08.06.1,0,.18.16.06,0h0l-.1,0-.08-.08-.1-.08,0,0h-.07l0,0,0,0v.08l.06.09,0,.09-.07-.12H55.8l.05.09h-.06l0-.09-.1-.08-.1,0h-.07l-.05,0,0,.09,0,.08h.08l.06,0,0,0-.12-.05L55.33,24l-.12,0h-.13l-.1.05,0,.08v0l0,.06-.07.06h-.07v.08l0,.16v.11l-.07.17h0l.05.08.14.07h0l-.06,0h0l0,0,0,0,.07,0,0,0-.08,0L54.71,25H54.6l0,.08.08,0,.06,0,.1.05,0,0,0,0h-.17l-.08,0-.15.05-.18.14-.23.06,0,.08v.09l.07.16,0,0,.06.08h0l0,.08L54,26v0l-.14,0-.13.08,0,.07.08.09.08,0v0h-.06l-.14.08-.16,0h-.08l-.08,0-.07,0-.11-.11,0-.09-.1,0-.14,0,.1.17.09.09.09.17v.09l.09.08-.22,0,0,0h0l0,0-.14-.07-.09.06h-.07l-.18-.17-.07,0h-.08l0,.1-.15,0-.15,0-.07,0-.06.07,0,.09.15,0,0,.06-.1,0,0,.08.09.05-.15,0h0l.09,0,.1.09.07,0,.28.06.09.06.06.09,0-.09.1.07H53l0,0,.06.1h.17l.09.05-.09,0h-.08v.09l.09.05,0,.11.1.09.08.08.06.05.06,0,.09.05h.08v0l.07.18v.08l0,.05h0l.09.05.09.07.06.09,0,.1.07.09,0,.06,0-.06L54,28.69l0-.1-.09-.09h-.08l0,.39,0,.09v.43l0,.24-.07,0-.08,0h-.18l-.15-.08-.07,0,0,0h0l-.14-.06-.08,0h-.08l-.07,0h-.25l-.19,0-.11,0h-.16l-.09,0-.08,0h-.33l-.08,0,0,0-.1,0-.09-.06-.18,0-.07.06,0,.09h0v.05l-.12,0-.08,0h-.08l-.16.14.07.09v0l0,0,.08,0v.11l.08,0,0,.07v.09H51l-.08.1.08,0,0,0,0,0-.09.09.08.1-.05.05,0,.09.1.28,0,0v.26l0,.1v.22l-.06.27-.1.19v0l0,.1v.09l0,.09H51l0,0,0-.1,0,.11-.08.07,0,0v.09l.18,0,0-.05,0,.09,0,.1,0,.15.06.12V33l0,.15v.09l.17-.07.07,0h.09l.09,0h.08l.16-.09v0l0,0,.16,0h0v0l.19.11.13,0-.07.11.09.06,0,0v.06l.11.13.19.1.11-.09,0-.13.08,0,.07,0h.08l.08-.1,0,0h.36l.16,0,.13,0H54l.08-.07h.06l.09,0,.05-.1,0-.09v-.1l.16-.13.08,0h.08l.07-.07,0-.14v-.1l.08-.17.15-.12.08,0-.17-.15,0-.09-.07-.16,0-.17,0-.09,0-.07.11-.18,0-.1,0,0,.08-.06v0l-.07-.06.06-.09.12-.07.34-.12,0,0,.07-.06.18-.13.07-.07v-.1l0-.09.06,0-.14-.22,0-.09,0,0v-.13l.08-.09h.07l.12-.13.07,0,.07.05h.06l.08,0h.07l0-.09,0,.09h.08l0,0,.06,0,.1.09h.07v0l.09,0,.08,0,.13-.07.06-.05v-.09l.12-.14.08-.05h.08l.09,0,.06-.05.07-.2.08-.07h.06l.16.06.14.1h.07l0,0h0l.05,0,.06.08,0,.14.13.18.05.18h.07l0,.09.14.11.06.09.13.06.08.09,0,0,.07,0,.08.06.05.09.1.07.06.07.15.1.08,0h.06l.08,0h.05l.09.11.11.13h.07l0,.09h0l.06,0,.08.07.05.09,0,.09.06,0,.08.08.09,0,.07.09,0,.1.05.09.06.09.07.19.06.09,0,.09-.06,0,0,.14-.06.19.06.09H61l.05,0V32.6l.09-.17,0-.18.16-.14,0-.1-.07-.15L61,31.78l-.07,0,0-.1V31.5l0-.05,0-.1,0-.06h.08v0h0l.06.07.13,0,.07.06,0,.1.08.08h.07v-.13l0-.11-.08-.09-.08-.06-.05-.07-.22-.13L61,31l-.21-.1-.24-.15,0-.09,0-.07,0-.09h-.33l-.06,0-.09,0-.32-.32-.18-.36-.1-.16-.08,0-.17-.13-.08-.05L59,29.19l-.06-.12,0-.09,0,0,0-.1v-.07h0l-.07-.11,0,0,0,0h0v0h0v-.1h.08l.06,0,0-.06.06,0,0,0,.06,0,0,0h0v0l.05-.06,0,0,0,.09v0h0v0h0l.06.09h0l.07.09,0,.08.1.12v-.12h0v-.21l.12.07.13.14,0,.15.06.08,0,0,.1.11.08,0v0h0v0l0,0-.09-.05v.09l.21.2.11.07.05.1.11,0,.12.07h.07l.08.09.15.12.08.08-.06,0-.08-.05h-.06l.14.08L61,30l.23.18h.09v0l0,0,0,0,.08.08.08.05.08.13.09.06h0l0,0,0,.1,0,.13,0,.09V31l0,.09v.12l.06.08h0l0,.09h0l0,0,.05.09.14.09.08.12,0,.09.05,0,.09.19h.05l.12.17v-.08l0,0,.06,0v.07l0,0h-.06v.1l.09.08.09.19,0-.08v0l.06.1.13-.06.07,0,0,0,.08.06v0l.06.06h.06l.06,0v0l0,.06,0,0L63,32.63l-.06,0-.08,0-.07-.06,0,0,0,.08h-.06l0,.1,0,.09.06.11,0,0,.05.09v.18l.07.15,0,0,0-.09v.05l.08.1.07.14v0l0-.1,0-.09,0,0,.05.09.06.06v0l0-.1v-.09l0-.09-.09-.17,0-.11v0l.07,0,0,.1.1,0,0,0-.05-.09,0,0,0-.08-.05-.07v0l.11-.06.07,0,.06.07.08.09h0v-.09l0-.07,0-.09,0-.1-.07,0,0-.08-.08,0v-.06h-.06L63,32.26l-.06,0-.05-.06H63l.05-.06L62.93,32,63,32l0,0v.09l0,0V32l-.15-.18-.12-.21h0l0-.08V31.4l0-.09v0l0-.09v.11l.08.08.1.08,0,.12,0,0,0,0L63,31.44h0l.07.05.06.09h0l-.06-.09h0l0-.1h.05l.06,0,.07.09,0,0-.07-.09-.07-.07h-.06L63,31.15l0,0,0,0,0,0,0-.08.11,0,0-.06,0,0,0,.05.16,0,.07.07,0,.07h.06l.09,0,0,.05-.11.14,0,.05v.09l0-.09,0-.06,0-.09,0,0v0l0,0L64,31h0l.07,0,.1,0h0l0,.05h0l0-.06,0-.1Z"/><path class="cls-76" d="M69.46,49.27c-.1-2.11-.25-4-.42-5.55,0,0,0-.06,0-.09,0-.23,0-.46-.08-.68l0,.07c-.16-1.07-.39-3-.39-3v0h0V40h0l0-.19V40h0v-.13h0v-.11A25.23,25.23,0,0,0,67.35,35h0a32.27,32.27,0,0,0-1-4.13h0V31l0,.1,0,0-.06,0,0,0-.06,0v0H66L65.93,31l0,0,0,0,0,0,0,0,0,0-.06-.09h0v.06l0,0-.06-.09,0-.09h0v0l-.06,0,0,0-.06-.09,0-.09,0,0v.07h0l-.25,0-.05.07-.1.09,0,.1-.08.15V31l-.1,0-.12-.07,0,0h-.07l-.15-.05,0,.09,0,.07.07.07,0,0h0l.06,0-.16,0,0,0,0,.08h0l0,0-.18,0,0,0,0-.09,0,0,0,.09h0l-.1-.08,0,0h-.05l-.06.14v.09h0c0,.06,0,.12.05.18v.11h0l.15-.07h0v.09l0,.08.08.08v.09l.07,0,0,.09h0l.07.15h.06v0l-.09.06v0l0-.1L64,32.31h0v.06l0,.09v0l0,0,.11.1,0-.06.06.08.1.06v.14h0v0l.05.06,0,.11h0l0,.06h0l0,.1,0,0,0,.09.17,0,.06,0,0,.09h0l-.06,0,0,0v0h.08v0h0l0,0v.09l0,0h0l0-.09,0-.08,0,0v0h0v0l0,0,0,.1,0,.08,0,0,.06.06.1,0,.08-.07,0,.06v-.18a.43.43,0,0,0,0-.11l0-.09.08,0h0l.1.09.08.06.05.07.07.14.06,0,0,0,0,0,.12-.05,0,0h0v-.08l0-.09,0-.11,0,0v0h0l0,.06,0,0h0V33.4l0,0,0-.07h0l0,.09v.1l0,.08v.1l0,.12V34l0,.09,0,.14,0,.13,0,.17v.07l0,.06v.08l0,.17V36.1l0,.13,0,.16,0,0,0,.06,0,0,0,0v0l0,0,0,0v0l0,0,0,0,0,0-.05,0,0-.06,0,0v.07l0,0h0v0l0,0v0l-.06-.06v-.06l0,0,0-.1h0l0,0-.09-.08h0l0,0,0,.07h0l0,0,0-.09,0,0h0l0,.11,0,0h0l0,0-.09.18-.08.09h0l0-.06-.11-.08H65L65,36.43l0,0,0,0,0-.07-.33-.13h-.05l-.1.06h0l0,0v0L64.21,36l0,0H64l-.06,0-.06-.07-.16,0-.06-.09v-.1l-.06-.07-.13-.06-.08,0-.07,0h-.08l-.06,0,0,0-.12,0,0,.06-.06,0-.1.16,0,.11,0,.11,0,.13,0,.1.06.13v.22l-.1.21-.12.09h-.07l-.15-.12-.16-.17-.29-.17-.22-.08h-.06l-.13,0-.13-.08-.07-.1,0-.07,0-.12,0-.19-.07-.07-.1,0-.13-.05-.08-.08-.11-.06-.13,0-.1-.05-.18.06-.15,0L60,35.42l-.08,0-.12-.09h-.07l0-.1,0-.1h0l-.06.09,0-.1h-.07l-.1-.05-.08-.11,0-.1v0l.06-.1.13-.1.09-.2,0-.2L59.48,34,59.4,34l0,0-.07-.09-.05-.12v-.11l.08-.05.07-.18v-.11l-.08,0-.14.17-.05,0v0h0l0-.06,0,0-.05-.09v0L59,33.1h-.06l-.08,0-.2.09,0,.08-.1,0-.07,0-.08,0-.07.05H58.2L58,33.2h0l-.07.08h-.07l-.08,0-.08-.07-.07,0v.05l-.07,0-.14,0-.08.07h-.08l-.07,0,0,0L57,33.3h-.38l-.14.08-.08,0,0,0-.08,0-.14.12-.08,0-.52.08-.3.16-.07.08-.05.11,0,0-.1,0-.15.08H54.8l-.08.06,0,.09,0,.08-.08,0-.08.07-.13,0h-.06l-.06,0-.08,0-.08,0L54,34.2v0l-.16.07-.18,0,0,0-.09,0-.17,0-.14,0-.1-.06L52.92,34l0-.11v0l0,0-.14,0h-.08l0,.1-.11.44-.18.44-.08.09-.15.09-.51.25-.13.2-.17.18v.2l0,.1-.11.13-.09.21,0,.3,0,.1.09.09,0,.09V37l-.06.18-.1.12-.11.2-.07.09-.09.08-.18.11-.13.14-.07.1-.27.13-.38.07-.07.1-.08.06,0,.1-.07.16,0,.11,0,.09-.08.1-.36.24,0,.12-.14.3,0,.35-.06.1-.09.08-.17.2-.16.14-.07.1.1-.09,0,.1-.17.3V41l-.07.11,0,.1,0,.1-.09,0-.08.1,0,.1-.09.51v.1l0-.13,0-.06,0,0,.12.23.06-.05.13.28,0,.2-.12.21v.07l.09.08.09.34v.21l0,.19,0,.1-.21.5,0,.19v.18l-.17.27-.12.15,0,0-.1,0,0,0,.09.06.06.09.08.16v.09l.16-.1-.12.17.05,0,0-.08v.11l0,.1v.05l.1.08.09-.05h.19l.1,0,0,0h0l-.09,0H48V46h-.19l-.05-.1-.07,0V46l0,.07v.09l0,.06.06,0,.06.1h-.09l-.08.09,0,0,.15.07,0,0,.12,0-.09.07-.05.1.1.06.09,0h.12l-.09,0v.09l.1,0,.07,0,.26,0v.08h0l-.09,0h-.1l0,.09.15,0-.1.07-.08.09.12,0,0,.08,0,.1.09,0v.09l.15,0-.06.1.09.06v0l.06.17.09.07h.11v.08l.09.07.06,0h0l0,.09,0,0v.1l.05,0,.07.19v.06h0l.09,0,.05,0h-.1l0,.09h.09v0h.09l-.1,0,0,0,0,0-.09-.06,0,.1h.09l0,.1,0,.07.16.1h0l.08.07h.07l-.1,0v.07l.08,0,.26.13,0,0,.06,0,0,.09.1.05.11.09h0l0,0,.07,0,.12,0,.11.11,0,0,.17.17,0,.09.15.13.54.29h.09l.08,0,.07,0L52.2,50l.17,0,.2,0-.08,0-.09,0,.06,0h.12v0h.1l.33-.05h0v0l.08,0H53l.07,0,0,0,.07,0h.08l.06-.09,0,0v.09l.09,0h-.08l.31.08.08.08L54,50l0,0,.28-.09h.08l.2-.12.15-.06.09-.05.17,0,0,0,0-.09h-.07l0,0,.12,0,0,0,0,.09h.07l.09-.1.07-.06.08,0,.11,0,.12,0,.21,0h.34l0,0,.07,0h.09l.2,0,.11.09.1.15h.06l.06,0-.08,0v.09l.08-.05v0l.07,0h-.08v.08l.11-.06,0,.07,0,0a1.55,1.55,0,0,0,0,.21l0,.17.09.06h0v.07l.08-.1,0,.09.07,0,.07-.08.06,0v0l0,.09,0,0a1.74,1.74,0,0,0,0-.22v.18l0,0v-.1h0v.09l0-.09,0,.05,0,0h.06l0-.06v.06l.06,0,.16,0,.07,0,0-.17,0,.09,0,0,.06,0,0,.09,0,.06v-.09l0,0,0,0v.18l0,.11h.08v.06l0-.06v0h0v0h.08v.09l0,0,0,.09h.06l0,.09,0,.08v.09l-.06.09-.12.34v.09l-.1.16h0l-.09.09-.05.08.06,0h.07v0h-.06l0,.18-.06,0,0,.09,0,.09.06,0h.06l-.14,0-.06,0-.09.21-.12.19-.07.08v-.06h0l0,.08,0,0h0v.14h0l0,.11h0l-.06-.07,0-.08,0,.18v.08l0,.05h0v.18h.06l0,.06v0l0-.05,0,.09.14.26v0l.08.25.1.23v.08l0,.16h0l0,.07v.08l0,.09,0,.09v0l0,.07.07,0,.09,0H58l-.09.05h-.06l-.15,0v.26l0,.08v.07l0,0,0,.17,0,.32s0,.07,0,.11l0,.07-.15.13v.11l0,.09,0,.08,0,.3,0,.08-.05.18-.2.36-.13.16-.07.07-.07,0-.09.06-.14.16-.09.06-.08.08-.06.12-.08.09-.19.31-.16.19,0,.07,0,.06-.16.15-.15.31-.2.3-.07.15,0,.08V60l0,.07,0,.15,0,.12-.07.36v.07l-.08.22,0,.14v.1l0,.17v.1l0,.14,0,.07-.07.09-.07.07,0,.1-.05.07-.09.13-.06.07-.06.14,0,.07,0,.07,0,.07-.1.13,0,.07-.07.07-.06.14-.06.06v0l0,.07-.06.06,0,.07-.09.13-.06.19,0,.07v.2h0l0,.07,0,.12-.12.2,0,.06-.12.18-.1.18-.08.16,0,.12-.05.06-.12.15-.06.05-.07.06-.08.05v0l-.08.06v0l0,.06,0,0,0,.06-.07.1-.11.08-.07.08,0,0,0,0,0,0h.06l-.05,0,0,0h0v0l0,0h0v0h0v0l.25-.12h0v0h0l0,0,.12,0,.19-.1h.06l0,0h0v0h0l.06,0h0l.13.07.08-.06h.06v0h0l0,0,0,0,.08,0h0l0,0,.18-.07.32-.17.08,0,0,0,.07,0,.18-.11.37-.24.21-.13.2-.14.18-.13L56,64.4l.15-.11,0,0,.16-.13.23-.16h0l.06,0v0l.06,0,.09-.06,0,0,.06,0,.08-.08.13-.12.28-.27.31-.31-.08.06,0,0,0-.06h0l.06,0,.11-.1.08-.06.05,0,0,0,.37-.19.1-.06.17-.14.14-.14-.06,0,.26-.27.06-.07.05,0,0-.08.14-.17,0-.07-.07.07,0,.07,0-.07.06-.07.14-.18,0-.08.11-.14,0,0,0-.08.06-.14.14-.15,0,0,0-.08v0l0,.05,0,0,.15-.13.16-.15.06,0,.07-.06v0l.05-.07h0l0,0,.16-.14.06-.08,0,0v0l.09-.09.09-.07,0,0,.19-.13,0,0,.05,0h0l0,0,.11-.1.11-.09.06-.07,0,0,0,.09.09-.11h0s3.52,4.76,4.21,7.73S67,71,67,71,70,59.61,69.46,49.27Z"/></g></g></svg>
